<?xml version="1.0" encoding="utf-8" standalone="no"?>
<!DOCTYPE svg PUBLIC "-//W3C//DTD SVG 1.1//EN"
  "http://www.w3.org/Graphics/SVG/1.1/DTD/svg11.dtd">
<!-- Created with matplotlib (https://matplotlib.org/) -->
<svg height="293.820188pt" version="1.1" viewBox="0 0 307.596322 293.820188" width="307.596322pt" xmlns="http://www.w3.org/2000/svg" xmlns:xlink="http://www.w3.org/1999/xlink">
 <metadata>
  <rdf:RDF xmlns:cc="http://creativecommons.org/ns#" xmlns:dc="http://purl.org/dc/elements/1.1/" xmlns:rdf="http://www.w3.org/1999/02/22-rdf-syntax-ns#">
   <cc:Work>
    <dc:type rdf:resource="http://purl.org/dc/dcmitype/StillImage"/>
    <dc:date>2021-06-25T10:24:57.259692</dc:date>
    <dc:format>image/svg+xml</dc:format>
    <dc:creator>
     <cc:Agent>
      <dc:title>Matplotlib v3.3.4, https://matplotlib.org/</dc:title>
     </cc:Agent>
    </dc:creator>
   </cc:Work>
  </rdf:RDF>
 </metadata>
 <defs>
  <style type="text/css">*{stroke-linecap:butt;stroke-linejoin:round;}</style>
 </defs>
 <g id="figure_1">
  <g id="patch_1">
   <path d="M 0 293.820188 
L 307.596322 293.820188 
L 307.596322 0 
L 0 0 
z
" style="fill:none;"/>
  </g>
  <g id="patch_2">
   <path d="M 7.2 286.2 
L 286.2 286.2 
L 286.2 7.2 
L 7.2 7.2 
z
" style="fill:#ffffff;"/>
  </g>
  <g id="pane3d_1">
   <g id="patch_3">
    <path d="M 28.266424 217.407541 
L 120.401336 140.178231 
L 119.120572 28.79976 
L 22.57653 99.253205 
" style="fill:#f2f2f2;opacity:0.5;stroke:#f2f2f2;stroke-linejoin:miter;"/>
   </g>
  </g>
  <g id="pane3d_2">
   <g id="patch_4">
    <path d="M 120.401336 140.178231 
L 268.244995 183.150546 
L 273.521014 67.935772 
L 119.120572 28.79976 
" style="fill:#e6e6e6;opacity:0.5;stroke:#e6e6e6;stroke-linejoin:miter;"/>
   </g>
  </g>
  <g id="pane3d_3">
   <g id="patch_5">
    <path d="M 28.266424 217.407541 
L 184.987924 268.592783 
L 268.244995 183.150546 
L 120.401336 140.178231 
" style="fill:#ececec;opacity:0.5;stroke:#ececec;stroke-linejoin:miter;"/>
   </g>
  </g>
  <g id="axis3d_1">
   <g id="line2d_1">
    <path d="M 28.266424 217.407541 
L 184.987924 268.592783 
" style="fill:none;stroke:#000000;stroke-linecap:square;stroke-width:0.8;"/>
   </g>
   <g id="Line3DCollection_1">
    <path d="M 40.209141 221.308033 
L 131.713567 143.46625 
L 130.911484 31.788413 
" style="fill:none;stroke:#b0b0b0;stroke-width:0.8;"/>
    <path d="M 171.828252 264.294834 
L 255.880897 179.556791 
L 260.583574 64.656508 
" style="fill:none;stroke:#b0b0b0;stroke-width:0.8;"/>
   </g>
   <g id="xtick_1">
    <g id="line2d_2">
     <path d="M 41.006011 220.630144 
L 38.611979 222.666721 
" style="fill:none;stroke:#000000;stroke-linecap:square;stroke-width:0.8;"/>
    </g>
    <g id="text_1">
     <!-- 000 -->
     <g transform="translate(25.444179 242.247803)rotate(-52)scale(0.12 -0.12)">
      <defs>
       <path d="M 31.78125 66.40625 
Q 24.171875 66.40625 20.328125 58.90625 
Q 16.5 51.421875 16.5 36.375 
Q 16.5 21.390625 20.328125 13.890625 
Q 24.171875 6.390625 31.78125 6.390625 
Q 39.453125 6.390625 43.28125 13.890625 
Q 47.125 21.390625 47.125 36.375 
Q 47.125 51.421875 43.28125 58.90625 
Q 39.453125 66.40625 31.78125 66.40625 
z
M 31.78125 74.21875 
Q 44.046875 74.21875 50.515625 64.515625 
Q 56.984375 54.828125 56.984375 36.375 
Q 56.984375 17.96875 50.515625 8.265625 
Q 44.046875 -1.421875 31.78125 -1.421875 
Q 19.53125 -1.421875 13.0625 8.265625 
Q 6.59375 17.96875 6.59375 36.375 
Q 6.59375 54.828125 13.0625 64.515625 
Q 19.53125 74.21875 31.78125 74.21875 
z
" id="DejaVuSans-48"/>
      </defs>
      <use xlink:href="#DejaVuSans-48"/>
      <use x="63.623047" xlink:href="#DejaVuSans-48"/>
      <use x="127.246094" xlink:href="#DejaVuSans-48"/>
     </g>
    </g>
   </g>
   <g id="xtick_2">
    <g id="line2d_3">
     <path d="M 172.562923 263.554172 
L 170.355611 265.779483 
" style="fill:none;stroke:#000000;stroke-linecap:square;stroke-width:0.8;"/>
    </g>
    <g id="text_2">
     <!-- 111 -->
     <g transform="translate(157.037747 285.083728)rotate(-52)scale(0.12 -0.12)">
      <defs>
       <path d="M 12.40625 8.296875 
L 28.515625 8.296875 
L 28.515625 63.921875 
L 10.984375 60.40625 
L 10.984375 69.390625 
L 28.421875 72.90625 
L 38.28125 72.90625 
L 38.28125 8.296875 
L 54.390625 8.296875 
L 54.390625 0 
L 12.40625 0 
z
" id="DejaVuSans-49"/>
      </defs>
      <use xlink:href="#DejaVuSans-49"/>
      <use x="63.623047" xlink:href="#DejaVuSans-49"/>
      <use x="127.246094" xlink:href="#DejaVuSans-49"/>
     </g>
    </g>
   </g>
  </g>
  <g id="axis3d_2">
   <g id="line2d_4">
    <path d="M 268.244995 183.150546 
L 184.987924 268.592783 
" style="fill:none;stroke:#000000;stroke-linecap:square;stroke-width:0.8;"/>
   </g>
   <g id="Line3DCollection_2">
    <path d="M 30.956847 93.137631 
L 36.236327 210.727011 
L 192.218971 261.17195 
" style="fill:none;stroke:#b0b0b0;stroke-width:0.8;"/>
    <path d="M 112.006521 33.991271 
L 113.588262 145.889085 
L 262.113533 189.442935 
" style="fill:none;stroke:#b0b0b0;stroke-width:0.8;"/>
   </g>
   <g id="xtick_3">
    <g id="line2d_5">
     <path d="M 190.904602 260.746882 
L 194.851103 262.023184 
" style="fill:none;stroke:#000000;stroke-linecap:square;stroke-width:0.8;"/>
    </g>
    <g id="text_3">
     <!-- 000 -->
     <g transform="translate(192.822717 270.019228)rotate(-346)scale(0.12 -0.12)">
      <use xlink:href="#DejaVuSans-48"/>
      <use x="63.623047" xlink:href="#DejaVuSans-48"/>
      <use x="127.246094" xlink:href="#DejaVuSans-48"/>
     </g>
    </g>
   </g>
   <g id="xtick_4">
    <g id="line2d_6">
     <path d="M 260.866594 189.07728 
L 264.610397 190.17512 
" style="fill:none;stroke:#000000;stroke-linecap:square;stroke-width:0.8;"/>
    </g>
    <g id="text_4">
     <!-- 111 -->
     <g transform="translate(262.717279 198.290212)rotate(-346)scale(0.12 -0.12)">
      <use xlink:href="#DejaVuSans-49"/>
      <use x="63.623047" xlink:href="#DejaVuSans-49"/>
      <use x="127.246094" xlink:href="#DejaVuSans-49"/>
     </g>
    </g>
   </g>
  </g>
  <g id="axis3d_3">
   <g id="line2d_7">
    <path d="M 268.244995 183.150546 
L 273.521014 67.935772 
" style="fill:none;stroke:#000000;stroke-linecap:square;stroke-width:0.8;"/>
   </g>
   <g id="Line3DCollection_3">
    <path d="M 268.346078 180.943159 
L 120.376747 138.03992 
L 28.157592 215.147576 
" style="fill:none;stroke:#b0b0b0;stroke-width:0.8;"/>
    <path d="M 269.325373 159.557847 
L 120.138631 117.332786 
L 27.102858 193.245329 
" style="fill:none;stroke:#b0b0b0;stroke-width:0.8;"/>
    <path d="M 270.321077 137.814227 
L 119.896718 96.295347 
L 26.029774 170.962059 
" style="fill:none;stroke:#b0b0b0;stroke-width:0.8;"/>
    <path d="M 271.333604 115.703217 
L 119.650914 74.919637 
L 24.937859 148.287736 
" style="fill:none;stroke:#b0b0b0;stroke-width:0.8;"/>
    <path d="M 272.363385 93.215425 
L 119.401126 53.197431 
L 23.826612 125.211974 
" style="fill:none;stroke:#b0b0b0;stroke-width:0.8;"/>
    <path d="M 273.410865 70.341139 
L 119.147256 31.120235 
L 22.695516 101.724018 
" style="fill:none;stroke:#b0b0b0;stroke-width:0.8;"/>
   </g>
   <g id="xtick_5">
    <g id="line2d_8">
     <path d="M 267.104158 180.583068 
L 270.832874 181.664197 
" style="fill:none;stroke:#000000;stroke-linecap:square;stroke-width:0.8;"/>
    </g>
    <g id="text_5">
     <!-- 0.0 -->
     <g transform="translate(278.661013 185.940327)scale(0.1 -0.1)">
      <defs>
       <path d="M 10.6875 12.40625 
L 21 12.40625 
L 21 0 
L 10.6875 0 
z
" id="DejaVuSans-46"/>
      </defs>
      <use xlink:href="#DejaVuSans-48"/>
      <use x="63.623047" xlink:href="#DejaVuSans-46"/>
      <use x="95.410156" xlink:href="#DejaVuSans-48"/>
     </g>
    </g>
   </g>
   <g id="xtick_6">
    <g id="line2d_9">
     <path d="M 268.072748 159.203311 
L 271.83363 160.267772 
" style="fill:none;stroke:#000000;stroke-linecap:square;stroke-width:0.8;"/>
    </g>
    <g id="text_6">
     <!-- 0.1 -->
     <g transform="translate(279.788799 164.595191)scale(0.1 -0.1)">
      <use xlink:href="#DejaVuSans-48"/>
      <use x="63.623047" xlink:href="#DejaVuSans-46"/>
      <use x="95.410156" xlink:href="#DejaVuSans-49"/>
     </g>
    </g>
   </g>
   <g id="xtick_7">
    <g id="line2d_10">
     <path d="M 269.057561 137.465482 
L 272.851166 138.512561 
" style="fill:none;stroke:#000000;stroke-linecap:square;stroke-width:0.8;"/>
    </g>
    <g id="text_7">
     <!-- 0.2 -->
     <g transform="translate(280.935427 142.89346)scale(0.1 -0.1)">
      <defs>
       <path d="M 19.1875 8.296875 
L 53.609375 8.296875 
L 53.609375 0 
L 7.328125 0 
L 7.328125 8.296875 
Q 12.9375 14.109375 22.625 23.890625 
Q 32.328125 33.6875 34.8125 36.53125 
Q 39.546875 41.84375 41.421875 45.53125 
Q 43.3125 49.21875 43.3125 52.78125 
Q 43.3125 58.59375 39.234375 62.25 
Q 35.15625 65.921875 28.609375 65.921875 
Q 23.96875 65.921875 18.8125 64.3125 
Q 13.671875 62.703125 7.8125 59.421875 
L 7.8125 69.390625 
Q 13.765625 71.78125 18.9375 73 
Q 24.125 74.21875 28.421875 74.21875 
Q 39.75 74.21875 46.484375 68.546875 
Q 53.21875 62.890625 53.21875 53.421875 
Q 53.21875 48.921875 51.53125 44.890625 
Q 49.859375 40.875 45.40625 35.40625 
Q 44.1875 33.984375 37.640625 27.21875 
Q 31.109375 20.453125 19.1875 8.296875 
z
" id="DejaVuSans-50"/>
      </defs>
      <use xlink:href="#DejaVuSans-48"/>
      <use x="63.623047" xlink:href="#DejaVuSans-46"/>
      <use x="95.410156" xlink:href="#DejaVuSans-50"/>
     </g>
    </g>
   </g>
   <g id="xtick_8">
    <g id="line2d_11">
     <path d="M 270.059007 115.36051 
L 273.88591 116.389466 
" style="fill:none;stroke:#000000;stroke-linecap:square;stroke-width:0.8;"/>
    </g>
    <g id="text_8">
     <!-- 0.3 -->
     <g transform="translate(282.101371 120.826123)scale(0.1 -0.1)">
      <defs>
       <path d="M 40.578125 39.3125 
Q 47.65625 37.796875 51.625 33 
Q 55.609375 28.21875 55.609375 21.1875 
Q 55.609375 10.40625 48.1875 4.484375 
Q 40.765625 -1.421875 27.09375 -1.421875 
Q 22.515625 -1.421875 17.65625 -0.515625 
Q 12.796875 0.390625 7.625 2.203125 
L 7.625 11.71875 
Q 11.71875 9.328125 16.59375 8.109375 
Q 21.484375 6.890625 26.8125 6.890625 
Q 36.078125 6.890625 40.9375 10.546875 
Q 45.796875 14.203125 45.796875 21.1875 
Q 45.796875 27.640625 41.28125 31.265625 
Q 36.765625 34.90625 28.71875 34.90625 
L 20.21875 34.90625 
L 20.21875 43.015625 
L 29.109375 43.015625 
Q 36.375 43.015625 40.234375 45.921875 
Q 44.09375 48.828125 44.09375 54.296875 
Q 44.09375 59.90625 40.109375 62.90625 
Q 36.140625 65.921875 28.71875 65.921875 
Q 24.65625 65.921875 20.015625 65.03125 
Q 15.375 64.15625 9.8125 62.3125 
L 9.8125 71.09375 
Q 15.4375 72.65625 20.34375 73.4375 
Q 25.25 74.21875 29.59375 74.21875 
Q 40.828125 74.21875 47.359375 69.109375 
Q 53.90625 64.015625 53.90625 55.328125 
Q 53.90625 49.265625 50.4375 45.09375 
Q 46.96875 40.921875 40.578125 39.3125 
z
" id="DejaVuSans-51"/>
      </defs>
      <use xlink:href="#DejaVuSans-48"/>
      <use x="63.623047" xlink:href="#DejaVuSans-46"/>
      <use x="95.410156" xlink:href="#DejaVuSans-51"/>
     </g>
    </g>
   </g>
   <g id="xtick_9">
    <g id="line2d_12">
     <path d="M 271.077511 92.879014 
L 274.9383 93.889074 
" style="fill:none;stroke:#000000;stroke-linecap:square;stroke-width:0.8;"/>
    </g>
    <g id="text_9">
     <!-- 0.4 -->
     <g transform="translate(283.287125 98.383862)scale(0.1 -0.1)">
      <defs>
       <path d="M 37.796875 64.3125 
L 12.890625 25.390625 
L 37.796875 25.390625 
z
M 35.203125 72.90625 
L 47.609375 72.90625 
L 47.609375 25.390625 
L 58.015625 25.390625 
L 58.015625 17.1875 
L 47.609375 17.1875 
L 47.609375 0 
L 37.796875 0 
L 37.796875 17.1875 
L 4.890625 17.1875 
L 4.890625 26.703125 
z
" id="DejaVuSans-52"/>
      </defs>
      <use xlink:href="#DejaVuSans-48"/>
      <use x="63.623047" xlink:href="#DejaVuSans-46"/>
      <use x="95.410156" xlink:href="#DejaVuSans-52"/>
     </g>
    </g>
   </g>
   <g id="xtick_10">
    <g id="line2d_13">
     <path d="M 272.113512 70.011292 
L 276.008793 71.001651 
" style="fill:none;stroke:#000000;stroke-linecap:square;stroke-width:0.8;"/>
    </g>
    <g id="text_10">
     <!-- 0.5 -->
     <g transform="translate(284.493197 75.55704)scale(0.1 -0.1)">
      <defs>
       <path d="M 10.796875 72.90625 
L 49.515625 72.90625 
L 49.515625 64.59375 
L 19.828125 64.59375 
L 19.828125 46.734375 
Q 21.96875 47.46875 24.109375 47.828125 
Q 26.265625 48.1875 28.421875 48.1875 
Q 40.625 48.1875 47.75 41.5 
Q 54.890625 34.8125 54.890625 23.390625 
Q 54.890625 11.625 47.5625 5.09375 
Q 40.234375 -1.421875 26.90625 -1.421875 
Q 22.3125 -1.421875 17.546875 -0.640625 
Q 12.796875 0.140625 7.71875 1.703125 
L 7.71875 11.625 
Q 12.109375 9.234375 16.796875 8.0625 
Q 21.484375 6.890625 26.703125 6.890625 
Q 35.15625 6.890625 40.078125 11.328125 
Q 45.015625 15.765625 45.015625 23.390625 
Q 45.015625 31 40.078125 35.4375 
Q 35.15625 39.890625 26.703125 39.890625 
Q 22.75 39.890625 18.8125 39.015625 
Q 14.890625 38.140625 10.796875 36.28125 
z
" id="DejaVuSans-53"/>
      </defs>
      <use xlink:href="#DejaVuSans-48"/>
      <use x="63.623047" xlink:href="#DejaVuSans-46"/>
      <use x="95.410156" xlink:href="#DejaVuSans-53"/>
     </g>
    </g>
   </g>
  </g>
  <g id="axes_1">
   <g id="Poly3DCollection_1">
    <path clip-path="url(#p450547bb21)" d="M 111.228125 148.904419 
L 121.505767 140.279294 
L 138.570864 145.238187 
L 128.404463 153.962634 
z
" style="fill:#113f60;"/>
    <path clip-path="url(#p450547bb21)" d="M 138.570864 145.238187 
L 138.538134 138.05978 
L 155.846887 143.048175 
L 155.832054 150.254063 
z
" style="fill:#0d324b;"/>
    <path clip-path="url(#p450547bb21)" d="M 128.404463 153.962634 
L 128.343161 146.736528 
L 138.538134 138.05978 
L 138.570864 145.238187 
z
" style="fill:#1b699f;"/>
    <path clip-path="url(#p450547bb21)" d="M 128.404463 153.962634 
L 138.570864 145.238187 
L 155.832054 150.254063 
L 145.780156 159.079556 
z
" style="fill:#113f60;"/>
    <path clip-path="url(#p450547bb21)" d="M 111.228125 148.904419 
L 111.037187 136.22384 
L 128.296476 141.233287 
L 128.404463 153.962634 
z
" style="fill:#0d324b;"/>
    <path clip-path="url(#p450547bb21)" d="M 155.832054 150.254063 
L 155.846604 143.185932 
L 173.355026 148.23267 
L 173.292738 155.327909 
z
" style="fill:#0d324b;"/>
    <path clip-path="url(#p450547bb21)" d="M 128.343161 146.736528 
L 145.76705 151.825697 
L 155.846887 143.048175 
L 138.538134 138.05978 
z
" style="fill:#185b8a;"/>
    <path clip-path="url(#p450547bb21)" d="M 100.744194 157.702665 
L 100.499805 144.937441 
L 111.037187 136.22384 
L 111.228125 148.904419 
z
" style="fill:#1b699f;"/>
    <path clip-path="url(#p450547bb21)" d="M 100.744194 157.702665 
L 111.228125 148.904419 
L 128.404463 153.962634 
L 118.032815 162.863215 
z
" style="fill:#113f60;"/>
    <path clip-path="url(#p450547bb21)" d="M 145.780156 159.079556 
L 145.767301 151.964375 
L 155.846604 143.185932 
L 155.832054 150.254063 
z
" style="fill:#1b699f;"/>
    <path clip-path="url(#p450547bb21)" d="M 145.780156 159.079556 
L 155.832054 150.254063 
L 155.846887 143.048175 
L 145.76705 151.825697 
z
" style="fill:#0d324b;"/>
    <path clip-path="url(#p450547bb21)" d="M 128.404463 153.962634 
L 128.390178 152.278801 
L 145.777102 157.389277 
L 145.780156 159.079556 
z
" style="fill:#0d324b;"/>
    <path clip-path="url(#p450547bb21)" d="M 145.780156 159.079556 
L 155.832054 150.254063 
L 173.292738 155.327909 
L 163.358696 164.256214 
z
" style="fill:#113f60;"/>
    <path clip-path="url(#p450547bb21)" d="M 128.404463 153.962634 
L 145.780156 159.079556 
L 145.76705 151.825697 
L 128.343161 146.736528 
z
" style="fill:#1b699f;"/>
    <path clip-path="url(#p450547bb21)" d="M 121.505767 140.279294 
L 120.456574 45.563423 
L 138.137274 50.142214 
L 138.570864 145.238187 
z
" style="fill:#0d324b;"/>
    <path clip-path="url(#p450547bb21)" d="M 118.032815 162.863215 
L 118.011605 161.168194 
L 128.390178 152.278801 
L 128.404463 153.962634 
z
" style="fill:#1b699f;"/>
    <path clip-path="url(#p450547bb21)" d="M 173.292738 155.327909 
L 173.380715 145.306382 
L 191.113372 150.400637 
L 190.956394 160.460736 
z
" style="fill:#0d324b;"/>
    <path clip-path="url(#p450547bb21)" d="M 145.767301 151.964375 
L 163.394228 157.113658 
L 173.355026 148.23267 
L 155.846604 143.185932 
z
" style="fill:#185b8a;"/>
    <path clip-path="url(#p450547bb21)" d="M 100.499805 144.937441 
L 117.872461 150.048739 
L 128.296476 141.233287 
L 111.037187 136.22384 
z
" style="fill:#185b8a;"/>
    <path clip-path="url(#p450547bb21)" d="M 111.228125 148.904419 
L 109.792 53.528646 
L 120.456574 45.563423 
L 121.505767 140.279294 
z
" style="fill:#1b699f;"/>
    <path clip-path="url(#p450547bb21)" d="M 118.032815 162.863215 
L 128.404463 153.962634 
L 128.296476 141.233287 
L 117.872461 150.048739 
z
" style="fill:#0d324b;"/>
    <path clip-path="url(#p450547bb21)" d="M 118.032815 162.863215 
L 128.404463 153.962634 
L 145.780156 159.079556 
L 135.524133 168.084269 
z
" style="fill:#113f60;"/>
    <path clip-path="url(#p450547bb21)" d="M 163.358696 164.256214 
L 173.292738 155.327909 
L 173.355026 148.23267 
L 163.394228 157.113658 
z
" style="fill:#0d324b;"/>
    <path clip-path="url(#p450547bb21)" d="M 163.358696 164.256214 
L 163.408883 154.16774 
L 173.380715 145.306382 
L 173.292738 155.327909 
z
" style="fill:#1b699f;"/>
    <path clip-path="url(#p450547bb21)" d="M 118.011605 161.168194 
L 135.514302 166.382739 
L 145.777102 157.389277 
L 128.390178 152.278801 
z
" style="fill:#185b8a;"/>
    <path clip-path="url(#p450547bb21)" d="M 100.744194 157.702665 
L 100.590037 149.650535 
L 117.931667 154.780103 
L 118.032815 162.863215 
z
" style="fill:#0d324b;"/>
    <path clip-path="url(#p450547bb21)" d="M 163.358696 164.256214 
L 173.292738 155.327909 
L 190.956394 160.460736 
L 181.143656 169.493661 
z
" style="fill:#113f60;"/>
    <path clip-path="url(#p450547bb21)" d="M 100.744194 157.702665 
L 118.032815 162.863215 
L 117.872461 150.048739 
L 100.499805 144.937441 
z
" style="fill:#1b699f;"/>
    <path clip-path="url(#p450547bb21)" d="M 145.780156 159.079556 
L 145.770776 153.888088 
L 163.384621 159.044795 
L 163.358696 164.256214 
z
" style="fill:#0d324b;"/>
    <path clip-path="url(#p450547bb21)" d="M 145.780156 159.079556 
L 163.358696 164.256214 
L 163.394228 157.113658 
L 145.767301 151.964375 
z
" style="fill:#1b699f;"/>
    <path clip-path="url(#p450547bb21)" d="M 90.0477 166.679297 
L 89.858477 158.573395 
L 100.590037 149.650535 
L 100.744194 157.702665 
z
" style="fill:#1b699f;"/>
    <path clip-path="url(#p450547bb21)" d="M 135.524133 168.084269 
L 145.780156 159.079556 
L 145.777102 157.389277 
L 135.514302 166.382739 
z
" style="fill:#0d324b;"/>
    <path clip-path="url(#p450547bb21)" d="M 190.956394 160.460736 
L 191.056844 154.023324 
L 208.972217 159.191397 
L 208.826581 165.653578 
z
" style="fill:#0d324b;"/>
    <path clip-path="url(#p450547bb21)" d="M 135.524133 168.084269 
L 135.493939 162.858173 
L 145.770776 153.888088 
L 145.780156 159.079556 
z
" style="fill:#1b699f;"/>
    <path clip-path="url(#p450547bb21)" d="M 90.0477 166.679297 
L 100.744194 157.702665 
L 118.032815 162.863215 
L 107.449643 171.94532 
z
" style="fill:#113f60;"/>
    <path clip-path="url(#p450547bb21)" d="M 128.404463 153.962634 
L 138.570864 145.238187 
L 138.137274 50.142214 
L 127.592101 58.202529 
z
" style="fill:#0d324b;"/>
    <path clip-path="url(#p450547bb21)" d="M 118.032815 162.863215 
L 135.524133 168.084269 
L 135.514302 166.382739 
L 118.011605 161.168194 
z
" style="fill:#1b699f;"/>
    <path clip-path="url(#p450547bb21)" d="M 163.408883 154.16774 
L 181.263801 159.366236 
L 191.113372 150.400637 
L 173.380715 145.306382 
z
" style="fill:#185b8a;"/>
    <path clip-path="url(#p450547bb21)" d="M 181.143656 169.493661 
L 181.220535 163.01326 
L 191.056844 154.023324 
L 190.956394 160.460736 
z
" style="fill:#1b699f;"/>
    <path clip-path="url(#p450547bb21)" d="M 135.524133 168.084269 
L 145.780156 159.079556 
L 163.358696 164.256214 
L 153.221733 173.366896 
z
" style="fill:#113f60;"/>
    <path clip-path="url(#p450547bb21)" d="M 181.143656 169.493661 
L 190.956394 160.460736 
L 191.113372 150.400637 
L 181.263801 159.366236 
z
" style="fill:#0d324b;"/>
    <path clip-path="url(#p450547bb21)" d="M 118.032815 162.863215 
L 117.936429 155.160623 
L 135.47946 160.351993 
L 135.524133 168.084269 
z
" style="fill:#0d324b;"/>
    <path clip-path="url(#p450547bb21)" d="M 111.228125 148.904419 
L 128.404463 153.962634 
L 127.592101 58.202529 
L 109.792 53.528646 
z
" style="fill:#1b699f;"/>
    <path clip-path="url(#p450547bb21)" d="M 89.858477 158.573395 
L 107.314121 163.808133 
L 117.931667 154.780103 
L 100.590037 149.650535 
z
" style="fill:#185b8a;"/>
    <path clip-path="url(#p450547bb21)" d="M 181.143656 169.493661 
L 190.956394 160.460736 
L 208.826581 165.653578 
L 199.138693 174.792972 
z
" style="fill:#113f60;"/>
    <path clip-path="url(#p450547bb21)" d="M 135.493939 162.858173 
L 153.227324 168.120657 
L 163.384621 159.044795 
L 145.770776 153.888088 
z
" style="fill:#185b8a;"/>
    <path clip-path="url(#p450547bb21)" d="M 163.358696 164.256214 
L 163.39328 157.304227 
L 181.226447 162.514882 
L 181.143656 169.493661 
z
" style="fill:#0d324b;"/>
    <path clip-path="url(#p450547bb21)" d="M 163.358696 164.256214 
L 181.143656 169.493661 
L 181.263801 159.366236 
L 163.408883 154.16774 
z
" style="fill:#1b699f;"/>
    <path clip-path="url(#p450547bb21)" d="M 107.449643 171.94532 
L 107.320501 164.19121 
L 117.936429 155.160623 
L 118.032815 162.863215 
z
" style="fill:#1b699f;"/>
    <path clip-path="url(#p450547bb21)" d="M 107.449643 171.94532 
L 118.032815 162.863215 
L 117.931667 154.780103 
L 107.314121 163.808133 
z
" style="fill:#0d324b;"/>
    <path clip-path="url(#p450547bb21)" d="M 208.826581 165.653578 
L 208.968445 159.358777 
L 227.093856 164.588433 
L 226.906944 170.907494 
z
" style="fill:#0d324b;"/>
    <path clip-path="url(#p450547bb21)" d="M 153.221733 173.366896 
L 163.358696 164.256214 
L 163.384621 159.044795 
L 153.227324 168.120657 
z
" style="fill:#0d324b;"/>
    <path clip-path="url(#p450547bb21)" d="M 181.220535 163.01326 
L 199.261397 168.287562 
L 208.972217 159.191397 
L 191.056844 154.023324 
z
" style="fill:#185b8a;"/>
    <path clip-path="url(#p450547bb21)" d="M 153.221733 173.366896 
L 153.229191 166.36841 
L 163.39328 157.304227 
L 163.358696 164.256214 
z
" style="fill:#1b699f;"/>
    <path clip-path="url(#p450547bb21)" d="M 107.449643 171.94532 
L 118.032815 162.863215 
L 135.524133 168.084269 
L 125.057704 177.273716 
z
" style="fill:#113f60;"/>
    <path clip-path="url(#p450547bb21)" d="M 90.0477 166.679297 
L 107.449643 171.94532 
L 107.314121 163.808133 
L 89.858477 158.573395 
z
" style="fill:#1b699f;"/>
    <path clip-path="url(#p450547bb21)" d="M 90.0477 166.679297 
L 89.823218 157.062983 
L 107.288868 162.291858 
L 107.449643 171.94532 
z
" style="fill:#0d324b;"/>
    <path clip-path="url(#p450547bb21)" d="M 199.138693 174.792972 
L 199.258218 168.456066 
L 208.968445 159.358777 
L 208.826581 165.653578 
z
" style="fill:#1b699f;"/>
    <path clip-path="url(#p450547bb21)" d="M 199.138693 174.792972 
L 208.826581 165.653578 
L 208.972217 159.191397 
L 199.261397 168.287562 
z
" style="fill:#0d324b;"/>
    <path clip-path="url(#p450547bb21)" d="M 153.221733 173.366896 
L 163.358696 164.256214 
L 181.143656 169.493661 
L 171.129285 178.712194 
z
" style="fill:#113f60;"/>
    <path clip-path="url(#p450547bb21)" d="M 135.524133 168.084269 
L 153.221733 173.366896 
L 153.227324 168.120657 
L 135.493939 162.858173 
z
" style="fill:#1b699f;"/>
    <path clip-path="url(#p450547bb21)" d="M 135.524133 168.084269 
L 135.493294 162.746567 
L 153.227443 168.008619 
L 153.221733 173.366896 
z
" style="fill:#0d324b;"/>
    <path clip-path="url(#p450547bb21)" d="M 107.320501 164.19121 
L 124.980966 169.489636 
L 135.47946 160.351993 
L 117.936429 155.160623 
z
" style="fill:#185b8a;"/>
    <path clip-path="url(#p450547bb21)" d="M 199.138693 174.792972 
L 208.826581 165.653578 
L 226.906944 170.907494 
L 217.347551 180.155251 
z
" style="fill:#113f60;"/>
    <path clip-path="url(#p450547bb21)" d="M 79.13211 175.839797 
L 78.86435 166.159011 
L 89.823218 157.062983 
L 90.0477 166.679297 
z
" style="fill:#1b699f;"/>
    <path clip-path="url(#p450547bb21)" d="M 181.143656 169.493661 
L 199.138693 174.792972 
L 199.261397 168.287562 
L 181.220535 163.01326 
z
" style="fill:#1b699f;"/>
    <path clip-path="url(#p450547bb21)" d="M 181.143656 169.493661 
L 181.243206 161.102276 
L 199.297581 166.369166 
L 199.138693 174.792972 
z
" style="fill:#0d324b;"/>
    <path clip-path="url(#p450547bb21)" d="M 125.057704 177.273716 
L 125.004731 171.900304 
L 135.493294 162.746567 
L 135.524133 168.084269 
z
" style="fill:#1b699f;"/>
    <path clip-path="url(#p450547bb21)" d="M 153.229191 166.36841 
L 171.185622 171.686658 
L 181.226447 162.514882 
L 163.39328 157.304227 
z
" style="fill:#185b8a;"/>
    <path clip-path="url(#p450547bb21)" d="M 79.13211 175.839797 
L 90.0477 166.679297 
L 107.449643 171.94532 
L 96.648408 181.214559 
z
" style="fill:#113f60;"/>
    <path clip-path="url(#p450547bb21)" d="M 125.057704 177.273716 
L 135.524133 168.084269 
L 135.47946 160.351993 
L 124.980966 169.489636 
z
" style="fill:#0d324b;"/>
    <path clip-path="url(#p450547bb21)" d="M 226.906944 170.907494 
L 227.104825 164.217603 
L 245.447908 169.507845 
L 245.201212 176.223568 
z
" style="fill:#0d324b;"/>
    <path clip-path="url(#p450547bb21)" d="M 199.258218 168.456066 
L 217.512775 173.793852 
L 227.093856 164.588433 
L 208.968445 159.358777 
z
" style="fill:#185b8a;"/>
    <path clip-path="url(#p450547bb21)" d="M 171.129285 178.712194 
L 181.143656 169.493661 
L 181.226447 162.514882 
L 171.185622 171.686658 
z
" style="fill:#0d324b;"/>
    <path clip-path="url(#p450547bb21)" d="M 125.057704 177.273716 
L 135.524133 168.084269 
L 153.221733 173.366896 
L 142.875567 182.665601 
z
" style="fill:#113f60;"/>
    <path clip-path="url(#p450547bb21)" d="M 171.129285 178.712194 
L 171.197025 170.26454 
L 181.243206 161.102276 
L 181.143656 169.493661 
z
" style="fill:#1b699f;"/>
    <path clip-path="url(#p450547bb21)" d="M 107.449643 171.94532 
L 107.349058 165.905831 
L 124.997935 171.210908 
L 125.057704 177.273716 
z
" style="fill:#0d324b;"/>
    <path clip-path="url(#p450547bb21)" d="M 107.449643 171.94532 
L 125.057704 177.273716 
L 124.980966 169.489636 
L 107.320501 164.19121 
z
" style="fill:#1b699f;"/>
    <path clip-path="url(#p450547bb21)" d="M 153.221733 173.366896 
L 153.224962 170.337049 
L 171.153675 175.670663 
L 171.129285 178.712194 
z
" style="fill:#0d324b;"/>
    <path clip-path="url(#p450547bb21)" d="M 217.347551 180.155251 
L 226.906944 170.907494 
L 227.093856 164.588433 
L 217.512775 173.793852 
z
" style="fill:#0d324b;"/>
    <path clip-path="url(#p450547bb21)" d="M 217.347551 180.155251 
L 217.522471 173.420527 
L 227.104825 164.217603 
L 226.906944 170.907494 
z
" style="fill:#1b699f;"/>
    <path clip-path="url(#p450547bb21)" d="M 171.129285 178.712194 
L 181.143656 169.493661 
L 199.138693 174.792972 
L 189.25055 184.121283 
z
" style="fill:#113f60;"/>
    <path clip-path="url(#p450547bb21)" d="M 125.004731 171.900304 
L 142.859642 177.271415 
L 153.227443 168.008619 
L 135.493294 162.746567 
z
" style="fill:#185b8a;"/>
    <path clip-path="url(#p450547bb21)" d="M 153.221733 173.366896 
L 171.129285 178.712194 
L 171.185622 171.686658 
L 153.229191 166.36841 
z
" style="fill:#1b699f;"/>
    <path clip-path="url(#p450547bb21)" d="M 78.86435 166.159011 
L 96.445187 171.496267 
L 107.288868 162.291858 
L 89.823218 157.062983 
z
" style="fill:#185b8a;"/>
    <path clip-path="url(#p450547bb21)" d="M 96.648408 181.214559 
L 96.521269 175.134598 
L 107.349058 165.905831 
L 107.449643 171.94532 
z
" style="fill:#1b699f;"/>
    <path clip-path="url(#p450547bb21)" d="M 199.138693 174.792972 
L 199.184477 172.365628 
L 217.410839 177.718547 
L 217.347551 180.155251 
z
" style="fill:#0d324b;"/>
    <path clip-path="url(#p450547bb21)" d="M 217.347551 180.155251 
L 226.906944 170.907494 
L 245.201212 176.223568 
L 235.774065 185.581627 
z
" style="fill:#113f60;"/>
    <path clip-path="url(#p450547bb21)" d="M 96.648408 181.214559 
L 107.449643 171.94532 
L 107.288868 162.291858 
L 96.445187 171.496267 
z
" style="fill:#0d324b;"/>
    <path clip-path="url(#p450547bb21)" d="M 142.875567 182.665601 
L 142.866562 179.615477 
L 153.224962 170.337049 
L 153.221733 173.366896 
z
" style="fill:#1b699f;"/>
    <path clip-path="url(#p450547bb21)" d="M 199.138693 174.792972 
L 217.347551 180.155251 
L 217.512775 173.793852 
L 199.258218 168.456066 
z
" style="fill:#1b699f;"/>
    <path clip-path="url(#p450547bb21)" d="M 142.875567 182.665601 
L 153.221733 173.366896 
L 153.227443 168.008619 
L 142.859642 177.271415 
z
" style="fill:#0d324b;"/>
    <path clip-path="url(#p450547bb21)" d="M 109.792 53.528646 
L 127.592101 58.202529 
L 138.137274 50.142214 
L 120.456574 45.563423 
z
" style="fill:#185b8a;"/>
    <path clip-path="url(#p450547bb21)" d="M 96.648408 181.214559 
L 107.449643 171.94532 
L 125.057704 177.273716 
L 114.374328 186.653642 
z
" style="fill:#113f60;"/>
    <path clip-path="url(#p450547bb21)" d="M 171.197025 170.26454 
L 189.378469 175.640897 
L 199.297581 166.369166 
L 181.243206 161.102276 
z
" style="fill:#185b8a;"/>
    <path clip-path="url(#p450547bb21)" d="M 189.25055 184.121283 
L 189.287409 181.677694 
L 199.184477 172.365628 
L 199.138693 174.792972 
z
" style="fill:#1b699f;"/>
    <path clip-path="url(#p450547bb21)" d="M 79.13211 175.839797 
L 96.648408 181.214559 
L 96.445187 171.496267 
L 78.86435 166.159011 
z
" style="fill:#1b699f;"/>
    <path clip-path="url(#p450547bb21)" d="M 125.057704 177.273716 
L 125.035176 174.988488 
L 142.868795 180.371555 
L 142.875567 182.665601 
z
" style="fill:#0d324b;"/>
    <path clip-path="url(#p450547bb21)" d="M 217.522471 173.420527 
L 235.998517 178.820824 
L 245.447908 169.507845 
L 227.104825 164.217603 
z
" style="fill:#185b8a;"/>
    <path clip-path="url(#p450547bb21)" d="M 79.13211 175.839797 
L 78.789747 163.46176 
L 96.388564 168.788489 
L 96.648408 181.214559 
z
" style="fill:#0d324b;"/>
    <path clip-path="url(#p450547bb21)" d="M 142.875567 182.665601 
L 153.221733 173.366896 
L 171.129285 178.712194 
L 160.907005 188.122115 
z
" style="fill:#113f60;"/>
    <path clip-path="url(#p450547bb21)" d="M 125.057704 177.273716 
L 142.875567 182.665601 
L 142.859642 177.271415 
L 125.004731 171.900304 
z
" style="fill:#1b699f;"/>
    <path clip-path="url(#p450547bb21)" d="M 189.25055 184.121283 
L 199.138693 174.792972 
L 199.297581 166.369166 
L 189.378469 175.640897 
z
" style="fill:#0d324b;"/>
    <path clip-path="url(#p450547bb21)" d="M 96.521269 175.134598 
L 114.28855 180.55014 
L 124.997935 171.210908 
L 107.349058 165.905831 
z
" style="fill:#185b8a;"/>
    <path clip-path="url(#p450547bb21)" d="M 142.866562 179.615477 
L 160.919454 185.060198 
L 171.153675 175.670663 
L 153.224962 170.337049 
z
" style="fill:#185b8a;"/>
    <path clip-path="url(#p450547bb21)" d="M 171.129285 178.712194 
L 171.148699 176.291224 
L 189.287209 181.690966 
L 189.25055 184.121283 
z
" style="fill:#0d324b;"/>
    <path clip-path="url(#p450547bb21)" d="M 235.774065 185.581627 
L 245.201212 176.223568 
L 245.447908 169.507845 
L 235.998517 178.820824 
z
" style="fill:#0d324b;"/>
    <path clip-path="url(#p450547bb21)" d="M 189.25055 184.121283 
L 199.138693 174.792972 
L 217.347551 180.155251 
L 207.589374 189.595312 
z
" style="fill:#113f60;"/>
    <path clip-path="url(#p450547bb21)" d="M 114.374328 186.653642 
L 114.341997 184.35311 
L 125.035176 174.988488 
L 125.057704 177.273716 
z
" style="fill:#1b699f;"/>
    <path clip-path="url(#p450547bb21)" d="M 67.990626 185.18987 
L 67.590677 172.728471 
L 78.789747 163.46176 
L 79.13211 175.839797 
z
" style="fill:#1b699f;"/>
    <path clip-path="url(#p450547bb21)" d="M 217.347551 180.155251 
L 217.353739 179.917008 
L 235.782005 185.342465 
L 235.774065 185.581627 
z
" style="fill:#0d324b;"/>
    <path clip-path="url(#p450547bb21)" d="M 171.129285 178.712194 
L 189.25055 184.121283 
L 189.378469 175.640897 
L 171.197025 170.26454 
z
" style="fill:#1b699f;"/>
    <path clip-path="url(#p450547bb21)" d="M 189.287409 181.677694 
L 207.64399 187.142275 
L 217.410839 177.718547 
L 199.184477 172.365628 
z
" style="fill:#185b8a;"/>
    <path clip-path="url(#p450547bb21)" d="M 114.374328 186.653642 
L 125.057704 177.273716 
L 124.997935 171.210908 
L 114.28855 180.55014 
z
" style="fill:#0d324b;"/>
    <path clip-path="url(#p450547bb21)" d="M 67.990626 185.18987 
L 79.13211 175.839797 
L 96.648408 181.214559 
L 85.6223 190.676775 
z
" style="fill:#113f60;"/>
    <path clip-path="url(#p450547bb21)" d="M 235.774065 185.581627 
L 245.201212 176.223568 
L 263.713203 181.60291 
L 254.42216 191.073256 
z
" style="fill:#113f60;"/>
    <path clip-path="url(#p450547bb21)" d="M 160.907005 188.122115 
L 160.916914 185.684924 
L 171.148699 176.291224 
L 171.129285 178.712194 
z
" style="fill:#1b699f;"/>
    <path clip-path="url(#p450547bb21)" d="M 160.907005 188.122115 
L 171.129285 178.712194 
L 171.153675 175.670663 
L 160.919454 185.060198 
z
" style="fill:#0d324b;"/>
    <path clip-path="url(#p450547bb21)" d="M 217.347551 180.155251 
L 235.774065 185.581627 
L 235.998517 178.820824 
L 217.522471 173.420527 
z
" style="fill:#1b699f;"/>
    <path clip-path="url(#p450547bb21)" d="M 114.374328 186.653642 
L 125.057704 177.273716 
L 142.875567 182.665601 
L 132.313656 192.158208 
z
" style="fill:#113f60;"/>
    <path clip-path="url(#p450547bb21)" d="M 207.589374 189.595312 
L 207.594714 189.355474 
L 217.353739 179.917008 
L 217.347551 180.155251 
z
" style="fill:#1b699f;"/>
    <path clip-path="url(#p450547bb21)" d="M 96.648408 181.214559 
L 114.374328 186.653642 
L 114.28855 180.55014 
L 96.521269 175.134598 
z
" style="fill:#1b699f;"/>
    <path clip-path="url(#p450547bb21)" d="M 96.648408 181.214559 
L 96.504763 174.345282 
L 114.277414 179.757756 
L 114.374328 186.653642 
z
" style="fill:#0d324b;"/>
    <path clip-path="url(#p450547bb21)" d="M 207.589374 189.595312 
L 217.347551 180.155251 
L 217.410839 177.718547 
L 207.64399 187.142275 
z
" style="fill:#0d324b;"/>
    <path clip-path="url(#p450547bb21)" d="M 114.341997 184.35311 
L 132.297295 189.848776 
L 142.868795 180.371555 
L 125.035176 174.988488 
z
" style="fill:#185b8a;"/>
    <path clip-path="url(#p450547bb21)" d="M 142.875567 182.665601 
L 142.866869 179.719352 
L 160.91903 185.164476 
L 160.907005 188.122115 
z
" style="fill:#0d324b;"/>
    <path clip-path="url(#p450547bb21)" d="M 142.875567 182.665601 
L 160.907005 188.122115 
L 160.919454 185.060198 
L 142.866562 179.615477 
z
" style="fill:#1b699f;"/>
    <path clip-path="url(#p450547bb21)" d="M 160.907005 188.122115 
L 171.129285 178.712194 
L 189.25055 184.121283 
L 179.155879 193.644428 
z
" style="fill:#113f60;"/>
    <path clip-path="url(#p450547bb21)" d="M 160.916914 185.684924 
L 179.183279 191.197804 
L 189.287209 181.690966 
L 171.148699 176.291224 
z
" style="fill:#185b8a;"/>
    <path clip-path="url(#p450547bb21)" d="M 189.25055 184.121283 
L 189.269896 182.838711 
L 207.618041 188.307784 
L 207.589374 189.595312 
z
" style="fill:#0d324b;"/>
    <path clip-path="url(#p450547bb21)" d="M 85.6223 190.676775 
L 85.447422 183.761317 
L 96.504763 174.345282 
L 96.648408 181.214559 
z
" style="fill:#1b699f;"/>
    <path clip-path="url(#p450547bb21)" d="M 189.25055 184.121283 
L 207.589374 189.595312 
L 207.64399 187.142275 
L 189.287409 181.677694 
z
" style="fill:#1b699f;"/>
    <path clip-path="url(#p450547bb21)" d="M 207.589374 189.595312 
L 217.347551 180.155251 
L 235.774065 185.581627 
L 226.1497 195.135458 
z
" style="fill:#113f60;"/>
    <path clip-path="url(#p450547bb21)" d="M 67.590677 172.728471 
L 85.30595 178.166885 
L 96.388564 168.788489 
L 78.789747 163.46176 
z
" style="fill:#185b8a;"/>
    <path clip-path="url(#p450547bb21)" d="M 207.594714 189.355474 
L 226.156818 194.894693 
L 235.782005 185.342465 
L 217.353739 179.917008 
z
" style="fill:#185b8a;"/>
    <path clip-path="url(#p450547bb21)" d="M 132.313656 192.158208 
L 142.875567 182.665601 
L 142.868795 180.371555 
L 132.297295 189.848776 
z
" style="fill:#0d324b;"/>
    <path clip-path="url(#p450547bb21)" d="M 132.313656 192.158208 
L 132.292644 189.192191 
L 142.866869 179.719352 
L 142.875567 182.665601 
z
" style="fill:#1b699f;"/>
    <path clip-path="url(#p450547bb21)" d="M 85.6223 190.676775 
L 96.648408 181.214559 
L 96.388564 168.788489 
L 85.30595 178.166885 
z
" style="fill:#0d324b;"/>
    <path clip-path="url(#p450547bb21)" d="M 85.6223 190.676775 
L 96.648408 181.214559 
L 114.374328 186.653642 
L 103.467188 196.230031 
z
" style="fill:#113f60;"/>
    <path clip-path="url(#p450547bb21)" d="M 179.155879 193.644428 
L 179.170339 192.353256 
L 189.269896 182.838711 
L 189.25055 184.121283 
z
" style="fill:#1b699f;"/>
    <path clip-path="url(#p450547bb21)" d="M 179.155879 193.644428 
L 189.25055 184.121283 
L 189.287209 181.690966 
L 179.183279 191.197804 
z
" style="fill:#0d324b;"/>
    <path clip-path="url(#p450547bb21)" d="M 235.774065 185.581627 
L 235.998517 178.820824 
L 254.697328 184.286232 
L 254.42216 191.073256 
z
" style="fill:#0d324b;"/>
    <path clip-path="url(#p450547bb21)" d="M 114.374328 186.653642 
L 132.313656 192.158208 
L 132.297295 189.848776 
L 114.341997 184.35311 
z
" style="fill:#1b699f;"/>
    <path clip-path="url(#p450547bb21)" d="M 67.990626 185.18987 
L 67.640844 174.291564 
L 85.345632 179.7361 
L 85.6223 190.676775 
z
" style="fill:#0d324b;"/>
    <path clip-path="url(#p450547bb21)" d="M 114.374328 186.653642 
L 114.323117 183.009742 
L 132.287741 188.500199 
L 132.313656 192.158208 
z
" style="fill:#0d324b;"/>
    <path clip-path="url(#p450547bb21)" d="M 67.990626 185.18987 
L 85.6223 190.676775 
L 85.30595 178.166885 
L 67.590677 172.728471 
z
" style="fill:#1b699f;"/>
    <path clip-path="url(#p450547bb21)" d="M 132.313656 192.158208 
L 142.875567 182.665601 
L 160.907005 188.122115 
L 150.47027 197.729447 
z
" style="fill:#113f60;"/>
    <path clip-path="url(#p450547bb21)" d="M 226.1497 195.135458 
L 235.774065 185.581627 
L 235.782005 185.342465 
L 226.156818 194.894693 
z
" style="fill:#0d324b;"/>
    <path clip-path="url(#p450547bb21)" d="M 85.447422 183.761317 
L 103.339664 189.287713 
L 114.277414 179.757756 
L 96.504763 174.345282 
z
" style="fill:#185b8a;"/>
    <path clip-path="url(#p450547bb21)" d="M 160.907005 188.122115 
L 160.913527 186.517874 
L 179.173915 192.033981 
L 179.155879 193.644428 
z
" style="fill:#0d324b;"/>
    <path clip-path="url(#p450547bb21)" d="M 132.292644 189.192191 
L 150.47027 194.751934 
L 160.91903 185.164476 
L 142.866869 179.719352 
z
" style="fill:#185b8a;"/>
    <path clip-path="url(#p450547bb21)" d="M 160.907005 188.122115 
L 179.155879 193.644428 
L 179.183279 191.197804 
L 160.916914 185.684924 
z
" style="fill:#1b699f;"/>
    <path clip-path="url(#p450547bb21)" d="M 226.1497 195.135458 
L 226.350917 188.32915 
L 235.998517 178.820824 
L 235.774065 185.581627 
z
" style="fill:#1b699f;"/>
    <path clip-path="url(#p450547bb21)" d="M 179.155879 193.644428 
L 189.25055 184.121283 
L 207.589374 189.595312 
L 197.626147 199.233738 
z
" style="fill:#113f60;"/>
    <path clip-path="url(#p450547bb21)" d="M 56.616159 194.735465 
L 56.213962 183.763629 
L 67.640844 174.291564 
L 67.990626 185.18987 
z
" style="fill:#1b699f;"/>
    <path clip-path="url(#p450547bb21)" d="M 103.467188 196.230031 
L 103.399803 192.561644 
L 114.323117 183.009742 
L 114.374328 186.653642 
z
" style="fill:#1b699f;"/>
    <path clip-path="url(#p450547bb21)" d="M 179.170339 192.353256 
L 197.650062 197.937564 
L 207.618041 188.307784 
L 189.269896 182.838711 
z
" style="fill:#185b8a;"/>
    <path clip-path="url(#p450547bb21)" d="M 207.589374 189.595312 
L 226.1497 195.135458 
L 226.156818 194.894693 
L 207.594714 189.355474 
z
" style="fill:#1b699f;"/>
    <path clip-path="url(#p450547bb21)" d="M 103.467188 196.230031 
L 114.374328 186.653642 
L 114.277414 179.757756 
L 103.339664 189.287713 
z
" style="fill:#0d324b;"/>
    <path clip-path="url(#p450547bb21)" d="M 56.616159 194.735465 
L 67.990626 185.18987 
L 85.6223 190.676775 
L 74.364224 200.338059 
z
" style="fill:#113f60;"/>
    <path clip-path="url(#p450547bb21)" d="M 207.589374 189.595312 
L 207.64399 187.142275 
L 226.222501 192.672922 
L 226.1497 195.135458 
z
" style="fill:#0d324b;"/>
    <path clip-path="url(#p450547bb21)" d="M 226.1497 195.135458 
L 235.774065 185.581627 
L 254.42216 191.073256 
L 244.935565 200.742927 
z
" style="fill:#113f60;"/>
    <path clip-path="url(#p450547bb21)" d="M 150.47027 197.729447 
L 150.47027 196.114436 
L 160.913527 186.517874 
L 160.907005 188.122115 
z
" style="fill:#1b699f;"/>
    <path clip-path="url(#p450547bb21)" d="M 150.47027 197.729447 
L 160.907005 188.122115 
L 160.91903 185.164476 
L 150.47027 194.751934 
z
" style="fill:#0d324b;"/>
    <path clip-path="url(#p450547bb21)" d="M 103.467188 196.230031 
L 114.374328 186.653642 
L 132.313656 192.158208 
L 121.52918 201.850849 
z
" style="fill:#113f60;"/>
    <path clip-path="url(#p450547bb21)" d="M 197.626147 199.233738 
L 207.589374 189.595312 
L 207.618041 188.307784 
L 197.650062 197.937564 
z
" style="fill:#0d324b;"/>
    <path clip-path="url(#p450547bb21)" d="M 85.6223 190.676775 
L 103.467188 196.230031 
L 103.339664 189.287713 
L 85.447422 183.761317 
z
" style="fill:#1b699f;"/>
    <path clip-path="url(#p450547bb21)" d="M 85.6223 190.676775 
L 85.430917 183.108639 
L 103.327628 188.632488 
L 103.467188 196.230031 
z
" style="fill:#0d324b;"/>
    <path clip-path="url(#p450547bb21)" d="M 197.626147 199.233738 
L 197.671711 196.764216 
L 207.64399 187.142275 
L 207.589374 189.595312 
z
" style="fill:#1b699f;"/>
    <path clip-path="url(#p450547bb21)" d="M 132.313656 192.158208 
L 132.306589 191.160588 
L 150.47027 196.727964 
L 150.47027 197.729447 
z
" style="fill:#0d324b;"/>
    <path clip-path="url(#p450547bb21)" d="M 132.313656 192.158208 
L 150.47027 197.729447 
L 150.47027 194.751934 
L 132.292644 189.192191 
z
" style="fill:#1b699f;"/>
    <path clip-path="url(#p450547bb21)" d="M 103.399803 192.561644 
L 121.487437 198.168222 
L 132.287741 188.500199 
L 114.323117 183.009742 
z
" style="fill:#185b8a;"/>
    <path clip-path="url(#p450547bb21)" d="M 226.350917 188.32915 
L 245.18826 193.910154 
L 254.697328 184.286232 
L 235.998517 178.820824 
z
" style="fill:#185b8a;"/>
    <path clip-path="url(#p450547bb21)" d="M 150.47027 197.729447 
L 160.907005 188.122115 
L 179.155879 193.644428 
L 168.848141 203.368578 
z
" style="fill:#113f60;"/>
    <path clip-path="url(#p450547bb21)" d="M 150.47027 196.114436 
L 168.859818 201.747302 
L 179.173915 192.033981 
L 160.913527 186.517874 
z
" style="fill:#185b8a;"/>
    <path clip-path="url(#p450547bb21)" d="M 56.213962 183.763629 
L 74.036093 189.323457 
L 85.345632 179.7361 
L 67.640844 174.291564 
z
" style="fill:#185b8a;"/>
    <path clip-path="url(#p450547bb21)" d="M 179.155879 193.644428 
L 197.626147 199.233738 
L 197.650062 197.937564 
L 179.170339 192.353256 
z
" style="fill:#1b699f;"/>
    <path clip-path="url(#p450547bb21)" d="M 74.364224 200.338059 
L 74.137245 192.718889 
L 85.430917 183.108639 
L 85.6223 190.676775 
z
" style="fill:#1b699f;"/>
    <path clip-path="url(#p450547bb21)" d="M 179.155879 193.644428 
L 179.183279 191.197804 
L 197.671464 196.777629 
L 197.626147 199.233738 
z
" style="fill:#0d324b;"/>
    <path clip-path="url(#p450547bb21)" d="M 244.935565 200.742927 
L 254.42216 191.073256 
L 254.697328 184.286232 
L 245.18826 193.910154 
z
" style="fill:#0d324b;"/>
    <path clip-path="url(#p450547bb21)" d="M 121.52918 201.850849 
L 121.517796 200.846525 
L 132.306589 191.160588 
L 132.313656 192.158208 
z
" style="fill:#1b699f;"/>
    <path clip-path="url(#p450547bb21)" d="M 245.201212 176.223568 
L 249.013281 72.448986 
L 268.298429 77.403615 
L 263.713203 181.60291 
z
" style="fill:#0d324b;"/>
    <path clip-path="url(#p450547bb21)" d="M 197.626147 199.233738 
L 207.589374 189.595312 
L 226.1497 195.135458 
L 216.321863 204.891271 
z
" style="fill:#113f60;"/>
    <path clip-path="url(#p450547bb21)" d="M 74.364224 200.338059 
L 85.6223 190.676775 
L 85.345632 179.7361 
L 74.036093 189.323457 
z
" style="fill:#0d324b;"/>
    <path clip-path="url(#p450547bb21)" d="M 121.52918 201.850849 
L 132.313656 192.158208 
L 132.287741 188.500199 
L 121.487437 198.168222 
z
" style="fill:#0d324b;"/>
    <path clip-path="url(#p450547bb21)" d="M 197.671711 196.764216 
L 216.38588 202.412163 
L 226.222501 192.672922 
L 207.64399 187.142275 
z
" style="fill:#185b8a;"/>
    <path clip-path="url(#p450547bb21)" d="M 74.364224 200.338059 
L 85.6223 190.676775 
L 103.467188 196.230031 
L 92.32918 206.00912 
z
" style="fill:#113f60;"/>
    <path clip-path="url(#p450547bb21)" d="M 56.616159 194.735465 
L 56.416262 189.282317 
L 74.201141 194.863728 
L 74.364224 200.338059 
z
" style="fill:#0d324b;"/>
    <path clip-path="url(#p450547bb21)" d="M 168.848141 203.368578 
L 179.155879 193.644428 
L 179.173915 192.033981 
L 168.859818 201.747302 
z
" style="fill:#0d324b;"/>
    <path clip-path="url(#p450547bb21)" d="M 168.848141 203.368578 
L 168.865881 200.905494 
L 179.183279 191.197804 
L 179.155879 193.644428 
z
" style="fill:#1b699f;"/>
    <path clip-path="url(#p450547bb21)" d="M 226.1497 195.135458 
L 226.339762 188.706458 
L 245.174252 194.288935 
L 244.935565 200.742927 
z
" style="fill:#0d324b;"/>
    <path clip-path="url(#p450547bb21)" d="M 226.1497 195.135458 
L 244.935565 200.742927 
L 245.18826 193.910154 
L 226.350917 188.32915 
z
" style="fill:#1b699f;"/>
    <path clip-path="url(#p450547bb21)" d="M 235.774065 185.581627 
L 239.243757 81.069728 
L 249.013281 72.448986 
L 245.201212 176.223568 
z
" style="fill:#1b699f;"/>
    <path clip-path="url(#p450547bb21)" d="M 56.616159 194.735465 
L 74.364224 200.338059 
L 74.036093 189.323457 
L 56.213962 183.763629 
z
" style="fill:#1b699f;"/>
    <path clip-path="url(#p450547bb21)" d="M 103.467188 196.230031 
L 103.402472 192.706921 
L 121.48909 198.314064 
L 121.52918 201.850849 
z
" style="fill:#0d324b;"/>
    <path clip-path="url(#p450547bb21)" d="M 103.467188 196.230031 
L 121.52918 201.850849 
L 121.487437 198.168222 
L 103.399803 192.561644 
z
" style="fill:#1b699f;"/>
    <path clip-path="url(#p450547bb21)" d="M 121.52918 201.850849 
L 132.313656 192.158208 
L 150.47027 197.729447 
L 139.812262 207.540469 
z
" style="fill:#113f60;"/>
    <path clip-path="url(#p450547bb21)" d="M 121.517796 200.846525 
L 139.808044 206.532248 
L 150.47027 196.727964 
L 132.306589 191.160588 
z
" style="fill:#185b8a;"/>
    <path clip-path="url(#p450547bb21)" d="M 216.321863 204.891271 
L 226.1497 195.135458 
L 226.222501 192.672922 
L 216.38588 202.412163 
z
" style="fill:#0d324b;"/>
    <path clip-path="url(#p450547bb21)" d="M 45.001327 204.482778 
L 44.774312 198.992869 
L 56.416262 189.282317 
L 56.616159 194.735465 
z
" style="fill:#1b699f;"/>
    <path clip-path="url(#p450547bb21)" d="M 150.47027 197.729447 
L 168.848141 203.368578 
L 168.859818 201.747302 
L 150.47027 196.114436 
z
" style="fill:#1b699f;"/>
    <path clip-path="url(#p450547bb21)" d="M 74.137245 192.718889 
L 92.154717 198.360272 
L 103.327628 188.632488 
L 85.430917 183.108639 
z
" style="fill:#185b8a;"/>
    <path clip-path="url(#p450547bb21)" d="M 150.47027 197.729447 
L 150.47027 194.751934 
L 168.86967 200.379506 
L 168.848141 203.368578 
z
" style="fill:#0d324b;"/>
    <path clip-path="url(#p450547bb21)" d="M 216.321863 204.891271 
L 216.488996 198.4189 
L 226.339762 188.706458 
L 226.1497 195.135458 
z
" style="fill:#1b699f;"/>
    <path clip-path="url(#p450547bb21)" d="M 168.848141 203.368578 
L 179.155879 193.644428 
L 197.626147 199.233738 
L 187.451339 209.076848 
z
" style="fill:#113f60;"/>
    <path clip-path="url(#p450547bb21)" d="M 92.32918 206.00912 
L 92.24828 202.46228 
L 103.402472 192.706921 
L 103.467188 196.230031 
z
" style="fill:#1b699f;"/>
    <path clip-path="url(#p450547bb21)" d="M 168.865881 200.905494 
L 187.487255 206.604194 
L 197.671464 196.777629 
L 179.183279 191.197804 
z
" style="fill:#185b8a;"/>
    <path clip-path="url(#p450547bb21)" d="M 45.001327 204.482778 
L 56.616159 194.735465 
L 74.364224 200.338059 
L 62.86678 210.204759 
z
" style="fill:#113f60;"/>
    <path clip-path="url(#p450547bb21)" d="M 92.32918 206.00912 
L 103.467188 196.230031 
L 103.327628 188.632488 
L 92.154717 198.360272 
z
" style="fill:#0d324b;"/>
    <path clip-path="url(#p450547bb21)" d="M 197.626147 199.233738 
L 216.321863 204.891271 
L 216.38588 202.412163 
L 197.671711 196.764216 
z
" style="fill:#1b699f;"/>
    <path clip-path="url(#p450547bb21)" d="M 139.812262 207.540469 
L 150.47027 197.729447 
L 150.47027 196.727964 
L 139.808044 206.532248 
z
" style="fill:#0d324b;"/>
    <path clip-path="url(#p450547bb21)" d="M 216.321863 204.891271 
L 226.1497 195.135458 
L 244.935565 200.742927 
L 235.24718 210.618283 
z
" style="fill:#113f60;"/>
    <path clip-path="url(#p450547bb21)" d="M 139.812262 207.540469 
L 139.799721 204.542898 
L 150.47027 194.751934 
L 150.47027 197.729447 
z
" style="fill:#1b699f;"/>
    <path clip-path="url(#p450547bb21)" d="M 197.626147 199.233738 
L 197.784281 190.663018 
L 216.544043 196.287156 
L 216.321863 204.891271 
z
" style="fill:#0d324b;"/>
    <path clip-path="url(#p450547bb21)" d="M 74.364224 200.338059 
L 74.245029 196.336954 
L 92.237564 201.992465 
L 92.32918 206.00912 
z
" style="fill:#0d324b;"/>
    <path clip-path="url(#p450547bb21)" d="M 92.32918 206.00912 
L 103.467188 196.230031 
L 121.52918 201.850849 
L 110.515029 211.749911 
z
" style="fill:#113f60;"/>
    <path clip-path="url(#p450547bb21)" d="M 44.774312 198.992869 
L 62.67706 204.693473 
L 74.201141 194.863728 
L 56.416262 189.282317 
z
" style="fill:#185b8a;"/>
    <path clip-path="url(#p450547bb21)" d="M 74.364224 200.338059 
L 92.32918 206.00912 
L 92.154717 198.360272 
L 74.137245 192.718889 
z
" style="fill:#1b699f;"/>
    <path clip-path="url(#p450547bb21)" d="M 187.451339 209.076848 
L 197.626147 199.233738 
L 197.671464 196.777629 
L 187.487255 206.604194 
z
" style="fill:#0d324b;"/>
    <path clip-path="url(#p450547bb21)" d="M 121.52918 201.850849 
L 139.812262 207.540469 
L 139.808044 206.532248 
L 121.517796 200.846525 
z
" style="fill:#1b699f;"/>
    <path clip-path="url(#p450547bb21)" d="M 254.42216 191.073256 
L 263.713203 181.60291 
L 268.298429 77.403615 
L 258.676817 86.13202 
z
" style="fill:#0d324b;"/>
    <path clip-path="url(#p450547bb21)" d="M 216.488996 198.4189 
L 235.463671 204.120692 
L 245.174252 194.288935 
L 226.339762 188.706458 
z
" style="fill:#185b8a;"/>
    <path clip-path="url(#p450547bb21)" d="M 92.24828 202.46228 
L 110.459091 208.189272 
L 121.48909 198.314064 
L 103.402472 192.706921 
z
" style="fill:#185b8a;"/>
    <path clip-path="url(#p450547bb21)" d="M 121.52918 201.850849 
L 121.487437 198.168222 
L 139.796796 203.843527 
L 139.812262 207.540469 
z
" style="fill:#0d324b;"/>
    <path clip-path="url(#p450547bb21)" d="M 139.812262 207.540469 
L 150.47027 197.729447 
L 168.848141 203.368578 
L 158.32052 213.300162 
z
" style="fill:#113f60;"/>
    <path clip-path="url(#p450547bb21)" d="M 187.451339 209.076848 
L 187.576673 200.448175 
L 197.784281 190.663018 
L 197.626147 199.233738 
z
" style="fill:#1b699f;"/>
    <path clip-path="url(#p450547bb21)" d="M 62.86678 210.204759 
L 62.728117 206.176669 
L 74.245029 196.336954 
L 74.364224 200.338059 
z
" style="fill:#1b699f;"/>
    <path clip-path="url(#p450547bb21)" d="M 62.86678 210.204759 
L 74.364224 200.338059 
L 74.201141 194.863728 
L 62.67706 204.693473 
z
" style="fill:#0d324b;"/>
    <path clip-path="url(#p450547bb21)" d="M 139.799721 204.542898 
L 158.329814 210.29093 
L 168.86967 200.379506 
L 150.47027 194.751934 
z
" style="fill:#185b8a;"/>
    <path clip-path="url(#p450547bb21)" d="M 168.848141 203.368578 
L 187.451339 209.076848 
L 187.487255 206.604194 
L 168.865881 200.905494 
z
" style="fill:#1b699f;"/>
    <path clip-path="url(#p450547bb21)" d="M 168.848141 203.368578 
L 168.870429 200.274119 
L 187.496462 205.970361 
L 187.451339 209.076848 
z
" style="fill:#0d324b;"/>
    <path clip-path="url(#p450547bb21)" d="M 235.24718 210.618283 
L 244.935565 200.742927 
L 245.174252 194.288935 
L 235.463671 204.120692 
z
" style="fill:#0d324b;"/>
    <path clip-path="url(#p450547bb21)" d="M 187.451339 209.076848 
L 197.626147 199.233738 
L 216.321863 204.891271 
L 206.284033 214.855538 
z
" style="fill:#113f60;"/>
    <path clip-path="url(#p450547bb21)" d="M 235.774065 185.581627 
L 254.42216 191.073256 
L 258.676817 86.13202 
L 239.243757 81.069728 
z
" style="fill:#1b699f;"/>
    <path clip-path="url(#p450547bb21)" d="M 110.515029 211.749911 
L 121.52918 201.850849 
L 121.48909 198.314064 
L 110.459091 208.189272 
z
" style="fill:#0d324b;"/>
    <path clip-path="url(#p450547bb21)" d="M 110.515029 211.749911 
L 110.456784 208.042443 
L 121.487437 198.168222 
L 121.52918 201.850849 
z
" style="fill:#1b699f;"/>
    <path clip-path="url(#p450547bb21)" d="M 62.86678 210.204759 
L 74.364224 200.338059 
L 92.32918 206.00912 
L 80.952895 215.997415 
z
" style="fill:#113f60;"/>
    <path clip-path="url(#p450547bb21)" d="M 45.001327 204.482778 
L 62.86678 210.204759 
L 62.67706 204.693473 
L 44.774312 198.992869 
z
" style="fill:#1b699f;"/>
    <path clip-path="url(#p450547bb21)" d="M 158.32052 213.300162 
L 168.848141 203.368578 
L 168.86967 200.379506 
L 158.329814 210.29093 
z
" style="fill:#0d324b;"/>
    <path clip-path="url(#p450547bb21)" d="M 158.32052 213.300162 
L 158.330141 210.18483 
L 168.870429 200.274119 
L 168.848141 203.368578 
z
" style="fill:#1b699f;"/>
    <path clip-path="url(#p450547bb21)" d="M 216.321863 204.891271 
L 235.24718 210.618283 
L 235.463671 204.120692 
L 216.488996 198.4189 
z
" style="fill:#1b699f;"/>
    <path clip-path="url(#p450547bb21)" d="M 216.321863 204.891271 
L 216.493441 198.246779 
L 235.469428 203.947898 
L 235.24718 210.618283 
z
" style="fill:#0d324b;"/>
    <path clip-path="url(#p450547bb21)" d="M 92.32918 206.00912 
L 110.515029 211.749911 
L 110.459091 208.189272 
L 92.24828 202.46228 
z
" style="fill:#1b699f;"/>
    <path clip-path="url(#p450547bb21)" d="M 62.728117 206.176669 
L 80.842179 211.953634 
L 92.237564 201.992465 
L 74.245029 196.336954 
z
" style="fill:#185b8a;"/>
    <path clip-path="url(#p450547bb21)" d="M 110.515029 211.749911 
L 121.52918 201.850849 
L 139.812262 207.540469 
L 128.925869 217.561726 
z
" style="fill:#113f60;"/>
    <path clip-path="url(#p450547bb21)" d="M 187.576673 200.448175 
L 206.474364 206.193166 
L 216.544043 196.287156 
L 197.784281 190.663018 
z
" style="fill:#185b8a;"/>
    <path clip-path="url(#p450547bb21)" d="M 92.32918 206.00912 
L 92.154717 198.360272 
L 110.394396 204.07123 
L 110.515029 211.749911 
z
" style="fill:#0d324b;"/>
    <path clip-path="url(#p450547bb21)" d="M 139.812262 207.540469 
L 139.802498 205.206478 
L 158.327756 210.957095 
L 158.32052 213.300162 
z
" style="fill:#0d324b;"/>
    <path clip-path="url(#p450547bb21)" d="M 139.812262 207.540469 
L 158.32052 213.300162 
L 158.329814 210.29093 
L 139.799721 204.542898 
z
" style="fill:#1b699f;"/>
    <path clip-path="url(#p450547bb21)" d="M 110.456784 208.042443 
L 128.894268 213.839815 
L 139.796796 203.843527 
L 121.487437 198.168222 
z
" style="fill:#185b8a;"/>
    <path clip-path="url(#p450547bb21)" d="M 206.284033 214.855538 
L 206.431014 208.166112 
L 216.493441 198.246779 
L 216.321863 204.891271 
z
" style="fill:#1b699f;"/>
    <path clip-path="url(#p450547bb21)" d="M 158.32052 213.300162 
L 168.848141 203.368578 
L 187.451339 209.076848 
L 177.058137 219.131232 
z
" style="fill:#113f60;"/>
    <path clip-path="url(#p450547bb21)" d="M 206.284033 214.855538 
L 216.321863 204.891271 
L 216.544043 196.287156 
L 206.474364 206.193166 
z
" style="fill:#0d324b;"/>
    <path clip-path="url(#p450547bb21)" d="M 80.952895 215.997415 
L 92.32918 206.00912 
L 92.237564 201.992465 
L 80.842179 211.953634 
z
" style="fill:#0d324b;"/>
    <path clip-path="url(#p450547bb21)" d="M 33.138427 214.438272 
L 45.001327 204.482778 
L 62.86678 210.204759 
L 51.122253 220.283498 
z
" style="fill:#113f60;"/>
    <path clip-path="url(#p450547bb21)" d="M 158.330141 210.18483 
L 177.090927 216.003764 
L 187.496462 205.970361 
L 168.870429 200.274119 
z
" style="fill:#185b8a;"/>
    <path clip-path="url(#p450547bb21)" d="M 80.952895 215.997415 
L 80.742058 208.296796 
L 92.154717 198.360272 
L 92.32918 206.00912 
z
" style="fill:#1b699f;"/>
    <path clip-path="url(#p450547bb21)" d="M 206.284033 214.855538 
L 216.321863 204.891271 
L 235.24718 210.618283 
L 225.350495 220.705958 
z
" style="fill:#113f60;"/>
    <path clip-path="url(#p450547bb21)" d="M 128.925869 217.561726 
L 128.905918 215.211985 
L 139.802498 205.206478 
L 139.812262 207.540469 
z
" style="fill:#1b699f;"/>
    <path clip-path="url(#p450547bb21)" d="M 128.925869 217.561726 
L 139.812262 207.540469 
L 139.796796 203.843527 
L 128.894268 213.839815 
z
" style="fill:#0d324b;"/>
    <path clip-path="url(#p450547bb21)" d="M 187.451339 209.076848 
L 187.555572 201.900899 
L 206.44232 207.651589 
L 206.284033 214.855538 
z
" style="fill:#0d324b;"/>
    <path clip-path="url(#p450547bb21)" d="M 187.451339 209.076848 
L 206.284033 214.855538 
L 206.474364 206.193166 
L 187.576673 200.448175 
z
" style="fill:#1b699f;"/>
    <path clip-path="url(#p450547bb21)" d="M 62.86678 210.204759 
L 80.952895 215.997415 
L 80.842179 211.953634 
L 62.728117 206.176669 
z
" style="fill:#1b699f;"/>
    <path clip-path="url(#p450547bb21)" d="M 80.952895 215.997415 
L 92.32918 206.00912 
L 110.515029 211.749911 
L 99.263786 221.862062 
z
" style="fill:#113f60;"/>
    <path clip-path="url(#p450547bb21)" d="M 62.86678 210.204759 
L 62.67706 204.693473 
L 80.801412 210.464641 
L 80.952895 215.997415 
z
" style="fill:#0d324b;"/>
    <path clip-path="url(#p450547bb21)" d="M 177.058137 219.131232 
L 187.451339 209.076848 
L 187.496462 205.970361 
L 177.090927 216.003764 
z
" style="fill:#0d324b;"/>
    <path clip-path="url(#p450547bb21)" d="M 206.431014 208.166112 
L 225.548914 213.990407 
L 235.469428 203.947898 
L 216.493441 198.246779 
z
" style="fill:#185b8a;"/>
    <path clip-path="url(#p450547bb21)" d="M 110.515029 211.749911 
L 128.925869 217.561726 
L 128.894268 213.839815 
L 110.456784 208.042443 
z
" style="fill:#1b699f;"/>
    <path clip-path="url(#p450547bb21)" d="M 177.058137 219.131232 
L 177.133883 211.906694 
L 187.555572 201.900899 
L 187.451339 209.076848 
z
" style="fill:#1b699f;"/>
    <path clip-path="url(#p450547bb21)" d="M 128.925869 217.561726 
L 139.812262 207.540469 
L 158.32052 213.300162 
L 147.565902 223.445891 
z
" style="fill:#113f60;"/>
    <path clip-path="url(#p450547bb21)" d="M 110.515029 211.749911 
L 110.4048 204.733482 
L 128.866064 210.517907 
L 128.925869 217.561726 
z
" style="fill:#0d324b;"/>
    <path clip-path="url(#p450547bb21)" d="M 51.122253 220.283498 
L 50.904782 214.734925 
L 62.67706 204.693473 
L 62.86678 210.204759 
z
" style="fill:#1b699f;"/>
    <path clip-path="url(#p450547bb21)" d="M 128.905918 215.211985 
L 147.563195 221.086993 
L 158.327756 210.957095 
L 139.802498 205.206478 
z
" style="fill:#185b8a;"/>
    <path clip-path="url(#p450547bb21)" d="M 80.742058 208.296796 
L 99.107515 214.131342 
L 110.394396 204.07123 
L 92.154717 198.360272 
z
" style="fill:#185b8a;"/>
    <path clip-path="url(#p450547bb21)" d="M 158.32052 213.300162 
L 177.058137 219.131232 
L 177.090927 216.003764 
L 158.330141 210.18483 
z
" style="fill:#1b699f;"/>
    <path clip-path="url(#p450547bb21)" d="M 225.350495 220.705958 
L 235.24718 210.618283 
L 235.469428 203.947898 
L 225.548914 213.990407 
z
" style="fill:#0d324b;"/>
    <path clip-path="url(#p450547bb21)" d="M 177.058137 219.131232 
L 187.451339 209.076848 
L 206.284033 214.855538 
L 196.029405 225.035012 
z
" style="fill:#113f60;"/>
    <path clip-path="url(#p450547bb21)" d="M 158.32052 213.300162 
L 158.337536 207.790486 
L 177.116129 213.60006 
L 177.058137 219.131232 
z
" style="fill:#0d324b;"/>
    <path clip-path="url(#p450547bb21)" d="M 99.263786 221.862062 
L 99.120993 214.798103 
L 110.4048 204.733482 
L 110.515029 211.749911 
z
" style="fill:#1b699f;"/>
    <path clip-path="url(#p450547bb21)" d="M 51.122253 220.283498 
L 62.86678 210.204759 
L 80.952895 215.997415 
L 69.330605 226.2017 
z
" style="fill:#113f60;"/>
    <path clip-path="url(#p450547bb21)" d="M 99.263786 221.862062 
L 110.515029 211.749911 
L 110.394396 204.07123 
L 99.107515 214.131342 
z
" style="fill:#0d324b;"/>
    <path clip-path="url(#p450547bb21)" d="M 147.565902 223.445891 
L 158.32052 213.300162 
L 158.327756 210.957095 
L 147.563195 221.086993 
z
" style="fill:#0d324b;"/>
    <path clip-path="url(#p450547bb21)" d="M 206.284033 214.855538 
L 225.350495 220.705958 
L 225.548914 213.990407 
L 206.431014 208.166112 
z
" style="fill:#1b699f;"/>
    <path clip-path="url(#p450547bb21)" d="M 147.565902 223.445891 
L 147.559538 217.898915 
L 158.337536 207.790486 
L 158.32052 213.300162 
z
" style="fill:#1b699f;"/>
    <path clip-path="url(#p450547bb21)" d="M 177.133883 211.906694 
L 196.16001 217.782227 
L 206.44232 207.651589 
L 187.555572 201.900899 
z
" style="fill:#185b8a;"/>
    <path clip-path="url(#p450547bb21)" d="M 206.284033 214.855538 
L 206.513749 204.400709 
L 225.660605 210.210201 
L 225.350495 220.705958 
z
" style="fill:#0d324b;"/>
    <path clip-path="url(#p450547bb21)" d="M 99.263786 221.862062 
L 110.515029 211.749911 
L 128.925869 217.561726 
L 117.803669 227.800051 
z
" style="fill:#113f60;"/>
    <path clip-path="url(#p450547bb21)" d="M 50.904782 214.734925 
L 69.15188 220.63145 
L 80.801412 210.464641 
L 62.67706 204.693473 
z
" style="fill:#185b8a;"/>
    <path clip-path="url(#p450547bb21)" d="M 80.952895 215.997415 
L 99.263786 221.862062 
L 99.107515 214.131342 
L 80.742058 208.296796 
z
" style="fill:#1b699f;"/>
    <path clip-path="url(#p450547bb21)" d="M 239.243757 81.069728 
L 258.676817 86.13202 
L 268.298429 77.403615 
L 249.013281 72.448986 
z
" style="fill:#185b8a;"/>
    <path clip-path="url(#p450547bb21)" d="M 128.925869 217.561726 
L 147.565902 223.445891 
L 147.563195 221.086993 
L 128.905918 215.211985 
z
" style="fill:#1b699f;"/>
    <path clip-path="url(#p450547bb21)" d="M 80.952895 215.997415 
L 80.648093 204.864816 
L 99.037867 210.685854 
L 99.263786 221.862062 
z
" style="fill:#0d324b;"/>
    <path clip-path="url(#p450547bb21)" d="M 196.029405 225.035012 
L 206.284033 214.855538 
L 206.44232 207.651589 
L 196.16001 217.782227 
z
" style="fill:#0d324b;"/>
    <path clip-path="url(#p450547bb21)" d="M 147.565902 223.445891 
L 158.32052 213.300162 
L 177.058137 219.131232 
L 166.439434 229.403766 
z
" style="fill:#113f60;"/>
    <path clip-path="url(#p450547bb21)" d="M 128.925869 217.561726 
L 128.872936 211.327355 
L 147.558721 217.187165 
L 147.565902 223.445891 
z
" style="fill:#0d324b;"/>
    <path clip-path="url(#p450547bb21)" d="M 196.029405 225.035012 
L 196.218949 214.509163 
L 206.513749 204.400709 
L 206.284033 214.855538 
z
" style="fill:#1b699f;"/>
    <path clip-path="url(#p450547bb21)" d="M 69.330605 226.2017 
L 80.952895 215.997415 
L 80.801412 210.464641 
L 69.15188 220.63145 
z
" style="fill:#0d324b;"/>
    <path clip-path="url(#p450547bb21)" d="M 99.120993 214.798103 
L 117.712004 220.70846 
L 128.866064 210.517907 
L 110.4048 204.733482 
z
" style="fill:#185b8a;"/>
    <path clip-path="url(#p450547bb21)" d="M 196.029405 225.035012 
L 206.284033 214.855538 
L 225.350495 220.705958 
L 215.238722 231.012873 
z
" style="fill:#113f60;"/>
    <path clip-path="url(#p450547bb21)" d="M 177.058137 219.131232 
L 177.114916 213.715725 
L 196.127306 219.598355 
L 196.029405 225.035012 
z
" style="fill:#0d324b;"/>
    <path clip-path="url(#p450547bb21)" d="M 69.330605 226.2017 
L 68.97098 214.993427 
L 80.648093 204.864816 
L 80.952895 215.997415 
z
" style="fill:#1b699f;"/>
    <path clip-path="url(#p450547bb21)" d="M 147.559538 217.898915 
L 166.474644 223.835106 
L 177.116129 213.60006 
L 158.337536 207.790486 
z
" style="fill:#185b8a;"/>
    <path clip-path="url(#p450547bb21)" d="M 177.058137 219.131232 
L 196.029405 225.035012 
L 196.16001 217.782227 
L 177.133883 211.906694 
z
" style="fill:#1b699f;"/>
    <path clip-path="url(#p450547bb21)" d="M 117.803669 227.800051 
L 117.722538 221.523419 
L 128.872936 211.327355 
L 128.925869 217.561726 
z
" style="fill:#1b699f;"/>
    <path clip-path="url(#p450547bb21)" d="M 117.803669 227.800051 
L 128.925869 217.561726 
L 128.866064 210.517907 
L 117.712004 220.70846 
z
" style="fill:#0d324b;"/>
    <path clip-path="url(#p450547bb21)" d="M 69.330605 226.2017 
L 80.952895 215.997415 
L 99.263786 221.862062 
L 87.767713 232.194255 
z
" style="fill:#113f60;"/>
    <path clip-path="url(#p450547bb21)" d="M 51.122253 220.283498 
L 69.330605 226.2017 
L 69.15188 220.63145 
L 50.904782 214.734925 
z
" style="fill:#1b699f;"/>
    <path clip-path="url(#p450547bb21)" d="M 166.439434 229.403766 
L 166.473907 223.951557 
L 177.114916 213.715725 
L 177.058137 219.131232 
z
" style="fill:#1b699f;"/>
    <path clip-path="url(#p450547bb21)" d="M 166.439434 229.403766 
L 177.058137 219.131232 
L 177.116129 213.60006 
L 166.474644 223.835106 
z
" style="fill:#0d324b;"/>
    <path clip-path="url(#p450547bb21)" d="M 117.803669 227.800051 
L 128.925869 217.561726 
L 147.565902 223.445891 
L 136.576866 233.812766 
z
" style="fill:#113f60;"/>
    <path clip-path="url(#p450547bb21)" d="M 99.263786 221.862062 
L 117.803669 227.800051 
L 117.712004 220.70846 
L 99.120993 214.798103 
z
" style="fill:#1b699f;"/>
    <path clip-path="url(#p450547bb21)" d="M 196.218949 214.509163 
L 215.509881 220.445735 
L 225.660605 210.210201 
L 206.513749 204.400709 
z
" style="fill:#185b8a;"/>
    <path clip-path="url(#p450547bb21)" d="M 45.001327 204.482778 
L 40.601973 98.092726 
L 59.189266 103.374503 
L 62.86678 210.204759 
z
" style="fill:#0d324b;"/>
    <path clip-path="url(#p450547bb21)" d="M 99.263786 221.862062 
L 99.005458 209.08259 
L 117.637836 214.970409 
L 117.803669 227.800051 
z
" style="fill:#0d324b;"/>
    <path clip-path="url(#p450547bb21)" d="M 166.439434 229.403766 
L 177.058137 219.131232 
L 196.029405 225.035012 
L 185.550881 235.436744 
z
" style="fill:#113f60;"/>
    <path clip-path="url(#p450547bb21)" d="M 147.565902 223.445891 
L 166.439434 229.403766 
L 166.474644 223.835106 
L 147.559538 217.898915 
z
" style="fill:#1b699f;"/>
    <path clip-path="url(#p450547bb21)" d="M 215.238722 231.012873 
L 225.350495 220.705958 
L 225.660605 210.210201 
L 215.509881 220.445735 
z
" style="fill:#0d324b;"/>
    <path clip-path="url(#p450547bb21)" d="M 147.565902 223.445891 
L 147.556683 215.409997 
L 166.490442 221.33641 
L 166.439434 229.403766 
z
" style="fill:#0d324b;"/>
    <path clip-path="url(#p450547bb21)" d="M 117.722538 221.523419 
L 136.542143 227.511569 
L 147.558721 217.187165 
L 128.872936 211.327355 
z
" style="fill:#185b8a;"/>
    <path clip-path="url(#p450547bb21)" d="M 68.97098 214.993427 
L 87.488052 220.941989 
L 99.037867 210.685854 
L 80.648093 204.864816 
z
" style="fill:#185b8a;"/>
    <path clip-path="url(#p450547bb21)" d="M 33.138427 214.438272 
L 28.189775 107.284063 
L 40.601973 98.092726 
L 45.001327 204.482778 
z
" style="fill:#1b699f;"/>
    <path clip-path="url(#p450547bb21)" d="M 87.767713 232.194255 
L 99.263786 221.862062 
L 99.037867 210.685854 
L 87.488052 220.941989 
z
" style="fill:#0d324b;"/>
    <path clip-path="url(#p450547bb21)" d="M 166.473907 223.951557 
L 185.627089 229.963202 
L 196.127306 219.598355 
L 177.114916 213.715725 
z
" style="fill:#185b8a;"/>
    <path clip-path="url(#p450547bb21)" d="M 196.029405 225.035012 
L 196.16359 217.583375 
L 215.430684 223.532063 
L 215.238722 231.012873 
z
" style="fill:#0d324b;"/>
    <path clip-path="url(#p450547bb21)" d="M 87.767713 232.194255 
L 87.447931 219.327726 
L 99.005458 209.08259 
L 99.263786 221.862062 
z
" style="fill:#1b699f;"/>
    <path clip-path="url(#p450547bb21)" d="M 136.576866 233.812766 
L 147.565902 223.445891 
L 147.558721 217.187165 
L 136.542143 227.511569 
z
" style="fill:#0d324b;"/>
    <path clip-path="url(#p450547bb21)" d="M 196.029405 225.035012 
L 215.238722 231.012873 
L 215.509881 220.445735 
L 196.218949 214.509163 
z
" style="fill:#1b699f;"/>
    <path clip-path="url(#p450547bb21)" d="M 87.767713 232.194255 
L 99.263786 221.862062 
L 117.803669 227.800051 
L 106.437917 238.262572 
z
" style="fill:#113f60;"/>
    <path clip-path="url(#p450547bb21)" d="M 136.576866 233.812766 
L 136.532283 225.722279 
L 147.556683 215.409997 
L 147.565902 223.445891 
z
" style="fill:#1b699f;"/>
    <path clip-path="url(#p450547bb21)" d="M 185.550881 235.436744 
L 196.029405 225.035012 
L 196.127306 219.598355 
L 185.627089 229.963202 
z
" style="fill:#0d324b;"/>
    <path clip-path="url(#p450547bb21)" d="M 69.330605 226.2017 
L 87.767713 232.194255 
L 87.488052 220.941989 
L 68.97098 214.993427 
z
" style="fill:#1b699f;"/>
    <path clip-path="url(#p450547bb21)" d="M 136.576866 233.812766 
L 147.565902 223.445891 
L 166.439434 229.403766 
L 155.58781 239.901627 
z
" style="fill:#113f60;"/>
    <path clip-path="url(#p450547bb21)" d="M 185.550881 235.436744 
L 185.655335 227.934487 
L 196.16359 217.583375 
L 196.029405 225.035012 
z
" style="fill:#1b699f;"/>
    <path clip-path="url(#p450547bb21)" d="M 117.803669 227.800051 
L 136.576866 233.812766 
L 136.542143 227.511569 
L 117.722538 221.523419 
z
" style="fill:#1b699f;"/>
    <path clip-path="url(#p450547bb21)" d="M 117.803669 227.800051 
L 117.67398 217.766671 
L 136.52136 223.740023 
L 136.576866 233.812766 
z
" style="fill:#0d324b;"/>
    <path clip-path="url(#p450547bb21)" d="M 166.439434 229.403766 
L 166.450657 227.628783 
L 185.575691 233.654832 
L 185.550881 235.436744 
z
" style="fill:#0d324b;"/>
    <path clip-path="url(#p450547bb21)" d="M 185.550881 235.436744 
L 196.029405 225.035012 
L 215.238722 231.012873 
L 204.90477 241.546254 
z
" style="fill:#113f60;"/>
    <path clip-path="url(#p450547bb21)" d="M 166.439434 229.403766 
L 185.550881 235.436744 
L 185.627089 229.963202 
L 166.473907 223.951557 
z
" style="fill:#1b699f;"/>
    <path clip-path="url(#p450547bb21)" d="M 136.532283 225.722279 
L 155.604336 231.779408 
L 166.490442 221.33641 
L 147.556683 215.409997 
z
" style="fill:#185b8a;"/>
    <path clip-path="url(#p450547bb21)" d="M 87.447931 219.327726 
L 106.211925 225.345437 
L 117.637836 214.970409 
L 99.005458 209.08259 
z
" style="fill:#185b8a;"/>
    <path clip-path="url(#p450547bb21)" d="M 106.437917 238.262572 
L 106.261183 228.16089 
L 117.67398 217.766671 
L 117.803669 227.800051 
z
" style="fill:#1b699f;"/>
    <path clip-path="url(#p450547bb21)" d="M 155.58781 239.901627 
L 155.591446 238.114622 
L 166.450657 227.628783 
L 166.439434 229.403766 
z
" style="fill:#1b699f;"/>
    <path clip-path="url(#p450547bb21)" d="M 51.122253 220.283498 
L 62.86678 210.204759 
L 59.189266 103.374503 
L 46.904999 112.684443 
z
" style="fill:#0d324b;"/>
    <path clip-path="url(#p450547bb21)" d="M 106.437917 238.262572 
L 117.803669 227.800051 
L 117.637836 214.970409 
L 106.211925 225.345437 
z
" style="fill:#0d324b;"/>
    <path clip-path="url(#p450547bb21)" d="M 106.437917 238.262572 
L 117.803669 227.800051 
L 136.576866 233.812766 
L 125.345664 244.408097 
z
" style="fill:#113f60;"/>
    <path clip-path="url(#p450547bb21)" d="M 185.655335 227.934487 
L 205.067882 234.014576 
L 215.430684 223.532063 
L 196.16359 217.583375 
z
" style="fill:#185b8a;"/>
    <path clip-path="url(#p450547bb21)" d="M 155.58781 239.901627 
L 166.439434 229.403766 
L 166.490442 221.33641 
L 155.604336 231.779408 
z
" style="fill:#0d324b;"/>
    <path clip-path="url(#p450547bb21)" d="M 33.138427 214.438272 
L 51.122253 220.283498 
L 46.904999 112.684443 
L 28.189775 107.284063 
z
" style="fill:#1b699f;"/>
    <path clip-path="url(#p450547bb21)" d="M 87.767713 232.194255 
L 106.437917 238.262572 
L 106.211925 225.345437 
L 87.447931 219.327726 
z
" style="fill:#1b699f;"/>
    <path clip-path="url(#p450547bb21)" d="M 155.58781 239.901627 
L 166.439434 229.403766 
L 185.550881 235.436744 
L 174.841046 246.06809 
z
" style="fill:#113f60;"/>
    <path clip-path="url(#p450547bb21)" d="M 204.90477 241.546254 
L 215.238722 231.012873 
L 215.430684 223.532063 
L 205.067882 234.014576 
z
" style="fill:#0d324b;"/>
    <path clip-path="url(#p450547bb21)" d="M 155.591446 238.114622 
L 174.858472 244.274098 
L 185.575691 233.654832 
L 166.450657 227.628783 
z
" style="fill:#185b8a;"/>
    <path clip-path="url(#p450547bb21)" d="M 136.576866 233.812766 
L 155.58781 239.901627 
L 155.604336 231.779408 
L 136.532283 225.722279 
z
" style="fill:#1b699f;"/>
    <path clip-path="url(#p450547bb21)" d="M 136.576866 233.812766 
L 136.53008 225.322497 
L 155.605153 231.37805 
L 155.58781 239.901627 
z
" style="fill:#0d324b;"/>
    <path clip-path="url(#p450547bb21)" d="M 106.261183 228.16089 
L 125.244176 234.266717 
L 136.52136 223.740023 
L 117.67398 217.766671 
z
" style="fill:#185b8a;"/>
    <path clip-path="url(#p450547bb21)" d="M 185.550881 235.436744 
L 204.90477 241.546254 
L 205.067882 234.014576 
L 185.655335 227.934487 
z
" style="fill:#1b699f;"/>
    <path clip-path="url(#p450547bb21)" d="M 185.550881 235.436744 
L 185.657371 227.788229 
L 205.071062 233.867742 
L 204.90477 241.546254 
z
" style="fill:#0d324b;"/>
    <path clip-path="url(#p450547bb21)" d="M 125.345664 244.408097 
L 125.260121 235.860033 
L 136.53008 225.322497 
L 136.576866 233.812766 
z
" style="fill:#1b699f;"/>
    <path clip-path="url(#p450547bb21)" d="M 125.345664 244.408097 
L 136.576866 233.812766 
L 136.52136 223.740023 
L 125.244176 234.266717 
z
" style="fill:#0d324b;"/>
    <path clip-path="url(#p450547bb21)" d="M 174.841046 246.06809 
L 185.550881 235.436744 
L 185.575691 233.654832 
L 174.858472 244.274098 
z
" style="fill:#0d324b;"/>
    <path clip-path="url(#p450547bb21)" d="M 125.345664 244.408097 
L 136.576866 233.812766 
L 155.58781 239.901627 
L 144.495516 250.632312 
z
" style="fill:#113f60;"/>
    <path clip-path="url(#p450547bb21)" d="M 174.841046 246.06809 
L 174.915845 238.367527 
L 185.657371 227.788229 
L 185.550881 235.436744 
z
" style="fill:#1b699f;"/>
    <path clip-path="url(#p450547bb21)" d="M 106.437917 238.262572 
L 125.345664 244.408097 
L 125.244176 234.266717 
L 106.261183 228.16089 
z
" style="fill:#1b699f;"/>
    <path clip-path="url(#p450547bb21)" d="M 155.58781 239.901627 
L 174.841046 246.06809 
L 174.858472 244.274098 
L 155.591446 238.114622 
z
" style="fill:#1b699f;"/>
    <path clip-path="url(#p450547bb21)" d="M 174.841046 246.06809 
L 185.550881 235.436744 
L 204.90477 241.546254 
L 194.341235 252.313648 
z
" style="fill:#113f60;"/>
    <path clip-path="url(#p450547bb21)" d="M 125.260121 235.860033 
L 144.475043 242.050662 
L 155.605153 231.37805 
L 136.53008 225.322497 
z
" style="fill:#185b8a;"/>
    <path clip-path="url(#p450547bb21)" d="M 155.58781 239.901627 
L 155.615309 226.386729 
L 174.972839 232.499951 
L 174.841046 246.06809 
z
" style="fill:#0d324b;"/>
    <path clip-path="url(#p450547bb21)" d="M 174.915845 238.367527 
L 194.47675 244.582839 
L 205.071062 233.867742 
L 185.657371 227.788229 
z
" style="fill:#185b8a;"/>
    <path clip-path="url(#p450547bb21)" d="M 144.495516 250.632312 
L 155.58781 239.901627 
L 155.605153 231.37805 
L 144.475043 242.050662 
z
" style="fill:#0d324b;"/>
    <path clip-path="url(#p450547bb21)" d="M 144.495516 250.632312 
L 144.463054 237.025035 
L 155.615309 226.386729 
L 155.58781 239.901627 
z
" style="fill:#1b699f;"/>
    <path clip-path="url(#p450547bb21)" d="M 144.495516 250.632312 
L 155.58781 239.901627 
L 174.841046 246.06809 
L 163.892155 256.93674 
z
" style="fill:#113f60;"/>
    <path clip-path="url(#p450547bb21)" d="M 194.341235 252.313648 
L 204.90477 241.546254 
L 205.071062 233.867742 
L 194.47675 244.582839 
z
" style="fill:#0d324b;"/>
    <path clip-path="url(#p450547bb21)" d="M 125.345664 244.408097 
L 144.495516 250.632312 
L 144.475043 242.050662 
L 125.260121 235.860033 
z
" style="fill:#1b699f;"/>
    <path clip-path="url(#p450547bb21)" d="M 174.841046 246.06809 
L 194.341235 252.313648 
L 194.47675 244.582839 
L 174.915845 238.367527 
z
" style="fill:#1b699f;"/>
    <path clip-path="url(#p450547bb21)" d="M 28.189775 107.284063 
L 46.904999 112.684443 
L 59.189266 103.374503 
L 40.601973 98.092726 
z
" style="fill:#185b8a;"/>
    <path clip-path="url(#p450547bb21)" d="M 144.463054 237.025035 
L 163.965553 243.27578 
L 174.972839 232.499951 
L 155.615309 226.386729 
z
" style="fill:#185b8a;"/>
    <path clip-path="url(#p450547bb21)" d="M 163.892155 256.93674 
L 174.841046 246.06809 
L 174.972839 232.499951 
L 163.965553 243.27578 
z
" style="fill:#0d324b;"/>
    <path clip-path="url(#p450547bb21)" d="M 163.892155 256.93674 
L 174.841046 246.06809 
L 194.341235 252.313648 
L 183.540382 263.322941 
z
" style="fill:#113f60;"/>
    <path clip-path="url(#p450547bb21)" d="M 144.495516 250.632312 
L 163.892155 256.93674 
L 163.965553 243.27578 
L 144.463054 237.025035 
z
" style="fill:#1b699f;"/>
    <path clip-path="url(#p450547bb21)" d="M 174.841046 246.06809 
L 175.835814 143.656266 
L 196.14392 149.474672 
L 194.341235 252.313648 
z
" style="fill:#0d324b;"/>
    <path clip-path="url(#p450547bb21)" d="M 163.892155 256.93674 
L 164.446378 153.78354 
L 175.835814 143.656266 
L 174.841046 246.06809 
z
" style="fill:#1b699f;"/>
    <path clip-path="url(#p450547bb21)" d="M 183.540382 263.322941 
L 194.341235 252.313648 
L 196.14392 149.474672 
L 184.915152 159.73843 
z
" style="fill:#0d324b;"/>
    <path clip-path="url(#p450547bb21)" d="M 163.892155 256.93674 
L 183.540382 263.322941 
L 184.915152 159.73843 
L 164.446378 153.78354 
z
" style="fill:#1b699f;"/>
    <path clip-path="url(#p450547bb21)" d="M 164.446378 153.78354 
L 184.915152 159.73843 
L 196.14392 149.474672 
L 175.835814 143.656266 
z
" style="fill:#185b8a;"/>
   </g>
  </g>
 </g>
 <defs>
  <clipPath id="p450547bb21">
   <rect height="279" width="279" x="7.2" y="7.2"/>
  </clipPath>
 </defs>
</svg>
