<?xml version="1.0" encoding="utf-8" standalone="no"?>
<!DOCTYPE svg PUBLIC "-//W3C//DTD SVG 1.1//EN"
  "http://www.w3.org/Graphics/SVG/1.1/DTD/svg11.dtd">
<!-- Created with matplotlib (https://matplotlib.org/) -->
<svg height="293.820188pt" version="1.1" viewBox="0 0 307.596322 293.820188" width="307.596322pt" xmlns="http://www.w3.org/2000/svg" xmlns:xlink="http://www.w3.org/1999/xlink">
 <metadata>
  <rdf:RDF xmlns:cc="http://creativecommons.org/ns#" xmlns:dc="http://purl.org/dc/elements/1.1/" xmlns:rdf="http://www.w3.org/1999/02/22-rdf-syntax-ns#">
   <cc:Work>
    <dc:type rdf:resource="http://purl.org/dc/dcmitype/StillImage"/>
    <dc:date>2021-06-25T10:03:51.612262</dc:date>
    <dc:format>image/svg+xml</dc:format>
    <dc:creator>
     <cc:Agent>
      <dc:title>Matplotlib v3.3.4, https://matplotlib.org/</dc:title>
     </cc:Agent>
    </dc:creator>
   </cc:Work>
  </rdf:RDF>
 </metadata>
 <defs>
  <style type="text/css">*{stroke-linecap:butt;stroke-linejoin:round;}</style>
 </defs>
 <g id="figure_1">
  <g id="patch_1">
   <path d="M 0 293.820188 
L 307.596322 293.820188 
L 307.596322 0 
L 0 0 
z
" style="fill:none;"/>
  </g>
  <g id="patch_2">
   <path d="M 7.2 286.2 
L 286.2 286.2 
L 286.2 7.2 
L 7.2 7.2 
z
" style="fill:#ffffff;"/>
  </g>
  <g id="pane3d_1">
   <g id="patch_3">
    <path d="M 28.266424 217.407541 
L 120.401336 140.178231 
L 119.120572 28.79976 
L 22.57653 99.253205 
" style="fill:#f2f2f2;opacity:0.5;stroke:#f2f2f2;stroke-linejoin:miter;"/>
   </g>
  </g>
  <g id="pane3d_2">
   <g id="patch_4">
    <path d="M 120.401336 140.178231 
L 268.244995 183.150546 
L 273.521014 67.935772 
L 119.120572 28.79976 
" style="fill:#e6e6e6;opacity:0.5;stroke:#e6e6e6;stroke-linejoin:miter;"/>
   </g>
  </g>
  <g id="pane3d_3">
   <g id="patch_5">
    <path d="M 28.266424 217.407541 
L 184.987924 268.592783 
L 268.244995 183.150546 
L 120.401336 140.178231 
" style="fill:#ececec;opacity:0.5;stroke:#ececec;stroke-linejoin:miter;"/>
   </g>
  </g>
  <g id="axis3d_1">
   <g id="line2d_1">
    <path d="M 28.266424 217.407541 
L 184.987924 268.592783 
" style="fill:none;stroke:#000000;stroke-linecap:square;stroke-width:0.8;"/>
   </g>
   <g id="Line3DCollection_1">
    <path d="M 40.209141 221.308033 
L 131.713567 143.46625 
L 130.911484 31.788413 
" style="fill:none;stroke:#b0b0b0;stroke-width:0.8;"/>
    <path d="M 171.828252 264.294834 
L 255.880897 179.556791 
L 260.583574 64.656508 
" style="fill:none;stroke:#b0b0b0;stroke-width:0.8;"/>
   </g>
   <g id="xtick_1">
    <g id="line2d_2">
     <path d="M 41.006011 220.630144 
L 38.611979 222.666721 
" style="fill:none;stroke:#000000;stroke-linecap:square;stroke-width:0.8;"/>
    </g>
    <g id="text_1">
     <!-- 000 -->
     <g transform="translate(25.444179 242.247803)rotate(-52)scale(0.12 -0.12)">
      <defs>
       <path d="M 31.78125 66.40625 
Q 24.171875 66.40625 20.328125 58.90625 
Q 16.5 51.421875 16.5 36.375 
Q 16.5 21.390625 20.328125 13.890625 
Q 24.171875 6.390625 31.78125 6.390625 
Q 39.453125 6.390625 43.28125 13.890625 
Q 47.125 21.390625 47.125 36.375 
Q 47.125 51.421875 43.28125 58.90625 
Q 39.453125 66.40625 31.78125 66.40625 
z
M 31.78125 74.21875 
Q 44.046875 74.21875 50.515625 64.515625 
Q 56.984375 54.828125 56.984375 36.375 
Q 56.984375 17.96875 50.515625 8.265625 
Q 44.046875 -1.421875 31.78125 -1.421875 
Q 19.53125 -1.421875 13.0625 8.265625 
Q 6.59375 17.96875 6.59375 36.375 
Q 6.59375 54.828125 13.0625 64.515625 
Q 19.53125 74.21875 31.78125 74.21875 
z
" id="DejaVuSans-48"/>
      </defs>
      <use xlink:href="#DejaVuSans-48"/>
      <use x="63.623047" xlink:href="#DejaVuSans-48"/>
      <use x="127.246094" xlink:href="#DejaVuSans-48"/>
     </g>
    </g>
   </g>
   <g id="xtick_2">
    <g id="line2d_3">
     <path d="M 172.562923 263.554172 
L 170.355611 265.779483 
" style="fill:none;stroke:#000000;stroke-linecap:square;stroke-width:0.8;"/>
    </g>
    <g id="text_2">
     <!-- 111 -->
     <g transform="translate(157.037747 285.083728)rotate(-52)scale(0.12 -0.12)">
      <defs>
       <path d="M 12.40625 8.296875 
L 28.515625 8.296875 
L 28.515625 63.921875 
L 10.984375 60.40625 
L 10.984375 69.390625 
L 28.421875 72.90625 
L 38.28125 72.90625 
L 38.28125 8.296875 
L 54.390625 8.296875 
L 54.390625 0 
L 12.40625 0 
z
" id="DejaVuSans-49"/>
      </defs>
      <use xlink:href="#DejaVuSans-49"/>
      <use x="63.623047" xlink:href="#DejaVuSans-49"/>
      <use x="127.246094" xlink:href="#DejaVuSans-49"/>
     </g>
    </g>
   </g>
  </g>
  <g id="axis3d_2">
   <g id="line2d_4">
    <path d="M 268.244995 183.150546 
L 184.987924 268.592783 
" style="fill:none;stroke:#000000;stroke-linecap:square;stroke-width:0.8;"/>
   </g>
   <g id="Line3DCollection_2">
    <path d="M 30.956847 93.137631 
L 36.236327 210.727011 
L 192.218971 261.17195 
" style="fill:none;stroke:#b0b0b0;stroke-width:0.8;"/>
    <path d="M 112.006521 33.991271 
L 113.588262 145.889085 
L 262.113533 189.442935 
" style="fill:none;stroke:#b0b0b0;stroke-width:0.8;"/>
   </g>
   <g id="xtick_3">
    <g id="line2d_5">
     <path d="M 190.904602 260.746882 
L 194.851103 262.023184 
" style="fill:none;stroke:#000000;stroke-linecap:square;stroke-width:0.8;"/>
    </g>
    <g id="text_3">
     <!-- 000 -->
     <g transform="translate(192.822717 270.019228)rotate(-346)scale(0.12 -0.12)">
      <use xlink:href="#DejaVuSans-48"/>
      <use x="63.623047" xlink:href="#DejaVuSans-48"/>
      <use x="127.246094" xlink:href="#DejaVuSans-48"/>
     </g>
    </g>
   </g>
   <g id="xtick_4">
    <g id="line2d_6">
     <path d="M 260.866594 189.07728 
L 264.610397 190.17512 
" style="fill:none;stroke:#000000;stroke-linecap:square;stroke-width:0.8;"/>
    </g>
    <g id="text_4">
     <!-- 111 -->
     <g transform="translate(262.717279 198.290212)rotate(-346)scale(0.12 -0.12)">
      <use xlink:href="#DejaVuSans-49"/>
      <use x="63.623047" xlink:href="#DejaVuSans-49"/>
      <use x="127.246094" xlink:href="#DejaVuSans-49"/>
     </g>
    </g>
   </g>
  </g>
  <g id="axis3d_3">
   <g id="line2d_7">
    <path d="M 268.244995 183.150546 
L 273.521014 67.935772 
" style="fill:none;stroke:#000000;stroke-linecap:square;stroke-width:0.8;"/>
   </g>
   <g id="Line3DCollection_3">
    <path d="M 268.346078 180.943159 
L 120.376747 138.03992 
L 28.157592 215.147576 
" style="fill:none;stroke:#b0b0b0;stroke-width:0.8;"/>
    <path d="M 269.325373 159.557847 
L 120.138631 117.332786 
L 27.102858 193.245329 
" style="fill:none;stroke:#b0b0b0;stroke-width:0.8;"/>
    <path d="M 270.321077 137.814227 
L 119.896718 96.295347 
L 26.029774 170.962059 
" style="fill:none;stroke:#b0b0b0;stroke-width:0.8;"/>
    <path d="M 271.333604 115.703217 
L 119.650914 74.919637 
L 24.937859 148.287736 
" style="fill:none;stroke:#b0b0b0;stroke-width:0.8;"/>
    <path d="M 272.363385 93.215425 
L 119.401126 53.197431 
L 23.826612 125.211974 
" style="fill:none;stroke:#b0b0b0;stroke-width:0.8;"/>
    <path d="M 273.410865 70.341139 
L 119.147256 31.120235 
L 22.695516 101.724018 
" style="fill:none;stroke:#b0b0b0;stroke-width:0.8;"/>
   </g>
   <g id="xtick_5">
    <g id="line2d_8">
     <path d="M 267.104158 180.583068 
L 270.832874 181.664197 
" style="fill:none;stroke:#000000;stroke-linecap:square;stroke-width:0.8;"/>
    </g>
    <g id="text_5">
     <!-- 0.0 -->
     <g transform="translate(278.661013 185.940327)scale(0.1 -0.1)">
      <defs>
       <path d="M 10.6875 12.40625 
L 21 12.40625 
L 21 0 
L 10.6875 0 
z
" id="DejaVuSans-46"/>
      </defs>
      <use xlink:href="#DejaVuSans-48"/>
      <use x="63.623047" xlink:href="#DejaVuSans-46"/>
      <use x="95.410156" xlink:href="#DejaVuSans-48"/>
     </g>
    </g>
   </g>
   <g id="xtick_6">
    <g id="line2d_9">
     <path d="M 268.072748 159.203311 
L 271.83363 160.267772 
" style="fill:none;stroke:#000000;stroke-linecap:square;stroke-width:0.8;"/>
    </g>
    <g id="text_6">
     <!-- 0.1 -->
     <g transform="translate(279.788799 164.595191)scale(0.1 -0.1)">
      <use xlink:href="#DejaVuSans-48"/>
      <use x="63.623047" xlink:href="#DejaVuSans-46"/>
      <use x="95.410156" xlink:href="#DejaVuSans-49"/>
     </g>
    </g>
   </g>
   <g id="xtick_7">
    <g id="line2d_10">
     <path d="M 269.057561 137.465482 
L 272.851166 138.512561 
" style="fill:none;stroke:#000000;stroke-linecap:square;stroke-width:0.8;"/>
    </g>
    <g id="text_7">
     <!-- 0.2 -->
     <g transform="translate(280.935427 142.89346)scale(0.1 -0.1)">
      <defs>
       <path d="M 19.1875 8.296875 
L 53.609375 8.296875 
L 53.609375 0 
L 7.328125 0 
L 7.328125 8.296875 
Q 12.9375 14.109375 22.625 23.890625 
Q 32.328125 33.6875 34.8125 36.53125 
Q 39.546875 41.84375 41.421875 45.53125 
Q 43.3125 49.21875 43.3125 52.78125 
Q 43.3125 58.59375 39.234375 62.25 
Q 35.15625 65.921875 28.609375 65.921875 
Q 23.96875 65.921875 18.8125 64.3125 
Q 13.671875 62.703125 7.8125 59.421875 
L 7.8125 69.390625 
Q 13.765625 71.78125 18.9375 73 
Q 24.125 74.21875 28.421875 74.21875 
Q 39.75 74.21875 46.484375 68.546875 
Q 53.21875 62.890625 53.21875 53.421875 
Q 53.21875 48.921875 51.53125 44.890625 
Q 49.859375 40.875 45.40625 35.40625 
Q 44.1875 33.984375 37.640625 27.21875 
Q 31.109375 20.453125 19.1875 8.296875 
z
" id="DejaVuSans-50"/>
      </defs>
      <use xlink:href="#DejaVuSans-48"/>
      <use x="63.623047" xlink:href="#DejaVuSans-46"/>
      <use x="95.410156" xlink:href="#DejaVuSans-50"/>
     </g>
    </g>
   </g>
   <g id="xtick_8">
    <g id="line2d_11">
     <path d="M 270.059007 115.36051 
L 273.88591 116.389466 
" style="fill:none;stroke:#000000;stroke-linecap:square;stroke-width:0.8;"/>
    </g>
    <g id="text_8">
     <!-- 0.3 -->
     <g transform="translate(282.101371 120.826123)scale(0.1 -0.1)">
      <defs>
       <path d="M 40.578125 39.3125 
Q 47.65625 37.796875 51.625 33 
Q 55.609375 28.21875 55.609375 21.1875 
Q 55.609375 10.40625 48.1875 4.484375 
Q 40.765625 -1.421875 27.09375 -1.421875 
Q 22.515625 -1.421875 17.65625 -0.515625 
Q 12.796875 0.390625 7.625 2.203125 
L 7.625 11.71875 
Q 11.71875 9.328125 16.59375 8.109375 
Q 21.484375 6.890625 26.8125 6.890625 
Q 36.078125 6.890625 40.9375 10.546875 
Q 45.796875 14.203125 45.796875 21.1875 
Q 45.796875 27.640625 41.28125 31.265625 
Q 36.765625 34.90625 28.71875 34.90625 
L 20.21875 34.90625 
L 20.21875 43.015625 
L 29.109375 43.015625 
Q 36.375 43.015625 40.234375 45.921875 
Q 44.09375 48.828125 44.09375 54.296875 
Q 44.09375 59.90625 40.109375 62.90625 
Q 36.140625 65.921875 28.71875 65.921875 
Q 24.65625 65.921875 20.015625 65.03125 
Q 15.375 64.15625 9.8125 62.3125 
L 9.8125 71.09375 
Q 15.4375 72.65625 20.34375 73.4375 
Q 25.25 74.21875 29.59375 74.21875 
Q 40.828125 74.21875 47.359375 69.109375 
Q 53.90625 64.015625 53.90625 55.328125 
Q 53.90625 49.265625 50.4375 45.09375 
Q 46.96875 40.921875 40.578125 39.3125 
z
" id="DejaVuSans-51"/>
      </defs>
      <use xlink:href="#DejaVuSans-48"/>
      <use x="63.623047" xlink:href="#DejaVuSans-46"/>
      <use x="95.410156" xlink:href="#DejaVuSans-51"/>
     </g>
    </g>
   </g>
   <g id="xtick_9">
    <g id="line2d_12">
     <path d="M 271.077511 92.879014 
L 274.9383 93.889074 
" style="fill:none;stroke:#000000;stroke-linecap:square;stroke-width:0.8;"/>
    </g>
    <g id="text_9">
     <!-- 0.4 -->
     <g transform="translate(283.287125 98.383862)scale(0.1 -0.1)">
      <defs>
       <path d="M 37.796875 64.3125 
L 12.890625 25.390625 
L 37.796875 25.390625 
z
M 35.203125 72.90625 
L 47.609375 72.90625 
L 47.609375 25.390625 
L 58.015625 25.390625 
L 58.015625 17.1875 
L 47.609375 17.1875 
L 47.609375 0 
L 37.796875 0 
L 37.796875 17.1875 
L 4.890625 17.1875 
L 4.890625 26.703125 
z
" id="DejaVuSans-52"/>
      </defs>
      <use xlink:href="#DejaVuSans-48"/>
      <use x="63.623047" xlink:href="#DejaVuSans-46"/>
      <use x="95.410156" xlink:href="#DejaVuSans-52"/>
     </g>
    </g>
   </g>
   <g id="xtick_10">
    <g id="line2d_13">
     <path d="M 272.113512 70.011292 
L 276.008793 71.001651 
" style="fill:none;stroke:#000000;stroke-linecap:square;stroke-width:0.8;"/>
    </g>
    <g id="text_10">
     <!-- 0.5 -->
     <g transform="translate(284.493197 75.55704)scale(0.1 -0.1)">
      <defs>
       <path d="M 10.796875 72.90625 
L 49.515625 72.90625 
L 49.515625 64.59375 
L 19.828125 64.59375 
L 19.828125 46.734375 
Q 21.96875 47.46875 24.109375 47.828125 
Q 26.265625 48.1875 28.421875 48.1875 
Q 40.625 48.1875 47.75 41.5 
Q 54.890625 34.8125 54.890625 23.390625 
Q 54.890625 11.625 47.5625 5.09375 
Q 40.234375 -1.421875 26.90625 -1.421875 
Q 22.3125 -1.421875 17.546875 -0.640625 
Q 12.796875 0.140625 7.71875 1.703125 
L 7.71875 11.625 
Q 12.109375 9.234375 16.796875 8.0625 
Q 21.484375 6.890625 26.703125 6.890625 
Q 35.15625 6.890625 40.078125 11.328125 
Q 45.015625 15.765625 45.015625 23.390625 
Q 45.015625 31 40.078125 35.4375 
Q 35.15625 39.890625 26.703125 39.890625 
Q 22.75 39.890625 18.8125 39.015625 
Q 14.890625 38.140625 10.796875 36.28125 
z
" id="DejaVuSans-53"/>
      </defs>
      <use xlink:href="#DejaVuSans-48"/>
      <use x="63.623047" xlink:href="#DejaVuSans-46"/>
      <use x="95.410156" xlink:href="#DejaVuSans-53"/>
     </g>
    </g>
   </g>
  </g>
  <g id="axes_1">
   <g id="Poly3DCollection_1">
    <path clip-path="url(#p93b248db84)" d="M 121.505767 140.279294 
L 121.411492 131.768645 
L 138.531911 136.694994 
L 138.570864 145.238187 
z
" style="fill:#0d324b;"/>
    <path clip-path="url(#p93b248db84)" d="M 111.228125 148.904419 
L 111.099125 140.337282 
L 121.411492 131.768645 
L 121.505767 140.279294 
z
" style="fill:#1b699f;"/>
    <path clip-path="url(#p93b248db84)" d="M 111.228125 148.904419 
L 121.505767 140.279294 
L 138.570864 145.238187 
L 128.404463 153.962634 
z
" style="fill:#113f60;"/>
    <path clip-path="url(#p93b248db84)" d="M 138.570864 145.238187 
L 138.55205 141.111918 
L 155.84058 146.112025 
L 155.832054 150.254063 
z
" style="fill:#0d324b;"/>
    <path clip-path="url(#p93b248db84)" d="M 111.099125 140.337282 
L 128.331506 145.362627 
L 138.531911 136.694994 
L 121.411492 131.768645 
z
" style="fill:#185b8a;"/>
    <path clip-path="url(#p93b248db84)" d="M 128.404463 153.962634 
L 128.369226 149.808995 
L 138.55205 141.111918 
L 138.570864 145.238187 
z
" style="fill:#1b699f;"/>
    <path clip-path="url(#p93b248db84)" d="M 128.404463 153.962634 
L 138.570864 145.238187 
L 138.531911 136.694994 
L 128.331506 145.362627 
z
" style="fill:#0d324b;"/>
    <path clip-path="url(#p93b248db84)" d="M 111.228125 148.904419 
L 111.203388 147.261594 
L 128.390473 152.313531 
L 128.404463 153.962634 
z
" style="fill:#0d324b;"/>
    <path clip-path="url(#p93b248db84)" d="M 128.404463 153.962634 
L 138.570864 145.238187 
L 155.832054 150.254063 
L 145.780156 159.079556 
z
" style="fill:#113f60;"/>
    <path clip-path="url(#p93b248db84)" d="M 111.228125 148.904419 
L 128.404463 153.962634 
L 128.331506 145.362627 
L 111.099125 140.337282 
z
" style="fill:#1b699f;"/>
    <path clip-path="url(#p93b248db84)" d="M 155.832054 150.254063 
L 155.840441 146.179549 
L 173.328645 151.237795 
L 173.292738 155.327909 
z
" style="fill:#0d324b;"/>
    <path clip-path="url(#p93b248db84)" d="M 128.369226 149.808995 
L 145.772623 154.909993 
L 155.84058 146.112025 
L 138.55205 141.111918 
z
" style="fill:#185b8a;"/>
    <path clip-path="url(#p93b248db84)" d="M 100.744194 157.702665 
L 100.712534 156.048944 
L 111.203388 147.261594 
L 111.228125 148.904419 
z
" style="fill:#1b699f;"/>
    <path clip-path="url(#p93b248db84)" d="M 145.780156 159.079556 
L 145.772745 154.977967 
L 155.840441 146.179549 
L 155.832054 150.254063 
z
" style="fill:#1b699f;"/>
    <path clip-path="url(#p93b248db84)" d="M 145.780156 159.079556 
L 155.832054 150.254063 
L 155.84058 146.112025 
L 145.772623 154.909993 
z
" style="fill:#0d324b;"/>
    <path clip-path="url(#p93b248db84)" d="M 100.744194 157.702665 
L 111.228125 148.904419 
L 128.404463 153.962634 
L 118.032815 162.863215 
z
" style="fill:#113f60;"/>
    <path clip-path="url(#p93b248db84)" d="M 100.712534 156.048944 
L 118.012042 161.203155 
L 128.390473 152.313531 
L 111.203388 147.261594 
z
" style="fill:#185b8a;"/>
    <path clip-path="url(#p93b248db84)" d="M 128.404463 153.962634 
L 145.780156 159.079556 
L 145.772623 154.909993 
L 128.369226 149.808995 
z
" style="fill:#1b699f;"/>
    <path clip-path="url(#p93b248db84)" d="M 145.780156 159.079556 
L 155.832054 150.254063 
L 173.292738 155.327909 
L 163.358696 164.256214 
z
" style="fill:#113f60;"/>
    <path clip-path="url(#p93b248db84)" d="M 173.292738 155.327909 
L 173.305182 153.910451 
L 190.978597 159.037849 
L 190.956394 160.460736 
z
" style="fill:#0d324b;"/>
    <path clip-path="url(#p93b248db84)" d="M 145.772745 154.977967 
L 163.379178 160.138873 
L 173.328645 151.237795 
L 155.840441 146.179549 
z
" style="fill:#185b8a;"/>
    <path clip-path="url(#p93b248db84)" d="M 118.032815 162.863215 
L 128.404463 153.962634 
L 128.390473 152.313531 
L 118.012042 161.203155 
z
" style="fill:#0d324b;"/>
    <path clip-path="url(#p93b248db84)" d="M 128.404463 153.962634 
L 128.267679 137.838829 
L 145.750913 142.893503 
L 145.780156 159.079556 
z
" style="fill:#0d324b;"/>
    <path clip-path="url(#p93b248db84)" d="M 163.358696 164.256214 
L 163.365794 162.829335 
L 173.305182 153.910451 
L 173.292738 155.327909 
z
" style="fill:#1b699f;"/>
    <path clip-path="url(#p93b248db84)" d="M 163.358696 164.256214 
L 173.292738 155.327909 
L 173.328645 151.237795 
L 163.379178 160.138873 
z
" style="fill:#0d324b;"/>
    <path clip-path="url(#p93b248db84)" d="M 100.744194 157.702665 
L 118.032815 162.863215 
L 118.012042 161.203155 
L 100.712534 156.048944 
z
" style="fill:#1b699f;"/>
    <path clip-path="url(#p93b248db84)" d="M 100.744194 157.702665 
L 100.711007 155.96917 
L 118.01104 161.123075 
L 118.032815 162.863215 
z
" style="fill:#0d324b;"/>
    <path clip-path="url(#p93b248db84)" d="M 118.032815 162.863215 
L 128.404463 153.962634 
L 145.780156 159.079556 
L 135.524133 168.084269 
z
" style="fill:#113f60;"/>
    <path clip-path="url(#p93b248db84)" d="M 118.032815 162.863215 
L 117.829697 146.631366 
L 128.267679 137.838829 
L 128.404463 153.962634 
z
" style="fill:#1b699f;"/>
    <path clip-path="url(#p93b248db84)" d="M 145.780156 159.079556 
L 163.358696 164.256214 
L 163.379178 160.138873 
L 145.772745 154.977967 
z
" style="fill:#1b699f;"/>
    <path clip-path="url(#p93b248db84)" d="M 163.358696 164.256214 
L 173.292738 155.327909 
L 190.956394 160.460736 
L 181.143656 169.493661 
z
" style="fill:#113f60;"/>
    <path clip-path="url(#p93b248db84)" d="M 90.0477 166.679297 
L 90.006964 164.934269 
L 100.711007 155.96917 
L 100.744194 157.702665 
z
" style="fill:#1b699f;"/>
    <path clip-path="url(#p93b248db84)" d="M 145.780156 159.079556 
L 145.770799 153.900574 
L 163.384559 159.057329 
L 163.358696 164.256214 
z
" style="fill:#0d324b;"/>
    <path clip-path="url(#p93b248db84)" d="M 163.365794 162.829335 
L 181.160648 168.0613 
L 190.978597 159.037849 
L 173.305182 153.910451 
z
" style="fill:#185b8a;"/>
    <path clip-path="url(#p93b248db84)" d="M 190.956394 160.460736 
L 191.020456 156.355242 
L 208.919461 161.532309 
L 208.826581 165.653578 
z
" style="fill:#0d324b;"/>
    <path clip-path="url(#p93b248db84)" d="M 135.524133 168.084269 
L 135.494012 162.870743 
L 145.770799 153.900574 
L 145.780156 159.079556 
z
" style="fill:#1b699f;"/>
    <path clip-path="url(#p93b248db84)" d="M 90.0477 166.679297 
L 100.744194 157.702665 
L 118.032815 162.863215 
L 107.449643 171.94532 
z
" style="fill:#113f60;"/>
    <path clip-path="url(#p93b248db84)" d="M 181.143656 169.493661 
L 190.956394 160.460736 
L 190.978597 159.037849 
L 181.160648 168.0613 
z
" style="fill:#0d324b;"/>
    <path clip-path="url(#p93b248db84)" d="M 90.006964 164.934269 
L 107.420468 170.193582 
L 118.01104 161.123075 
L 100.711007 155.96917 
z
" style="fill:#185b8a;"/>
    <path clip-path="url(#p93b248db84)" d="M 181.143656 169.493661 
L 181.192685 165.360788 
L 191.020456 156.355242 
L 190.956394 160.460736 
z
" style="fill:#1b699f;"/>
    <path clip-path="url(#p93b248db84)" d="M 135.524133 168.084269 
L 145.780156 159.079556 
L 163.358696 164.256214 
L 153.221733 173.366896 
z
" style="fill:#113f60;"/>
    <path clip-path="url(#p93b248db84)" d="M 118.032815 162.863215 
L 117.977913 158.475762 
L 135.498687 163.679941 
L 135.524133 168.084269 
z
" style="fill:#0d324b;"/>
    <path clip-path="url(#p93b248db84)" d="M 135.524133 168.084269 
L 145.780156 159.079556 
L 145.750913 142.893503 
L 135.429991 151.789553 
z
" style="fill:#0d324b;"/>
    <path clip-path="url(#p93b248db84)" d="M 117.829697 146.631366 
L 135.429991 151.789553 
L 145.750913 142.893503 
L 128.267679 137.838829 
z
" style="fill:#185b8a;"/>
    <path clip-path="url(#p93b248db84)" d="M 163.358696 164.256214 
L 181.143656 169.493661 
L 181.160648 168.0613 
L 163.365794 162.829335 
z
" style="fill:#1b699f;"/>
    <path clip-path="url(#p93b248db84)" d="M 181.143656 169.493661 
L 190.956394 160.460736 
L 208.826581 165.653578 
L 199.138693 174.792972 
z
" style="fill:#113f60;"/>
    <path clip-path="url(#p93b248db84)" d="M 163.358696 164.256214 
L 163.381265 159.719391 
L 181.197685 164.939379 
L 181.143656 169.493661 
z
" style="fill:#0d324b;"/>
    <path clip-path="url(#p93b248db84)" d="M 107.449643 171.94532 
L 118.032815 162.863215 
L 118.01104 161.123075 
L 107.420468 170.193582 
z
" style="fill:#0d324b;"/>
    <path clip-path="url(#p93b248db84)" d="M 135.494012 162.870743 
L 153.22731 168.133275 
L 163.384559 159.057329 
L 145.770799 153.900574 
z
" style="fill:#185b8a;"/>
    <path clip-path="url(#p93b248db84)" d="M 107.449643 171.94532 
L 107.376084 167.52858 
L 117.977913 158.475762 
L 118.032815 162.863215 
z
" style="fill:#1b699f;"/>
    <path clip-path="url(#p93b248db84)" d="M 118.032815 162.863215 
L 135.524133 168.084269 
L 135.429991 151.789553 
L 117.829697 146.631366 
z
" style="fill:#1b699f;"/>
    <path clip-path="url(#p93b248db84)" d="M 208.826581 165.653578 
L 208.898147 162.47807 
L 227.001234 167.71977 
L 226.906944 170.907494 
z
" style="fill:#0d324b;"/>
    <path clip-path="url(#p93b248db84)" d="M 181.192685 165.360788 
L 199.216947 170.644172 
L 208.919461 161.532309 
L 191.020456 156.355242 
z
" style="fill:#185b8a;"/>
    <path clip-path="url(#p93b248db84)" d="M 153.221733 173.366896 
L 153.2266 168.799772 
L 163.381265 159.719391 
L 163.358696 164.256214 
z
" style="fill:#1b699f;"/>
    <path clip-path="url(#p93b248db84)" d="M 90.0477 166.679297 
L 107.449643 171.94532 
L 107.420468 170.193582 
L 90.006964 164.934269 
z
" style="fill:#1b699f;"/>
    <path clip-path="url(#p93b248db84)" d="M 153.221733 173.366896 
L 163.358696 164.256214 
L 163.384559 159.057329 
L 153.22731 168.133275 
z
" style="fill:#0d324b;"/>
    <path clip-path="url(#p93b248db84)" d="M 90.0477 166.679297 
L 89.97184 163.429652 
L 107.395313 168.683169 
L 107.449643 171.94532 
z
" style="fill:#0d324b;"/>
    <path clip-path="url(#p93b248db84)" d="M 107.449643 171.94532 
L 118.032815 162.863215 
L 135.524133 168.084269 
L 125.057704 177.273716 
z
" style="fill:#113f60;"/>
    <path clip-path="url(#p93b248db84)" d="M 199.138693 174.792972 
L 199.198988 171.596263 
L 208.898147 162.47807 
L 208.826581 165.653578 
z
" style="fill:#1b699f;"/>
    <path clip-path="url(#p93b248db84)" d="M 199.138693 174.792972 
L 208.826581 165.653578 
L 208.919461 161.532309 
L 199.216947 170.644172 
z
" style="fill:#0d324b;"/>
    <path clip-path="url(#p93b248db84)" d="M 153.221733 173.366896 
L 163.358696 164.256214 
L 181.143656 169.493661 
L 171.129285 178.712194 
z
" style="fill:#113f60;"/>
    <path clip-path="url(#p93b248db84)" d="M 107.376084 167.52858 
L 125.013995 172.839939 
L 135.498687 163.679941 
L 117.977913 158.475762 
z
" style="fill:#185b8a;"/>
    <path clip-path="url(#p93b248db84)" d="M 135.524133 168.084269 
L 153.221733 173.366896 
L 153.22731 168.133275 
L 135.494012 162.870743 
z
" style="fill:#1b699f;"/>
    <path clip-path="url(#p93b248db84)" d="M 79.13211 175.839797 
L 79.041628 172.568447 
L 89.97184 163.429652 
L 90.0477 166.679297 
z
" style="fill:#1b699f;"/>
    <path clip-path="url(#p93b248db84)" d="M 181.143656 169.493661 
L 181.162625 167.894634 
L 199.168969 173.187792 
L 199.138693 174.792972 
z
" style="fill:#0d324b;"/>
    <path clip-path="url(#p93b248db84)" d="M 181.143656 169.493661 
L 199.138693 174.792972 
L 199.216947 170.644172 
L 181.192685 165.360788 
z
" style="fill:#1b699f;"/>
    <path clip-path="url(#p93b248db84)" d="M 199.138693 174.792972 
L 208.826581 165.653578 
L 226.906944 170.907494 
L 217.347551 180.155251 
z
" style="fill:#113f60;"/>
    <path clip-path="url(#p93b248db84)" d="M 153.2266 168.799772 
L 171.166049 174.127443 
L 181.197685 164.939379 
L 163.381265 159.719391 
z
" style="fill:#185b8a;"/>
    <path clip-path="url(#p93b248db84)" d="M 125.057704 177.273716 
L 135.524133 168.084269 
L 135.498687 163.679941 
L 125.013995 172.839939 
z
" style="fill:#0d324b;"/>
    <path clip-path="url(#p93b248db84)" d="M 135.524133 168.084269 
L 135.420945 150.223907 
L 153.240842 155.437174 
L 153.221733 173.366896 
z
" style="fill:#0d324b;"/>
    <path clip-path="url(#p93b248db84)" d="M 79.13211 175.839797 
L 90.0477 166.679297 
L 107.449643 171.94532 
L 96.648408 181.214559 
z
" style="fill:#113f60;"/>
    <path clip-path="url(#p93b248db84)" d="M 199.198988 171.596263 
L 217.430899 176.946209 
L 227.001234 167.71977 
L 208.898147 162.47807 
z
" style="fill:#185b8a;"/>
    <path clip-path="url(#p93b248db84)" d="M 226.906944 170.907494 
L 226.997612 167.842228 
L 245.314245 173.146491 
L 245.201212 176.223568 
z
" style="fill:#0d324b;"/>
    <path clip-path="url(#p93b248db84)" d="M 171.129285 178.712194 
L 171.142193 177.102488 
L 181.162625 167.894634 
L 181.143656 169.493661 
z
" style="fill:#1b699f;"/>
    <path clip-path="url(#p93b248db84)" d="M 171.129285 178.712194 
L 181.143656 169.493661 
L 181.197685 164.939379 
L 171.166049 174.127443 
z
" style="fill:#0d324b;"/>
    <path clip-path="url(#p93b248db84)" d="M 79.041628 172.568447 
L 96.579736 177.930583 
L 107.395313 168.683169 
L 89.97184 163.429652 
z
" style="fill:#185b8a;"/>
    <path clip-path="url(#p93b248db84)" d="M 125.057704 177.273716 
L 135.524133 168.084269 
L 153.221733 173.366896 
L 142.875567 182.665601 
z
" style="fill:#113f60;"/>
    <path clip-path="url(#p93b248db84)" d="M 107.449643 171.94532 
L 125.057704 177.273716 
L 125.013995 172.839939 
L 107.376084 167.52858 
z
" style="fill:#1b699f;"/>
    <path clip-path="url(#p93b248db84)" d="M 125.057704 177.273716 
L 124.880444 159.29297 
L 135.420945 150.223907 
L 135.524133 168.084269 
z
" style="fill:#1b699f;"/>
    <path clip-path="url(#p93b248db84)" d="M 217.347551 180.155251 
L 217.427697 177.069487 
L 226.997612 167.842228 
L 226.906944 170.907494 
z
" style="fill:#1b699f;"/>
    <path clip-path="url(#p93b248db84)" d="M 217.347551 180.155251 
L 226.906944 170.907494 
L 227.001234 167.71977 
L 217.430899 176.946209 
z
" style="fill:#0d324b;"/>
    <path clip-path="url(#p93b248db84)" d="M 171.129285 178.712194 
L 181.143656 169.493661 
L 199.138693 174.792972 
L 189.25055 184.121283 
z
" style="fill:#113f60;"/>
    <path clip-path="url(#p93b248db84)" d="M 153.221733 173.366896 
L 171.129285 178.712194 
L 171.166049 174.127443 
L 153.2266 168.799772 
z
" style="fill:#1b699f;"/>
    <path clip-path="url(#p93b248db84)" d="M 96.648408 181.214559 
L 107.449643 171.94532 
L 107.395313 168.683169 
L 96.579736 177.930583 
z
" style="fill:#0d324b;"/>
    <path clip-path="url(#p93b248db84)" d="M 153.221733 173.366896 
L 153.229046 166.505025 
L 171.184522 171.823803 
L 171.129285 178.712194 
z
" style="fill:#0d324b;"/>
    <path clip-path="url(#p93b248db84)" d="M 171.142193 177.102488 
L 189.274924 182.505365 
L 199.168969 173.187792 
L 181.162625 167.894634 
z
" style="fill:#185b8a;"/>
    <path clip-path="url(#p93b248db84)" d="M 199.138693 174.792972 
L 217.347551 180.155251 
L 217.430899 176.946209 
L 199.198988 171.596263 
z
" style="fill:#1b699f;"/>
    <path clip-path="url(#p93b248db84)" d="M 199.138693 174.792972 
L 199.211985 170.907235 
L 217.448864 176.254517 
L 217.347551 180.155251 
z
" style="fill:#0d324b;"/>
    <path clip-path="url(#p93b248db84)" d="M 217.347551 180.155251 
L 226.906944 170.907494 
L 245.201212 176.223568 
L 235.774065 185.581627 
z
" style="fill:#113f60;"/>
    <path clip-path="url(#p93b248db84)" d="M 79.13211 175.839797 
L 96.648408 181.214559 
L 96.579736 177.930583 
L 79.041628 172.568447 
z
" style="fill:#1b699f;"/>
    <path clip-path="url(#p93b248db84)" d="M 142.875567 182.665601 
L 142.855173 175.757704 
L 153.229046 166.505025 
L 153.221733 173.366896 
z
" style="fill:#1b699f;"/>
    <path clip-path="url(#p93b248db84)" d="M 96.648408 181.214559 
L 107.449643 171.94532 
L 125.057704 177.273716 
L 114.374328 186.653642 
z
" style="fill:#113f60;"/>
    <path clip-path="url(#p93b248db84)" d="M 217.427697 177.069487 
L 235.876905 182.48394 
L 245.314245 173.146491 
L 226.997612 167.842228 
z
" style="fill:#185b8a;"/>
    <path clip-path="url(#p93b248db84)" d="M 245.201212 176.223568 
L 245.32827 172.764718 
L 263.865995 178.130708 
L 263.713203 181.60291 
z
" style="fill:#0d324b;"/>
    <path clip-path="url(#p93b248db84)" d="M 189.25055 184.121283 
L 199.138693 174.792972 
L 199.168969 173.187792 
L 189.274924 182.505365 
z
" style="fill:#0d324b;"/>
    <path clip-path="url(#p93b248db84)" d="M 189.25055 184.121283 
L 189.309555 180.209518 
L 199.211985 170.907235 
L 199.138693 174.792972 
z
" style="fill:#1b699f;"/>
    <path clip-path="url(#p93b248db84)" d="M 142.875567 182.665601 
L 153.221733 173.366896 
L 171.129285 178.712194 
L 160.907005 188.122115 
z
" style="fill:#113f60;"/>
    <path clip-path="url(#p93b248db84)" d="M 142.875567 182.665601 
L 153.221733 173.366896 
L 153.240842 155.437174 
L 142.822274 164.614817 
z
" style="fill:#0d324b;"/>
    <path clip-path="url(#p93b248db84)" d="M 79.13211 175.839797 
L 78.708479 160.52353 
L 96.326882 165.838754 
L 96.648408 181.214559 
z
" style="fill:#0d324b;"/>
    <path clip-path="url(#p93b248db84)" d="M 235.774065 185.581627 
L 245.201212 176.223568 
L 245.314245 173.146491 
L 235.876905 182.48394 
z
" style="fill:#0d324b;"/>
    <path clip-path="url(#p93b248db84)" d="M 235.774065 185.581627 
L 235.889665 182.099605 
L 245.32827 172.764718 
L 245.201212 176.223568 
z
" style="fill:#1b699f;"/>
    <path clip-path="url(#p93b248db84)" d="M 124.880444 159.29297 
L 142.822274 164.614817 
L 153.240842 155.437174 
L 135.420945 150.223907 
z
" style="fill:#185b8a;"/>
    <path clip-path="url(#p93b248db84)" d="M 171.129285 178.712194 
L 189.25055 184.121283 
L 189.274924 182.505365 
L 171.142193 177.102488 
z
" style="fill:#1b699f;"/>
    <path clip-path="url(#p93b248db84)" d="M 189.25055 184.121283 
L 199.138693 174.792972 
L 217.347551 180.155251 
L 207.589374 189.595312 
z
" style="fill:#113f60;"/>
    <path clip-path="url(#p93b248db84)" d="M 125.057704 177.273716 
L 142.875567 182.665601 
L 142.822274 164.614817 
L 124.880444 159.29297 
z
" style="fill:#1b699f;"/>
    <path clip-path="url(#p93b248db84)" d="M 142.855173 175.757704 
L 160.9352 181.187446 
L 171.184522 171.823803 
L 153.229046 166.505025 
z
" style="fill:#185b8a;"/>
    <path clip-path="url(#p93b248db84)" d="M 217.347551 180.155251 
L 217.390407 178.505225 
L 235.829056 183.925231 
L 235.774065 185.581627 
z
" style="fill:#0d324b;"/>
    <path clip-path="url(#p93b248db84)" d="M 67.990626 185.18987 
L 67.495734 169.770272 
L 78.708479 160.52353 
L 79.13211 175.839797 
z
" style="fill:#1b699f;"/>
    <path clip-path="url(#p93b248db84)" d="M 67.990626 185.18987 
L 79.13211 175.839797 
L 96.648408 181.214559 
L 85.6223 190.676775 
z
" style="fill:#113f60;"/>
    <path clip-path="url(#p93b248db84)" d="M 217.347551 180.155251 
L 235.774065 185.581627 
L 235.876905 182.48394 
L 217.427697 177.069487 
z
" style="fill:#1b699f;"/>
    <path clip-path="url(#p93b248db84)" d="M 189.309555 180.209518 
L 207.676805 185.668408 
L 217.448864 176.254517 
L 199.211985 170.907235 
z
" style="fill:#185b8a;"/>
    <path clip-path="url(#p93b248db84)" d="M 235.774065 185.581627 
L 245.201212 176.223568 
L 263.713203 181.60291 
L 254.42216 191.073256 
z
" style="fill:#113f60;"/>
    <path clip-path="url(#p93b248db84)" d="M 171.129285 178.712194 
L 171.241304 164.742635 
L 189.462088 170.097417 
L 189.25055 184.121283 
z
" style="fill:#0d324b;"/>
    <path clip-path="url(#p93b248db84)" d="M 96.648408 181.214559 
L 96.594454 178.634432 
L 114.337927 184.063546 
L 114.374328 186.653642 
z
" style="fill:#0d324b;"/>
    <path clip-path="url(#p93b248db84)" d="M 160.907005 188.122115 
L 171.129285 178.712194 
L 171.184522 171.823803 
L 160.9352 181.187446 
z
" style="fill:#0d324b;"/>
    <path clip-path="url(#p93b248db84)" d="M 114.374328 186.653642 
L 125.057704 177.273716 
L 142.875567 182.665601 
L 132.313656 192.158208 
z
" style="fill:#113f60;"/>
    <path clip-path="url(#p93b248db84)" d="M 235.889665 182.099605 
L 254.563879 187.577756 
L 263.865995 178.130708 
L 245.32827 172.764718 
z
" style="fill:#185b8a;"/>
    <path clip-path="url(#p93b248db84)" d="M 207.589374 189.595312 
L 207.626358 187.934231 
L 217.390407 178.505225 
L 217.347551 180.155251 
z
" style="fill:#1b699f;"/>
    <path clip-path="url(#p93b248db84)" d="M 207.589374 189.595312 
L 217.347551 180.155251 
L 217.448864 176.254517 
L 207.676805 185.668408 
z
" style="fill:#0d324b;"/>
    <path clip-path="url(#p93b248db84)" d="M 160.907005 188.122115 
L 160.964186 174.058305 
L 171.241304 164.742635 
L 171.129285 178.712194 
z
" style="fill:#1b699f;"/>
    <path clip-path="url(#p93b248db84)" d="M 160.907005 188.122115 
L 171.129285 178.712194 
L 189.25055 184.121283 
L 179.155879 193.644428 
z
" style="fill:#113f60;"/>
    <path clip-path="url(#p93b248db84)" d="M 107.449643 171.94532 
L 106.348657 105.838391 
L 124.403394 110.902397 
L 125.057704 177.273716 
z
" style="fill:#0d324b;"/>
    <path clip-path="url(#p93b248db84)" d="M 85.6223 190.676775 
L 85.556616 188.079348 
L 96.594454 178.634432 
L 96.648408 181.214559 
z
" style="fill:#1b699f;"/>
    <path clip-path="url(#p93b248db84)" d="M 142.875567 182.665601 
L 160.907005 188.122115 
L 160.9352 181.187446 
L 142.855173 175.757704 
z
" style="fill:#1b699f;"/>
    <path clip-path="url(#p93b248db84)" d="M 142.875567 182.665601 
L 142.849957 173.9913 
L 160.94241 179.414161 
L 160.907005 188.122115 
z
" style="fill:#0d324b;"/>
    <path clip-path="url(#p93b248db84)" d="M 189.25055 184.121283 
L 189.257447 183.664023 
L 207.599594 189.136286 
L 207.589374 189.595312 
z
" style="fill:#0d324b;"/>
    <path clip-path="url(#p93b248db84)" d="M 254.42216 191.073256 
L 263.713203 181.60291 
L 263.865995 178.130708 
L 254.563879 187.577756 
z
" style="fill:#0d324b;"/>
    <path clip-path="url(#p93b248db84)" d="M 189.25055 184.121283 
L 207.589374 189.595312 
L 207.676805 185.668408 
L 189.309555 180.209518 
z
" style="fill:#1b699f;"/>
    <path clip-path="url(#p93b248db84)" d="M 207.589374 189.595312 
L 217.347551 180.155251 
L 235.774065 185.581627 
L 226.1497 195.135458 
z
" style="fill:#113f60;"/>
    <path clip-path="url(#p93b248db84)" d="M 207.626358 187.934231 
L 226.198997 193.467948 
L 235.829056 183.925231 
L 217.390407 178.505225 
z
" style="fill:#185b8a;"/>
    <path clip-path="url(#p93b248db84)" d="M 96.648408 181.214559 
L 95.256439 114.648686 
L 106.348657 105.838391 
L 107.449643 171.94532 
z
" style="fill:#1b699f;"/>
    <path clip-path="url(#p93b248db84)" d="M 67.495734 169.770272 
L 85.230849 175.197067 
L 96.326882 165.838754 
L 78.708479 160.52353 
z
" style="fill:#185b8a;"/>
    <path clip-path="url(#p93b248db84)" d="M 85.6223 190.676775 
L 96.648408 181.214559 
L 96.326882 165.838754 
L 85.230849 175.197067 
z
" style="fill:#0d324b;"/>
    <path clip-path="url(#p93b248db84)" d="M 85.6223 190.676775 
L 96.648408 181.214559 
L 114.374328 186.653642 
L 103.467188 196.230031 
z
" style="fill:#113f60;"/>
    <path clip-path="url(#p93b248db84)" d="M 235.774065 185.581627 
L 235.876905 182.48394 
L 254.548236 187.963582 
L 254.42216 191.073256 
z
" style="fill:#0d324b;"/>
    <path clip-path="url(#p93b248db84)" d="M 235.774065 185.581627 
L 254.42216 191.073256 
L 254.563879 187.577756 
L 235.889665 182.099605 
z
" style="fill:#1b699f;"/>
    <path clip-path="url(#p93b248db84)" d="M 132.313656 192.158208 
L 132.25179 183.425503 
L 142.849957 173.9913 
L 142.875567 182.665601 
z
" style="fill:#1b699f;"/>
    <path clip-path="url(#p93b248db84)" d="M 179.155879 193.644428 
L 179.161034 193.184104 
L 189.257447 183.664023 
L 189.25055 184.121283 
z
" style="fill:#1b699f;"/>
    <path clip-path="url(#p93b248db84)" d="M 85.556616 188.079348 
L 103.419291 193.622541 
L 114.337927 184.063546 
L 96.594454 178.634432 
z
" style="fill:#185b8a;"/>
    <path clip-path="url(#p93b248db84)" d="M 114.374328 186.653642 
L 114.355 185.278359 
L 132.303876 190.777607 
L 132.313656 192.158208 
z
" style="fill:#0d324b;"/>
    <path clip-path="url(#p93b248db84)" d="M 67.990626 185.18987 
L 67.6762 175.393155 
L 85.373598 180.841999 
L 85.6223 190.676775 
z
" style="fill:#0d324b;"/>
    <path clip-path="url(#p93b248db84)" d="M 132.313656 192.158208 
L 142.875567 182.665601 
L 160.907005 188.122115 
L 150.47027 197.729447 
z
" style="fill:#113f60;"/>
    <path clip-path="url(#p93b248db84)" d="M 226.1497 195.135458 
L 235.774065 185.581627 
L 235.829056 183.925231 
L 226.198997 193.467948 
z
" style="fill:#0d324b;"/>
    <path clip-path="url(#p93b248db84)" d="M 67.990626 185.18987 
L 85.6223 190.676775 
L 85.230849 175.197067 
L 67.495734 169.770272 
z
" style="fill:#1b699f;"/>
    <path clip-path="url(#p93b248db84)" d="M 226.1497 195.135458 
L 226.241893 192.016968 
L 235.876905 182.48394 
L 235.774065 185.581627 
z
" style="fill:#1b699f;"/>
    <path clip-path="url(#p93b248db84)" d="M 160.964186 174.058305 
L 179.313996 179.525794 
L 189.462088 170.097417 
L 171.241304 164.742635 
z
" style="fill:#185b8a;"/>
    <path clip-path="url(#p93b248db84)" d="M 125.057704 177.273716 
L 124.42958 113.558681 
L 142.686703 118.695625 
L 142.875567 182.665601 
z
" style="fill:#0d324b;"/>
    <path clip-path="url(#p93b248db84)" d="M 179.155879 193.644428 
L 189.25055 184.121283 
L 189.462088 170.097417 
L 179.313996 179.525794 
z
" style="fill:#0d324b;"/>
    <path clip-path="url(#p93b248db84)" d="M 179.155879 193.644428 
L 189.25055 184.121283 
L 207.589374 189.595312 
L 197.626147 199.233738 
z
" style="fill:#113f60;"/>
    <path clip-path="url(#p93b248db84)" d="M 103.467188 196.230031 
L 103.441756 194.845518 
L 114.355 185.278359 
L 114.374328 186.653642 
z
" style="fill:#1b699f;"/>
    <path clip-path="url(#p93b248db84)" d="M 56.616159 194.735465 
L 56.254617 184.872696 
L 67.6762 175.393155 
L 67.990626 185.18987 
z
" style="fill:#1b699f;"/>
    <path clip-path="url(#p93b248db84)" d="M 179.161034 193.184104 
L 197.634673 198.771631 
L 207.599594 189.136286 
L 189.257447 183.664023 
z
" style="fill:#185b8a;"/>
    <path clip-path="url(#p93b248db84)" d="M 103.467188 196.230031 
L 114.374328 186.653642 
L 114.337927 184.063546 
L 103.419291 193.622541 
z
" style="fill:#0d324b;"/>
    <path clip-path="url(#p93b248db84)" d="M 207.589374 189.595312 
L 226.1497 195.135458 
L 226.198997 193.467948 
L 207.626358 187.934231 
z
" style="fill:#1b699f;"/>
    <path clip-path="url(#p93b248db84)" d="M 56.616159 194.735465 
L 67.990626 185.18987 
L 85.6223 190.676775 
L 74.364224 200.338059 
z
" style="fill:#113f60;"/>
    <path clip-path="url(#p93b248db84)" d="M 207.589374 189.595312 
L 207.676805 185.668408 
L 226.266242 191.193334 
L 226.1497 195.135458 
z
" style="fill:#0d324b;"/>
    <path clip-path="url(#p93b248db84)" d="M 226.1497 195.135458 
L 235.774065 185.581627 
L 254.42216 191.073256 
L 244.935565 200.742927 
z
" style="fill:#113f60;"/>
    <path clip-path="url(#p93b248db84)" d="M 114.374328 186.653642 
L 113.472665 122.496077 
L 124.42958 113.558681 
L 125.057704 177.273716 
z
" style="fill:#1b699f;"/>
    <path clip-path="url(#p93b248db84)" d="M 132.25179 183.425503 
L 150.47027 188.962773 
L 160.94241 179.414161 
L 142.849957 173.9913 
z
" style="fill:#185b8a;"/>
    <path clip-path="url(#p93b248db84)" d="M 160.907005 188.122115 
L 179.155879 193.644428 
L 179.313996 179.525794 
L 160.964186 174.058305 
z
" style="fill:#1b699f;"/>
    <path clip-path="url(#p93b248db84)" d="M 114.374328 186.653642 
L 125.057704 177.273716 
L 124.403394 110.902397 
L 113.435065 119.82063 
z
" style="fill:#0d324b;"/>
    <path clip-path="url(#p93b248db84)" d="M 85.6223 190.676775 
L 103.467188 196.230031 
L 103.419291 193.622541 
L 85.556616 188.079348 
z
" style="fill:#1b699f;"/>
    <path clip-path="url(#p93b248db84)" d="M 103.467188 196.230031 
L 114.374328 186.653642 
L 132.313656 192.158208 
L 121.52918 201.850849 
z
" style="fill:#113f60;"/>
    <path clip-path="url(#p93b248db84)" d="M 226.241893 192.016968 
L 245.051343 197.612338 
L 254.548236 187.963582 
L 235.876905 182.48394 
z
" style="fill:#185b8a;"/>
    <path clip-path="url(#p93b248db84)" d="M 150.47027 197.729447 
L 160.907005 188.122115 
L 160.94241 179.414161 
L 150.47027 188.962773 
z
" style="fill:#0d324b;"/>
    <path clip-path="url(#p93b248db84)" d="M 197.626147 199.233738 
L 207.589374 189.595312 
L 207.599594 189.136286 
L 197.634673 198.771631 
z
" style="fill:#0d324b;"/>
    <path clip-path="url(#p93b248db84)" d="M 103.441756 194.845518 
L 121.513425 200.460969 
L 132.303876 190.777607 
L 114.355 185.278359 
z
" style="fill:#185b8a;"/>
    <path clip-path="url(#p93b248db84)" d="M 197.626147 199.233738 
L 197.699088 195.280421 
L 207.676805 185.668408 
L 207.589374 189.595312 
z
" style="fill:#1b699f;"/>
    <path clip-path="url(#p93b248db84)" d="M 132.313656 192.158208 
L 132.298354 189.998184 
L 150.47027 195.561054 
L 150.47027 197.729447 
z
" style="fill:#0d324b;"/>
    <path clip-path="url(#p93b248db84)" d="M 150.47027 197.729447 
L 160.907005 188.122115 
L 179.155879 193.644428 
L 168.848141 203.368578 
z
" style="fill:#113f60;"/>
    <path clip-path="url(#p93b248db84)" d="M 96.648408 181.214559 
L 114.374328 186.653642 
L 113.435065 119.82063 
L 95.256439 114.648686 
z
" style="fill:#1b699f;"/>
    <path clip-path="url(#p93b248db84)" d="M 56.254617 184.872696 
L 74.069263 190.436873 
L 85.373598 180.841999 
L 67.6762 175.393155 
z
" style="fill:#185b8a;"/>
    <path clip-path="url(#p93b248db84)" d="M 244.935565 200.742927 
L 254.42216 191.073256 
L 254.548236 187.963582 
L 245.051343 197.612338 
z
" style="fill:#0d324b;"/>
    <path clip-path="url(#p93b248db84)" d="M 132.313656 192.158208 
L 150.47027 197.729447 
L 150.47027 188.962773 
L 132.25179 183.425503 
z
" style="fill:#1b699f;"/>
    <path clip-path="url(#p93b248db84)" d="M 179.155879 193.644428 
L 197.626147 199.233738 
L 197.634673 198.771631 
L 179.161034 193.184104 
z
" style="fill:#1b699f;"/>
    <path clip-path="url(#p93b248db84)" d="M 197.626147 199.233738 
L 207.589374 189.595312 
L 226.1497 195.135458 
L 216.321863 204.891271 
z
" style="fill:#113f60;"/>
    <path clip-path="url(#p93b248db84)" d="M 121.52918 201.850849 
L 132.313656 192.158208 
L 132.303876 190.777607 
L 121.513425 200.460969 
z
" style="fill:#0d324b;"/>
    <path clip-path="url(#p93b248db84)" d="M 74.364224 200.338059 
L 85.6223 190.676775 
L 85.373598 180.841999 
L 74.069263 190.436873 
z
" style="fill:#0d324b;"/>
    <path clip-path="url(#p93b248db84)" d="M 121.52918 201.850849 
L 121.504531 199.676301 
L 132.298354 189.998184 
L 132.313656 192.158208 
z
" style="fill:#1b699f;"/>
    <path clip-path="url(#p93b248db84)" d="M 74.364224 200.338059 
L 85.6223 190.676775 
L 103.467188 196.230031 
L 92.32918 206.00912 
z
" style="fill:#113f60;"/>
    <path clip-path="url(#p93b248db84)" d="M 226.1497 195.135458 
L 244.935565 200.742927 
L 245.051343 197.612338 
L 226.241893 192.016968 
z
" style="fill:#1b699f;"/>
    <path clip-path="url(#p93b248db84)" d="M 226.1497 195.135458 
L 226.245576 191.89238 
L 245.055969 197.487266 
L 244.935565 200.742927 
z
" style="fill:#0d324b;"/>
    <path clip-path="url(#p93b248db84)" d="M 197.699088 195.280421 
L 216.424345 200.922593 
L 226.266242 191.193334 
L 207.676805 185.668408 
z
" style="fill:#185b8a;"/>
    <path clip-path="url(#p93b248db84)" d="M 132.313656 192.158208 
L 142.875567 182.665601 
L 142.686703 118.695625 
L 131.857312 127.74308 
z
" style="fill:#0d324b;"/>
    <path clip-path="url(#p93b248db84)" d="M 56.616159 194.735465 
L 56.321453 186.695955 
L 74.123791 192.267269 
L 74.364224 200.338059 
z
" style="fill:#0d324b;"/>
    <path clip-path="url(#p93b248db84)" d="M 179.155879 193.644428 
L 179.313996 179.525794 
L 197.887659 185.059982 
L 197.626147 199.233738 
z
" style="fill:#0d324b;"/>
    <path clip-path="url(#p93b248db84)" d="M 103.467188 196.230031 
L 121.52918 201.850849 
L 121.513425 200.460969 
L 103.441756 194.845518 
z
" style="fill:#1b699f;"/>
    <path clip-path="url(#p93b248db84)" d="M 56.616159 194.735465 
L 74.364224 200.338059 
L 74.069263 190.436873 
L 56.254617 184.872696 
z
" style="fill:#1b699f;"/>
    <path clip-path="url(#p93b248db84)" d="M 121.52918 201.850849 
L 132.313656 192.158208 
L 150.47027 197.729447 
L 139.812262 207.540469 
z
" style="fill:#113f60;"/>
    <path clip-path="url(#p93b248db84)" d="M 216.321863 204.891271 
L 216.406172 201.626357 
L 226.245576 191.89238 
L 226.1497 195.135458 
z
" style="fill:#1b699f;"/>
    <path clip-path="url(#p93b248db84)" d="M 121.504531 199.676301 
L 139.803129 205.357476 
L 150.47027 195.561054 
L 132.298354 189.998184 
z
" style="fill:#185b8a;"/>
    <path clip-path="url(#p93b248db84)" d="M 216.321863 204.891271 
L 226.1497 195.135458 
L 226.266242 191.193334 
L 216.424345 200.922593 
z
" style="fill:#0d324b;"/>
    <path clip-path="url(#p93b248db84)" d="M 114.374328 186.653642 
L 132.313656 192.158208 
L 131.857312 127.74308 
L 113.472665 122.496077 
z
" style="fill:#1b699f;"/>
    <path clip-path="url(#p93b248db84)" d="M 45.001327 204.482778 
L 44.666639 196.388984 
L 56.321453 186.695955 
L 56.616159 194.735465 
z
" style="fill:#1b699f;"/>
    <path clip-path="url(#p93b248db84)" d="M 168.848141 203.368578 
L 168.950516 189.154282 
L 179.313996 179.525794 
L 179.155879 193.644428 
z
" style="fill:#1b699f;"/>
    <path clip-path="url(#p93b248db84)" d="M 168.848141 203.368578 
L 179.155879 193.644428 
L 197.626147 199.233738 
L 187.451339 209.076848 
z
" style="fill:#113f60;"/>
    <path clip-path="url(#p93b248db84)" d="M 150.47027 197.729447 
L 150.47027 188.962773 
L 168.911527 194.567753 
L 168.848141 203.368578 
z
" style="fill:#0d324b;"/>
    <path clip-path="url(#p93b248db84)" d="M 197.626147 199.233738 
L 197.656278 197.60068 
L 216.364197 203.251877 
L 216.321863 204.891271 
z
" style="fill:#0d324b;"/>
    <path clip-path="url(#p93b248db84)" d="M 45.001327 204.482778 
L 56.616159 194.735465 
L 74.364224 200.338059 
L 62.86678 210.204759 
z
" style="fill:#113f60;"/>
    <path clip-path="url(#p93b248db84)" d="M 95.256439 114.648686 
L 113.435065 119.82063 
L 124.403394 110.902397 
L 106.348657 105.838391 
z
" style="fill:#185b8a;"/>
    <path clip-path="url(#p93b248db84)" d="M 197.626147 199.233738 
L 216.321863 204.891271 
L 216.424345 200.922593 
L 197.699088 195.280421 
z
" style="fill:#1b699f;"/>
    <path clip-path="url(#p93b248db84)" d="M 216.321863 204.891271 
L 226.1497 195.135458 
L 244.935565 200.742927 
L 235.24718 210.618283 
z
" style="fill:#113f60;"/>
    <path clip-path="url(#p93b248db84)" d="M 139.812262 207.540469 
L 150.47027 197.729447 
L 150.47027 195.561054 
L 139.803129 205.357476 
z
" style="fill:#0d324b;"/>
    <path clip-path="url(#p93b248db84)" d="M 160.907005 188.122115 
L 161.196418 116.940553 
L 179.956268 122.175794 
L 179.155879 193.644428 
z
" style="fill:#0d324b;"/>
    <path clip-path="url(#p93b248db84)" d="M 92.32918 206.00912 
L 103.467188 196.230031 
L 121.52918 201.850849 
L 110.515029 211.749911 
z
" style="fill:#113f60;"/>
    <path clip-path="url(#p93b248db84)" d="M 216.406172 201.626357 
L 235.356385 207.340673 
L 245.055969 197.487266 
L 226.245576 191.89238 
z
" style="fill:#185b8a;"/>
    <path clip-path="url(#p93b248db84)" d="M 139.812262 207.540469 
L 139.775337 198.71453 
L 150.47027 188.962773 
L 150.47027 197.729447 
z
" style="fill:#1b699f;"/>
    <path clip-path="url(#p93b248db84)" d="M 187.451339 209.076848 
L 187.475219 207.432795 
L 197.656278 197.60068 
L 197.626147 199.233738 
z
" style="fill:#1b699f;"/>
    <path clip-path="url(#p93b248db84)" d="M 121.52918 201.850849 
L 121.513425 200.460969 
L 139.806425 206.145194 
L 139.812262 207.540469 
z
" style="fill:#0d324b;"/>
    <path clip-path="url(#p93b248db84)" d="M 121.52918 201.850849 
L 139.812262 207.540469 
L 139.803129 205.357476 
L 121.504531 199.676301 
z
" style="fill:#1b699f;"/>
    <path clip-path="url(#p93b248db84)" d="M 44.666639 196.388984 
L 62.587073 202.079399 
L 74.123791 192.267269 
L 56.321453 186.695955 
z
" style="fill:#185b8a;"/>
    <path clip-path="url(#p93b248db84)" d="M 139.812262 207.540469 
L 150.47027 197.729447 
L 168.848141 203.368578 
L 158.32052 213.300162 
z
" style="fill:#113f60;"/>
    <path clip-path="url(#p93b248db84)" d="M 85.6223 190.676775 
L 83.89573 122.400618 
L 102.207967 127.678768 
L 103.467188 196.230031 
z
" style="fill:#0d324b;"/>
    <path clip-path="url(#p93b248db84)" d="M 150.47027 197.729447 
L 150.47027 126.049584 
L 161.196418 116.940553 
L 160.907005 188.122115 
z
" style="fill:#1b699f;"/>
    <path clip-path="url(#p93b248db84)" d="M 235.24718 210.618283 
L 244.935565 200.742927 
L 245.055969 197.487266 
L 235.356385 207.340673 
z
" style="fill:#0d324b;"/>
    <path clip-path="url(#p93b248db84)" d="M 168.950516 189.154282 
L 187.658614 194.806919 
L 197.887659 185.059982 
L 179.313996 179.525794 
z
" style="fill:#185b8a;"/>
    <path clip-path="url(#p93b248db84)" d="M 62.86678 210.204759 
L 74.364224 200.338059 
L 74.123791 192.267269 
L 62.587073 202.079399 
z
" style="fill:#0d324b;"/>
    <path clip-path="url(#p93b248db84)" d="M 187.451339 209.076848 
L 197.626147 199.233738 
L 197.887659 185.059982 
L 187.658614 194.806919 
z
" style="fill:#0d324b;"/>
    <path clip-path="url(#p93b248db84)" d="M 187.451339 209.076848 
L 197.626147 199.233738 
L 216.321863 204.891271 
L 206.284033 214.855538 
z
" style="fill:#113f60;"/>
    <path clip-path="url(#p93b248db84)" d="M 110.515029 211.749911 
L 110.493046 210.35067 
L 121.513425 200.460969 
L 121.52918 201.850849 
z
" style="fill:#1b699f;"/>
    <path clip-path="url(#p93b248db84)" d="M 113.472665 122.496077 
L 131.857312 127.74308 
L 142.686703 118.695625 
L 124.42958 113.558681 
z
" style="fill:#185b8a;"/>
    <path clip-path="url(#p93b248db84)" d="M 168.848141 203.368578 
L 168.898619 196.360031 
L 187.553537 202.040992 
L 187.451339 209.076848 
z
" style="fill:#0d324b;"/>
    <path clip-path="url(#p93b248db84)" d="M 187.475219 207.432795 
L 206.320297 213.205092 
L 216.364197 203.251877 
L 197.656278 197.60068 
z
" style="fill:#185b8a;"/>
    <path clip-path="url(#p93b248db84)" d="M 74.364224 200.338059 
L 72.31602 131.584381 
L 83.89573 122.400618 
L 85.6223 190.676775 
z
" style="fill:#1b699f;"/>
    <path clip-path="url(#p93b248db84)" d="M 45.001327 204.482778 
L 44.874115 201.406408 
L 62.760468 207.116428 
L 62.86678 210.204759 
z
" style="fill:#0d324b;"/>
    <path clip-path="url(#p93b248db84)" d="M 62.86678 210.204759 
L 74.364224 200.338059 
L 92.32918 206.00912 
L 80.952895 215.997415 
z
" style="fill:#113f60;"/>
    <path clip-path="url(#p93b248db84)" d="M 216.321863 204.891271 
L 235.24718 210.618283 
L 235.356385 207.340673 
L 216.406172 201.626357 
z
" style="fill:#1b699f;"/>
    <path clip-path="url(#p93b248db84)" d="M 216.321863 204.891271 
L 216.431283 200.653901 
L 235.388912 206.364425 
L 235.24718 210.618283 
z
" style="fill:#0d324b;"/>
    <path clip-path="url(#p93b248db84)" d="M 139.775337 198.71453 
L 158.347885 204.439762 
L 168.911527 194.567753 
L 150.47027 188.962773 
z
" style="fill:#185b8a;"/>
    <path clip-path="url(#p93b248db84)" d="M 45.001327 204.482778 
L 62.86678 210.204759 
L 62.587073 202.079399 
L 44.666639 196.388984 
z
" style="fill:#1b699f;"/>
    <path clip-path="url(#p93b248db84)" d="M 168.848141 203.368578 
L 187.451339 209.076848 
L 187.658614 194.806919 
L 168.950516 189.154282 
z
" style="fill:#1b699f;"/>
    <path clip-path="url(#p93b248db84)" d="M 158.32052 213.300162 
L 158.342312 206.244225 
L 168.898619 196.360031 
L 168.848141 203.368578 
z
" style="fill:#1b699f;"/>
    <path clip-path="url(#p93b248db84)" d="M 110.515029 211.749911 
L 121.52918 201.850849 
L 139.812262 207.540469 
L 128.925869 217.561726 
z
" style="fill:#113f60;"/>
    <path clip-path="url(#p93b248db84)" d="M 158.32052 213.300162 
L 168.848141 203.368578 
L 168.911527 194.567753 
L 158.347885 204.439762 
z
" style="fill:#0d324b;"/>
    <path clip-path="url(#p93b248db84)" d="M 33.138427 214.438272 
L 32.995394 211.341146 
L 44.874115 201.406408 
L 45.001327 204.482778 
z
" style="fill:#1b699f;"/>
    <path clip-path="url(#p93b248db84)" d="M 206.284033 214.855538 
L 216.321863 204.891271 
L 216.364197 203.251877 
L 206.320297 213.205092 
z
" style="fill:#0d324b;"/>
    <path clip-path="url(#p93b248db84)" d="M 110.493046 210.35067 
L 128.913942 216.157042 
L 139.806425 206.145194 
L 121.513425 200.460969 
z
" style="fill:#185b8a;"/>
    <path clip-path="url(#p93b248db84)" d="M 206.284033 214.855538 
L 206.377766 210.589555 
L 216.431283 200.653901 
L 216.321863 204.891271 
z
" style="fill:#1b699f;"/>
    <path clip-path="url(#p93b248db84)" d="M 158.32052 213.300162 
L 168.848141 203.368578 
L 187.451339 209.076848 
L 177.058137 219.131232 
z
" style="fill:#113f60;"/>
    <path clip-path="url(#p93b248db84)" d="M 168.848141 203.368578 
L 179.155879 193.644428 
L 179.956268 122.175794 
L 169.366487 131.3987 
z
" style="fill:#0d324b;"/>
    <path clip-path="url(#p93b248db84)" d="M 139.812262 207.540469 
L 158.32052 213.300162 
L 158.347885 204.439762 
L 139.775337 198.71453 
z
" style="fill:#1b699f;"/>
    <path clip-path="url(#p93b248db84)" d="M 187.451339 209.076848 
L 206.284033 214.855538 
L 206.320297 213.205092 
L 187.475219 207.432795 
z
" style="fill:#1b699f;"/>
    <path clip-path="url(#p93b248db84)" d="M 33.138427 214.438272 
L 45.001327 204.482778 
L 62.86678 210.204759 
L 51.122253 220.283498 
z
" style="fill:#113f60;"/>
    <path clip-path="url(#p93b248db84)" d="M 103.467188 196.230031 
L 102.114182 122.573173 
L 120.690882 127.895761 
L 121.52918 201.850849 
z
" style="fill:#0d324b;"/>
    <path clip-path="url(#p93b248db84)" d="M 206.284033 214.855538 
L 216.321863 204.891271 
L 235.24718 210.618283 
L 225.350495 220.705958 
z
" style="fill:#113f60;"/>
    <path clip-path="url(#p93b248db84)" d="M 128.925869 217.561726 
L 139.812262 207.540469 
L 139.806425 206.145194 
L 128.913942 216.157042 
z
" style="fill:#0d324b;"/>
    <path clip-path="url(#p93b248db84)" d="M 187.451339 209.076848 
L 187.519358 204.394089 
L 206.387324 210.154535 
L 206.284033 214.855538 
z
" style="fill:#0d324b;"/>
    <path clip-path="url(#p93b248db84)" d="M 32.995394 211.341146 
L 51.000391 217.174304 
L 62.760468 207.116428 
L 44.874115 201.406408 
z
" style="fill:#185b8a;"/>
    <path clip-path="url(#p93b248db84)" d="M 150.47027 197.729447 
L 168.848141 203.368578 
L 169.366487 131.3987 
L 150.47027 126.049584 
z
" style="fill:#1b699f;"/>
    <path clip-path="url(#p93b248db84)" d="M 92.32918 206.00912 
L 103.467188 196.230031 
L 102.207967 127.678768 
L 90.754638 136.977539 
z
" style="fill:#0d324b;"/>
    <path clip-path="url(#p93b248db84)" d="M 158.342312 206.244225 
L 177.132404 212.04774 
L 187.553537 202.040992 
L 168.898619 196.360031 
z
" style="fill:#185b8a;"/>
    <path clip-path="url(#p93b248db84)" d="M 80.952895 215.997415 
L 92.32918 206.00912 
L 110.515029 211.749911 
L 99.263786 221.862062 
z
" style="fill:#113f60;"/>
    <path clip-path="url(#p93b248db84)" d="M 206.377766 210.589555 
L 225.477031 216.42334 
L 235.388912 206.364425 
L 216.431283 200.653901 
z
" style="fill:#185b8a;"/>
    <path clip-path="url(#p93b248db84)" d="M 92.32918 206.00912 
L 90.637333 131.834604 
L 102.114182 122.573173 
L 103.467188 196.230031 
z
" style="fill:#1b699f;"/>
    <path clip-path="url(#p93b248db84)" d="M 62.86678 210.204759 
L 62.587073 202.079399 
L 80.72956 207.840323 
L 80.952895 215.997415 
z
" style="fill:#0d324b;"/>
    <path clip-path="url(#p93b248db84)" d="M 110.515029 211.749911 
L 128.925869 217.561726 
L 128.913942 216.157042 
L 110.493046 210.35067 
z
" style="fill:#1b699f;"/>
    <path clip-path="url(#p93b248db84)" d="M 177.058137 219.131232 
L 177.107566 214.416815 
L 187.519358 204.394089 
L 187.451339 209.076848 
z
" style="fill:#1b699f;"/>
    <path clip-path="url(#p93b248db84)" d="M 110.515029 211.749911 
L 110.473629 209.114661 
L 128.903407 214.916217 
L 128.925869 217.561726 
z
" style="fill:#0d324b;"/>
    <path clip-path="url(#p93b248db84)" d="M 177.058137 219.131232 
L 187.451339 209.076848 
L 187.553537 202.040992 
L 177.132404 212.04774 
z
" style="fill:#0d324b;"/>
    <path clip-path="url(#p93b248db84)" d="M 128.925869 217.561726 
L 139.812262 207.540469 
L 158.32052 213.300162 
L 147.565902 223.445891 
z
" style="fill:#113f60;"/>
    <path clip-path="url(#p93b248db84)" d="M 74.364224 200.338059 
L 92.32918 206.00912 
L 90.754638 136.977539 
L 72.31602 131.584381 
z
" style="fill:#1b699f;"/>
    <path clip-path="url(#p93b248db84)" d="M 51.122253 220.283498 
L 62.86678 210.204759 
L 62.760468 207.116428 
L 51.000391 217.174304 
z
" style="fill:#0d324b;"/>
    <path clip-path="url(#p93b248db84)" d="M 74.364224 200.338059 
L 72.20739 127.937916 
L 90.671115 133.315701 
L 92.32918 206.00912 
z
" style="fill:#0d324b;"/>
    <path clip-path="url(#p93b248db84)" d="M 225.350495 220.705958 
L 235.24718 210.618283 
L 235.388912 206.364425 
L 225.477031 216.42334 
z
" style="fill:#0d324b;"/>
    <path clip-path="url(#p93b248db84)" d="M 51.122253 220.283498 
L 50.801628 212.103074 
L 62.587073 202.079399 
L 62.86678 210.204759 
z
" style="fill:#1b699f;"/>
    <path clip-path="url(#p93b248db84)" d="M 177.058137 219.131232 
L 187.451339 209.076848 
L 206.284033 214.855538 
L 196.029405 225.035012 
z
" style="fill:#113f60;"/>
    <path clip-path="url(#p93b248db84)" d="M 99.263786 221.862062 
L 99.210156 219.209009 
L 110.473629 209.114661 
L 110.515029 211.749911 
z
" style="fill:#1b699f;"/>
    <path clip-path="url(#p93b248db84)" d="M 158.32052 213.300162 
L 177.058137 219.131232 
L 177.132404 212.04774 
L 158.342312 206.244225 
z
" style="fill:#1b699f;"/>
    <path clip-path="url(#p93b248db84)" d="M 33.138427 214.438272 
L 51.122253 220.283498 
L 51.000391 217.174304 
L 32.995394 211.341146 
z
" style="fill:#1b699f;"/>
    <path clip-path="url(#p93b248db84)" d="M 206.284033 214.855538 
L 206.316517 213.377123 
L 225.394347 219.221788 
L 225.350495 220.705958 
z
" style="fill:#0d324b;"/>
    <path clip-path="url(#p93b248db84)" d="M 51.122253 220.283498 
L 62.86678 210.204759 
L 80.952895 215.997415 
L 69.330605 226.2017 
z
" style="fill:#113f60;"/>
    <path clip-path="url(#p93b248db84)" d="M 62.86678 210.204759 
L 60.356961 137.295565 
L 72.20739 127.937916 
L 74.364224 200.338059 
z
" style="fill:#1b699f;"/>
    <path clip-path="url(#p93b248db84)" d="M 206.284033 214.855538 
L 225.350495 220.705958 
L 225.477031 216.42334 
L 206.377766 210.589555 
z
" style="fill:#1b699f;"/>
    <path clip-path="url(#p93b248db84)" d="M 177.107566 214.416815 
L 196.114631 220.302191 
L 206.387324 210.154535 
L 187.519358 204.394089 
z
" style="fill:#185b8a;"/>
    <path clip-path="url(#p93b248db84)" d="M 158.32052 213.300162 
L 158.377473 194.859852 
L 177.252235 200.618397 
L 177.058137 219.131232 
z
" style="fill:#0d324b;"/>
    <path clip-path="url(#p93b248db84)" d="M 99.263786 221.862062 
L 110.515029 211.749911 
L 128.925869 217.561726 
L 117.803669 227.800051 
z
" style="fill:#113f60;"/>
    <path clip-path="url(#p93b248db84)" d="M 196.029405 225.035012 
L 196.056208 223.546611 
L 206.316517 213.377123 
L 206.284033 214.855538 
z
" style="fill:#1b699f;"/>
    <path clip-path="url(#p93b248db84)" d="M 110.515029 211.749911 
L 121.52918 201.850849 
L 120.690882 127.895761 
L 109.345014 137.274134 
z
" style="fill:#0d324b;"/>
    <path clip-path="url(#p93b248db84)" d="M 99.210156 219.209009 
L 117.769242 225.136649 
L 128.903407 214.916217 
L 110.473629 209.114661 
z
" style="fill:#185b8a;"/>
    <path clip-path="url(#p93b248db84)" d="M 80.952895 215.997415 
L 80.678906 205.990234 
L 99.060706 211.815708 
L 99.263786 221.862062 
z
" style="fill:#0d324b;"/>
    <path clip-path="url(#p93b248db84)" d="M 196.029405 225.035012 
L 206.284033 214.855538 
L 206.387324 210.154535 
L 196.114631 220.302191 
z
" style="fill:#0d324b;"/>
    <path clip-path="url(#p93b248db84)" d="M 50.801628 212.103074 
L 69.067104 217.989265 
L 80.72956 207.840323 
L 62.587073 202.079399 
z
" style="fill:#185b8a;"/>
    <path clip-path="url(#p93b248db84)" d="M 147.565902 223.445891 
L 158.32052 213.300162 
L 177.058137 219.131232 
L 166.439434 229.403766 
z
" style="fill:#113f60;"/>
    <path clip-path="url(#p93b248db84)" d="M 150.47027 126.049584 
L 169.366487 131.3987 
L 179.956268 122.175794 
L 161.196418 116.940553 
z
" style="fill:#185b8a;"/>
    <path clip-path="url(#p93b248db84)" d="M 92.32918 206.00912 
L 90.754638 136.977539 
L 109.426151 142.438818 
L 110.515029 211.749911 
z
" style="fill:#0d324b;"/>
    <path clip-path="url(#p93b248db84)" d="M 147.565902 223.445891 
L 147.544602 204.879725 
L 158.377473 194.859852 
L 158.32052 213.300162 
z
" style="fill:#1b699f;"/>
    <path clip-path="url(#p93b248db84)" d="M 139.812262 207.540469 
L 139.539793 142.413962 
L 158.522477 147.910464 
L 158.32052 213.300162 
z
" style="fill:#0d324b;"/>
    <path clip-path="url(#p93b248db84)" d="M 92.32918 206.00912 
L 110.515029 211.749911 
L 109.345014 137.274134 
L 90.637333 131.834604 
z
" style="fill:#1b699f;"/>
    <path clip-path="url(#p93b248db84)" d="M 69.330605 226.2017 
L 80.952895 215.997415 
L 80.72956 207.840323 
L 69.067104 217.989265 
z
" style="fill:#0d324b;"/>
    <path clip-path="url(#p93b248db84)" d="M 196.029405 225.035012 
L 206.284033 214.855538 
L 225.350495 220.705958 
L 215.238722 231.012873 
z
" style="fill:#113f60;"/>
    <path clip-path="url(#p93b248db84)" d="M 177.058137 219.131232 
L 196.029405 225.035012 
L 196.114631 220.302191 
L 177.107566 214.416815 
z
" style="fill:#1b699f;"/>
    <path clip-path="url(#p93b248db84)" d="M 69.330605 226.2017 
L 69.007337 216.126543 
L 80.678906 205.990234 
L 80.952895 215.997415 
z
" style="fill:#1b699f;"/>
    <path clip-path="url(#p93b248db84)" d="M 177.058137 219.131232 
L 177.11478 213.728752 
L 196.12707 219.611433 
L 196.029405 225.035012 
z
" style="fill:#0d324b;"/>
    <path clip-path="url(#p93b248db84)" d="M 117.803669 227.800051 
L 128.925869 217.561726 
L 128.903407 214.916217 
L 117.769242 225.136649 
z
" style="fill:#0d324b;"/>
    <path clip-path="url(#p93b248db84)" d="M 72.31602 131.584381 
L 90.754638 136.977539 
L 102.207967 127.678768 
L 83.89573 122.400618 
z
" style="fill:#185b8a;"/>
    <path clip-path="url(#p93b248db84)" d="M 196.056208 223.546611 
L 215.277064 229.518667 
L 225.394347 219.221788 
L 206.316517 213.377123 
z
" style="fill:#185b8a;"/>
    <path clip-path="url(#p93b248db84)" d="M 80.952895 215.997415 
L 79.049578 146.480687 
L 90.754638 136.977539 
L 92.32918 206.00912 
z
" style="fill:#1b699f;"/>
    <path clip-path="url(#p93b248db84)" d="M 69.330605 226.2017 
L 80.952895 215.997415 
L 99.263786 221.862062 
L 87.767713 232.194255 
z
" style="fill:#113f60;"/>
    <path clip-path="url(#p93b248db84)" d="M 80.952895 215.997415 
L 92.32918 206.00912 
L 90.671115 133.315701 
L 78.948585 142.791988 
z
" style="fill:#0d324b;"/>
    <path clip-path="url(#p93b248db84)" d="M 128.925869 217.561726 
L 128.369037 151.978408 
L 139.539793 142.413962 
L 139.812262 207.540469 
z
" style="fill:#1b699f;"/>
    <path clip-path="url(#p93b248db84)" d="M 51.122253 220.283498 
L 69.330605 226.2017 
L 69.067104 217.989265 
L 50.801628 212.103074 
z
" style="fill:#1b699f;"/>
    <path clip-path="url(#p93b248db84)" d="M 166.439434 229.403766 
L 166.473824 223.964673 
L 177.11478 213.728752 
L 177.058137 219.131232 
z
" style="fill:#1b699f;"/>
    <path clip-path="url(#p93b248db84)" d="M 99.263786 221.862062 
L 117.803669 227.800051 
L 117.769242 225.136649 
L 99.210156 219.209009 
z
" style="fill:#1b699f;"/>
    <path clip-path="url(#p93b248db84)" d="M 117.803669 227.800051 
L 128.925869 217.561726 
L 147.565902 223.445891 
L 136.576866 233.812766 
z
" style="fill:#113f60;"/>
    <path clip-path="url(#p93b248db84)" d="M 215.238722 231.012873 
L 225.350495 220.705958 
L 225.394347 219.221788 
L 215.277064 229.518667 
z
" style="fill:#0d324b;"/>
    <path clip-path="url(#p93b248db84)" d="M 62.86678 210.204759 
L 80.952895 215.997415 
L 78.948585 142.791988 
L 60.356961 137.295565 
z
" style="fill:#1b699f;"/>
    <path clip-path="url(#p93b248db84)" d="M 166.439434 229.403766 
L 177.058137 219.131232 
L 196.029405 225.035012 
L 185.550881 235.436744 
z
" style="fill:#113f60;"/>
    <path clip-path="url(#p93b248db84)" d="M 147.565902 223.445891 
L 147.560651 218.868986 
L 166.468486 224.80898 
L 166.439434 229.403766 
z
" style="fill:#0d324b;"/>
    <path clip-path="url(#p93b248db84)" d="M 166.439434 229.403766 
L 177.058137 219.131232 
L 177.252235 200.618397 
L 166.557287 210.764424 
z
" style="fill:#0d324b;"/>
    <path clip-path="url(#p93b248db84)" d="M 99.263786 221.862062 
L 98.94412 206.048153 
L 117.598458 211.92394 
L 117.803669 227.800051 
z
" style="fill:#0d324b;"/>
    <path clip-path="url(#p93b248db84)" d="M 69.007337 216.126543 
L 87.516325 222.079581 
L 99.060706 211.815708 
L 80.678906 205.990234 
z
" style="fill:#185b8a;"/>
    <path clip-path="url(#p93b248db84)" d="M 147.544602 204.879725 
L 166.557287 210.764424 
L 177.252235 200.618397 
L 158.377473 194.859852 
z
" style="fill:#185b8a;"/>
    <path clip-path="url(#p93b248db84)" d="M 196.029405 225.035012 
L 215.238722 231.012873 
L 215.277064 229.518667 
L 196.056208 223.546611 
z
" style="fill:#1b699f;"/>
    <path clip-path="url(#p93b248db84)" d="M 196.029405 225.035012 
L 196.10675 220.739842 
L 215.349369 226.700921 
L 215.238722 231.012873 
z
" style="fill:#0d324b;"/>
    <path clip-path="url(#p93b248db84)" d="M 87.767713 232.194255 
L 99.263786 221.862062 
L 99.060706 211.815708 
L 87.516325 222.079581 
z
" style="fill:#0d324b;"/>
    <path clip-path="url(#p93b248db84)" d="M 166.473824 223.964673 
L 185.626906 229.976369 
L 196.12707 219.611433 
L 177.11478 213.728752 
z
" style="fill:#185b8a;"/>
    <path clip-path="url(#p93b248db84)" d="M 136.576866 233.812766 
L 136.551474 229.204835 
L 147.560651 218.868986 
L 147.565902 223.445891 
z
" style="fill:#1b699f;"/>
    <path clip-path="url(#p93b248db84)" d="M 99.263786 221.862062 
L 110.515029 211.749911 
L 109.426151 142.438818 
L 97.852851 152.063045 
z
" style="fill:#0d324b;"/>
    <path clip-path="url(#p93b248db84)" d="M 147.565902 223.445891 
L 166.439434 229.403766 
L 166.557287 210.764424 
L 147.544602 204.879725 
z
" style="fill:#1b699f;"/>
    <path clip-path="url(#p93b248db84)" d="M 87.767713 232.194255 
L 87.371995 216.27241 
L 98.94412 206.048153 
L 99.263786 221.862062 
z
" style="fill:#1b699f;"/>
    <path clip-path="url(#p93b248db84)" d="M 87.767713 232.194255 
L 99.263786 221.862062 
L 117.803669 227.800051 
L 106.437917 238.262572 
z
" style="fill:#113f60;"/>
    <path clip-path="url(#p93b248db84)" d="M 147.565902 223.445891 
L 158.32052 213.300162 
L 158.522477 147.910464 
L 147.490357 157.59679 
z
" style="fill:#0d324b;"/>
    <path clip-path="url(#p93b248db84)" d="M 90.637333 131.834604 
L 109.345014 137.274134 
L 120.690882 127.895761 
L 102.114182 122.573173 
z
" style="fill:#185b8a;"/>
    <path clip-path="url(#p93b248db84)" d="M 185.550881 235.436744 
L 185.611088 231.112455 
L 196.10675 220.739842 
L 196.029405 225.035012 
z
" style="fill:#1b699f;"/>
    <path clip-path="url(#p93b248db84)" d="M 69.330605 226.2017 
L 87.767713 232.194255 
L 87.516325 222.079581 
L 69.007337 216.126543 
z
" style="fill:#1b699f;"/>
    <path clip-path="url(#p93b248db84)" d="M 185.550881 235.436744 
L 196.029405 225.035012 
L 196.12707 219.611433 
L 185.626906 229.976369 
z
" style="fill:#0d324b;"/>
    <path clip-path="url(#p93b248db84)" d="M 117.803669 227.800051 
L 117.75985 224.410036 
L 136.558112 230.409508 
L 136.576866 233.812766 
z
" style="fill:#0d324b;"/>
    <path clip-path="url(#p93b248db84)" d="M 136.576866 233.812766 
L 147.565902 223.445891 
L 166.439434 229.403766 
L 155.58781 239.901627 
z
" style="fill:#113f60;"/>
    <path clip-path="url(#p93b248db84)" d="M 80.952895 215.997415 
L 99.263786 221.862062 
L 97.852851 152.063045 
L 79.049578 146.480687 
z
" style="fill:#1b699f;"/>
    <path clip-path="url(#p93b248db84)" d="M 128.925869 217.561726 
L 147.565902 223.445891 
L 147.490357 157.59679 
L 128.369037 151.978408 
z
" style="fill:#1b699f;"/>
    <path clip-path="url(#p93b248db84)" d="M 185.550881 235.436744 
L 196.029405 225.035012 
L 215.238722 231.012873 
L 204.90477 241.546254 
z
" style="fill:#113f60;"/>
    <path clip-path="url(#p93b248db84)" d="M 128.925869 217.561726 
L 128.345796 149.241098 
L 147.487203 154.847926 
L 147.565902 223.445891 
z
" style="fill:#0d324b;"/>
    <path clip-path="url(#p93b248db84)" d="M 136.551474 229.204835 
L 155.597222 235.275664 
L 166.468486 224.80898 
L 147.560651 218.868986 
z
" style="fill:#185b8a;"/>
    <path clip-path="url(#p93b248db84)" d="M 166.439434 229.403766 
L 185.550881 235.436744 
L 185.626906 229.976369 
L 166.473824 223.964673 
z
" style="fill:#1b699f;"/>
    <path clip-path="url(#p93b248db84)" d="M 106.437917 238.262572 
L 106.378205 234.849578 
L 117.75985 224.410036 
L 117.803669 227.800051 
z
" style="fill:#1b699f;"/>
    <path clip-path="url(#p93b248db84)" d="M 60.356961 137.295565 
L 78.948585 142.791988 
L 90.671115 133.315701 
L 72.20739 127.937916 
z
" style="fill:#185b8a;"/>
    <path clip-path="url(#p93b248db84)" d="M 185.611088 231.112455 
L 204.998786 237.205042 
L 215.349369 226.700921 
L 196.10675 220.739842 
z
" style="fill:#185b8a;"/>
    <path clip-path="url(#p93b248db84)" d="M 155.58781 239.901627 
L 166.439434 229.403766 
L 166.468486 224.80898 
L 155.597222 235.275664 
z
" style="fill:#0d324b;"/>
    <path clip-path="url(#p93b248db84)" d="M 117.803669 227.800051 
L 116.914351 158.998072 
L 128.345796 149.241098 
L 128.925869 217.561726 
z
" style="fill:#1b699f;"/>
    <path clip-path="url(#p93b248db84)" d="M 166.439434 229.403766 
L 166.546951 212.399061 
L 185.788571 218.365011 
L 185.550881 235.436744 
z
" style="fill:#0d324b;"/>
    <path clip-path="url(#p93b248db84)" d="M 87.371995 216.27241 
L 106.158259 222.277981 
L 117.598458 211.92394 
L 98.94412 206.048153 
z
" style="fill:#185b8a;"/>
    <path clip-path="url(#p93b248db84)" d="M 106.437917 238.262572 
L 117.803669 227.800051 
L 117.598458 211.92394 
L 106.158259 222.277981 
z
" style="fill:#0d324b;"/>
    <path clip-path="url(#p93b248db84)" d="M 106.437917 238.262572 
L 117.803669 227.800051 
L 136.576866 233.812766 
L 125.345664 244.408097 
z
" style="fill:#113f60;"/>
    <path clip-path="url(#p93b248db84)" d="M 204.90477 241.546254 
L 215.238722 231.012873 
L 215.349369 226.700921 
L 204.998786 237.205042 
z
" style="fill:#0d324b;"/>
    <path clip-path="url(#p93b248db84)" d="M 136.576866 233.812766 
L 136.566796 231.985329 
L 155.591543 238.067051 
L 155.58781 239.901627 
z
" style="fill:#0d324b;"/>
    <path clip-path="url(#p93b248db84)" d="M 106.378205 234.849578 
L 125.311375 240.981748 
L 136.558112 230.409508 
L 117.75985 224.410036 
z
" style="fill:#185b8a;"/>
    <path clip-path="url(#p93b248db84)" d="M 155.58781 239.901627 
L 166.439434 229.403766 
L 185.550881 235.436744 
L 174.841046 246.06809 
z
" style="fill:#113f60;"/>
    <path clip-path="url(#p93b248db84)" d="M 136.576866 233.812766 
L 155.58781 239.901627 
L 155.597222 235.275664 
L 136.551474 229.204835 
z
" style="fill:#1b699f;"/>
    <path clip-path="url(#p93b248db84)" d="M 155.58781 239.901627 
L 155.622646 222.780614 
L 166.546951 212.399061 
L 166.439434 229.403766 
z
" style="fill:#1b699f;"/>
    <path clip-path="url(#p93b248db84)" d="M 87.767713 232.194255 
L 106.437917 238.262572 
L 106.158259 222.277981 
L 87.371995 216.27241 
z
" style="fill:#1b699f;"/>
    <path clip-path="url(#p93b248db84)" d="M 185.550881 235.436744 
L 204.90477 241.546254 
L 204.998786 237.205042 
L 185.611088 231.112455 
z
" style="fill:#1b699f;"/>
    <path clip-path="url(#p93b248db84)" d="M 185.550881 235.436744 
L 185.612086 231.04078 
L 205.000345 237.133086 
L 204.90477 241.546254 
z
" style="fill:#0d324b;"/>
    <path clip-path="url(#p93b248db84)" d="M 125.345664 244.408097 
L 125.327252 242.568273 
L 136.566796 231.985329 
L 136.576866 233.812766 
z
" style="fill:#1b699f;"/>
    <path clip-path="url(#p93b248db84)" d="M 79.049578 146.480687 
L 97.852851 152.063045 
L 109.426151 142.438818 
L 90.754638 136.977539 
z
" style="fill:#185b8a;"/>
    <path clip-path="url(#p93b248db84)" d="M 125.345664 244.408097 
L 136.576866 233.812766 
L 136.558112 230.409508 
L 125.311375 240.981748 
z
" style="fill:#0d324b;"/>
    <path clip-path="url(#p93b248db84)" d="M 128.369037 151.978408 
L 147.490357 157.59679 
L 158.522477 147.910464 
L 139.539793 142.413962 
z
" style="fill:#185b8a;"/>
    <path clip-path="url(#p93b248db84)" d="M 174.841046 246.06809 
L 174.884036 241.642275 
L 185.612086 231.04078 
L 185.550881 235.436744 
z
" style="fill:#1b699f;"/>
    <path clip-path="url(#p93b248db84)" d="M 136.576866 233.812766 
L 147.565902 223.445891 
L 147.487203 154.847926 
L 136.196186 164.730756 
z
" style="fill:#0d324b;"/>
    <path clip-path="url(#p93b248db84)" d="M 106.437917 238.262572 
L 125.345664 244.408097 
L 125.311375 240.981748 
L 106.378205 234.849578 
z
" style="fill:#1b699f;"/>
    <path clip-path="url(#p93b248db84)" d="M 125.345664 244.408097 
L 136.576866 233.812766 
L 155.58781 239.901627 
L 144.495516 250.632312 
z
" style="fill:#113f60;"/>
    <path clip-path="url(#p93b248db84)" d="M 125.327252 242.568273 
L 144.49111 248.785292 
L 155.591543 238.067051 
L 136.566796 231.985329 
z
" style="fill:#185b8a;"/>
    <path clip-path="url(#p93b248db84)" d="M 155.58781 239.901627 
L 155.591371 238.151482 
L 174.858112 244.311103 
L 174.841046 246.06809 
z
" style="fill:#0d324b;"/>
    <path clip-path="url(#p93b248db84)" d="M 174.841046 246.06809 
L 185.550881 235.436744 
L 204.90477 241.546254 
L 194.341235 252.313648 
z
" style="fill:#113f60;"/>
    <path clip-path="url(#p93b248db84)" d="M 117.803669 227.800051 
L 136.576866 233.812766 
L 136.196186 164.730756 
L 116.914351 158.998072 
z
" style="fill:#1b699f;"/>
    <path clip-path="url(#p93b248db84)" d="M 174.841046 246.06809 
L 185.550881 235.436744 
L 185.788571 218.365011 
L 175.008006 228.879473 
z
" style="fill:#0d324b;"/>
    <path clip-path="url(#p93b248db84)" d="M 155.622646 222.780614 
L 175.008006 228.879473 
L 185.788571 218.365011 
L 166.546951 212.399061 
z
" style="fill:#185b8a;"/>
    <path clip-path="url(#p93b248db84)" d="M 174.884036 241.642275 
L 194.41912 247.870486 
L 205.000345 237.133086 
L 185.612086 231.04078 
z
" style="fill:#185b8a;"/>
    <path clip-path="url(#p93b248db84)" d="M 144.495516 250.632312 
L 144.491313 248.870296 
L 155.591371 238.151482 
L 155.58781 239.901627 
z
" style="fill:#1b699f;"/>
    <path clip-path="url(#p93b248db84)" d="M 144.495516 250.632312 
L 155.58781 239.901627 
L 155.591543 238.067051 
L 144.49111 248.785292 
z
" style="fill:#0d324b;"/>
    <path clip-path="url(#p93b248db84)" d="M 155.58781 239.901627 
L 174.841046 246.06809 
L 175.008006 228.879473 
L 155.622646 222.780614 
z
" style="fill:#1b699f;"/>
    <path clip-path="url(#p93b248db84)" d="M 194.341235 252.313648 
L 204.90477 241.546254 
L 205.000345 237.133086 
L 194.41912 247.870486 
z
" style="fill:#0d324b;"/>
    <path clip-path="url(#p93b248db84)" d="M 125.345664 244.408097 
L 144.495516 250.632312 
L 144.49111 248.785292 
L 125.327252 242.568273 
z
" style="fill:#1b699f;"/>
    <path clip-path="url(#p93b248db84)" d="M 144.495516 250.632312 
L 155.58781 239.901627 
L 174.841046 246.06809 
L 163.892155 256.93674 
z
" style="fill:#113f60;"/>
    <path clip-path="url(#p93b248db84)" d="M 144.491313 248.870296 
L 163.901659 255.167826 
L 174.858112 244.311103 
L 155.591371 238.151482 
z
" style="fill:#185b8a;"/>
    <path clip-path="url(#p93b248db84)" d="M 174.841046 246.06809 
L 194.341235 252.313648 
L 194.41912 247.870486 
L 174.884036 241.642275 
z
" style="fill:#1b699f;"/>
    <path clip-path="url(#p93b248db84)" d="M 174.841046 246.06809 
L 174.930071 236.902912 
L 194.502525 243.112436 
L 194.341235 252.313648 
z
" style="fill:#0d324b;"/>
    <path clip-path="url(#p93b248db84)" d="M 116.914351 158.998072 
L 136.196186 164.730756 
L 147.487203 154.847926 
L 128.345796 149.241098 
z
" style="fill:#185b8a;"/>
    <path clip-path="url(#p93b248db84)" d="M 163.892155 256.93674 
L 174.841046 246.06809 
L 174.858112 244.311103 
L 163.901659 255.167826 
z
" style="fill:#0d324b;"/>
    <path clip-path="url(#p93b248db84)" d="M 163.892155 256.93674 
L 163.941734 247.709043 
L 174.930071 236.902912 
L 174.841046 246.06809 
z
" style="fill:#1b699f;"/>
    <path clip-path="url(#p93b248db84)" d="M 144.495516 250.632312 
L 163.892155 256.93674 
L 163.901659 255.167826 
L 144.491313 248.870296 
z
" style="fill:#1b699f;"/>
    <path clip-path="url(#p93b248db84)" d="M 163.892155 256.93674 
L 174.841046 246.06809 
L 194.341235 252.313648 
L 183.540382 263.322941 
z
" style="fill:#113f60;"/>
    <path clip-path="url(#p93b248db84)" d="M 163.941734 247.709043 
L 183.663334 254.05892 
L 194.502525 243.112436 
L 174.930071 236.902912 
z
" style="fill:#185b8a;"/>
    <path clip-path="url(#p93b248db84)" d="M 183.540382 263.322941 
L 194.341235 252.313648 
L 194.502525 243.112436 
L 183.663334 254.05892 
z
" style="fill:#0d324b;"/>
    <path clip-path="url(#p93b248db84)" d="M 163.892155 256.93674 
L 183.540382 263.322941 
L 183.663334 254.05892 
L 163.941734 247.709043 
z
" style="fill:#1b699f;"/>
   </g>
  </g>
 </g>
 <defs>
  <clipPath id="p93b248db84">
   <rect height="279" width="279" x="7.2" y="7.2"/>
  </clipPath>
 </defs>
</svg>
