<?xml version="1.0" encoding="utf-8" standalone="no"?>
<!DOCTYPE svg PUBLIC "-//W3C//DTD SVG 1.1//EN"
  "http://www.w3.org/Graphics/SVG/1.1/DTD/svg11.dtd">
<!-- Created with matplotlib (https://matplotlib.org/) -->
<svg height="293.820188pt" version="1.1" viewBox="0 0 307.596322 293.820188" width="307.596322pt" xmlns="http://www.w3.org/2000/svg" xmlns:xlink="http://www.w3.org/1999/xlink">
 <metadata>
  <rdf:RDF xmlns:cc="http://creativecommons.org/ns#" xmlns:dc="http://purl.org/dc/elements/1.1/" xmlns:rdf="http://www.w3.org/1999/02/22-rdf-syntax-ns#">
   <cc:Work>
    <dc:type rdf:resource="http://purl.org/dc/dcmitype/StillImage"/>
    <dc:date>2021-06-25T10:24:59.575977</dc:date>
    <dc:format>image/svg+xml</dc:format>
    <dc:creator>
     <cc:Agent>
      <dc:title>Matplotlib v3.3.4, https://matplotlib.org/</dc:title>
     </cc:Agent>
    </dc:creator>
   </cc:Work>
  </rdf:RDF>
 </metadata>
 <defs>
  <style type="text/css">*{stroke-linecap:butt;stroke-linejoin:round;}</style>
 </defs>
 <g id="figure_1">
  <g id="patch_1">
   <path d="M 0 293.820188 
L 307.596322 293.820188 
L 307.596322 0 
L 0 0 
z
" style="fill:none;"/>
  </g>
  <g id="patch_2">
   <path d="M 7.2 286.2 
L 286.2 286.2 
L 286.2 7.2 
L 7.2 7.2 
z
" style="fill:#ffffff;"/>
  </g>
  <g id="pane3d_1">
   <g id="patch_3">
    <path d="M 28.266424 217.407541 
L 120.401336 140.178231 
L 119.120572 28.79976 
L 22.57653 99.253205 
" style="fill:#f2f2f2;opacity:0.5;stroke:#f2f2f2;stroke-linejoin:miter;"/>
   </g>
  </g>
  <g id="pane3d_2">
   <g id="patch_4">
    <path d="M 120.401336 140.178231 
L 268.244995 183.150546 
L 273.521014 67.935772 
L 119.120572 28.79976 
" style="fill:#e6e6e6;opacity:0.5;stroke:#e6e6e6;stroke-linejoin:miter;"/>
   </g>
  </g>
  <g id="pane3d_3">
   <g id="patch_5">
    <path d="M 28.266424 217.407541 
L 184.987924 268.592783 
L 268.244995 183.150546 
L 120.401336 140.178231 
" style="fill:#ececec;opacity:0.5;stroke:#ececec;stroke-linejoin:miter;"/>
   </g>
  </g>
  <g id="axis3d_1">
   <g id="line2d_1">
    <path d="M 28.266424 217.407541 
L 184.987924 268.592783 
" style="fill:none;stroke:#000000;stroke-linecap:square;stroke-width:0.8;"/>
   </g>
   <g id="Line3DCollection_1">
    <path d="M 40.209141 221.308033 
L 131.713567 143.46625 
L 130.911484 31.788413 
" style="fill:none;stroke:#b0b0b0;stroke-width:0.8;"/>
    <path d="M 171.828252 264.294834 
L 255.880897 179.556791 
L 260.583574 64.656508 
" style="fill:none;stroke:#b0b0b0;stroke-width:0.8;"/>
   </g>
   <g id="xtick_1">
    <g id="line2d_2">
     <path d="M 41.006011 220.630144 
L 38.611979 222.666721 
" style="fill:none;stroke:#000000;stroke-linecap:square;stroke-width:0.8;"/>
    </g>
    <g id="text_1">
     <!-- 000 -->
     <g transform="translate(25.444179 242.247803)rotate(-52)scale(0.12 -0.12)">
      <defs>
       <path d="M 31.78125 66.40625 
Q 24.171875 66.40625 20.328125 58.90625 
Q 16.5 51.421875 16.5 36.375 
Q 16.5 21.390625 20.328125 13.890625 
Q 24.171875 6.390625 31.78125 6.390625 
Q 39.453125 6.390625 43.28125 13.890625 
Q 47.125 21.390625 47.125 36.375 
Q 47.125 51.421875 43.28125 58.90625 
Q 39.453125 66.40625 31.78125 66.40625 
z
M 31.78125 74.21875 
Q 44.046875 74.21875 50.515625 64.515625 
Q 56.984375 54.828125 56.984375 36.375 
Q 56.984375 17.96875 50.515625 8.265625 
Q 44.046875 -1.421875 31.78125 -1.421875 
Q 19.53125 -1.421875 13.0625 8.265625 
Q 6.59375 17.96875 6.59375 36.375 
Q 6.59375 54.828125 13.0625 64.515625 
Q 19.53125 74.21875 31.78125 74.21875 
z
" id="DejaVuSans-48"/>
      </defs>
      <use xlink:href="#DejaVuSans-48"/>
      <use x="63.623047" xlink:href="#DejaVuSans-48"/>
      <use x="127.246094" xlink:href="#DejaVuSans-48"/>
     </g>
    </g>
   </g>
   <g id="xtick_2">
    <g id="line2d_3">
     <path d="M 172.562923 263.554172 
L 170.355611 265.779483 
" style="fill:none;stroke:#000000;stroke-linecap:square;stroke-width:0.8;"/>
    </g>
    <g id="text_2">
     <!-- 111 -->
     <g transform="translate(157.037747 285.083728)rotate(-52)scale(0.12 -0.12)">
      <defs>
       <path d="M 12.40625 8.296875 
L 28.515625 8.296875 
L 28.515625 63.921875 
L 10.984375 60.40625 
L 10.984375 69.390625 
L 28.421875 72.90625 
L 38.28125 72.90625 
L 38.28125 8.296875 
L 54.390625 8.296875 
L 54.390625 0 
L 12.40625 0 
z
" id="DejaVuSans-49"/>
      </defs>
      <use xlink:href="#DejaVuSans-49"/>
      <use x="63.623047" xlink:href="#DejaVuSans-49"/>
      <use x="127.246094" xlink:href="#DejaVuSans-49"/>
     </g>
    </g>
   </g>
  </g>
  <g id="axis3d_2">
   <g id="line2d_4">
    <path d="M 268.244995 183.150546 
L 184.987924 268.592783 
" style="fill:none;stroke:#000000;stroke-linecap:square;stroke-width:0.8;"/>
   </g>
   <g id="Line3DCollection_2">
    <path d="M 30.956847 93.137631 
L 36.236327 210.727011 
L 192.218971 261.17195 
" style="fill:none;stroke:#b0b0b0;stroke-width:0.8;"/>
    <path d="M 112.006521 33.991271 
L 113.588262 145.889085 
L 262.113533 189.442935 
" style="fill:none;stroke:#b0b0b0;stroke-width:0.8;"/>
   </g>
   <g id="xtick_3">
    <g id="line2d_5">
     <path d="M 190.904602 260.746882 
L 194.851103 262.023184 
" style="fill:none;stroke:#000000;stroke-linecap:square;stroke-width:0.8;"/>
    </g>
    <g id="text_3">
     <!-- 000 -->
     <g transform="translate(192.822717 270.019228)rotate(-346)scale(0.12 -0.12)">
      <use xlink:href="#DejaVuSans-48"/>
      <use x="63.623047" xlink:href="#DejaVuSans-48"/>
      <use x="127.246094" xlink:href="#DejaVuSans-48"/>
     </g>
    </g>
   </g>
   <g id="xtick_4">
    <g id="line2d_6">
     <path d="M 260.866594 189.07728 
L 264.610397 190.17512 
" style="fill:none;stroke:#000000;stroke-linecap:square;stroke-width:0.8;"/>
    </g>
    <g id="text_4">
     <!-- 111 -->
     <g transform="translate(262.717279 198.290212)rotate(-346)scale(0.12 -0.12)">
      <use xlink:href="#DejaVuSans-49"/>
      <use x="63.623047" xlink:href="#DejaVuSans-49"/>
      <use x="127.246094" xlink:href="#DejaVuSans-49"/>
     </g>
    </g>
   </g>
  </g>
  <g id="axis3d_3">
   <g id="line2d_7">
    <path d="M 268.244995 183.150546 
L 273.521014 67.935772 
" style="fill:none;stroke:#000000;stroke-linecap:square;stroke-width:0.8;"/>
   </g>
   <g id="Line3DCollection_3">
    <path d="M 268.346078 180.943159 
L 120.376747 138.03992 
L 28.157592 215.147576 
" style="fill:none;stroke:#b0b0b0;stroke-width:0.8;"/>
    <path d="M 269.325373 159.557847 
L 120.138631 117.332786 
L 27.102858 193.245329 
" style="fill:none;stroke:#b0b0b0;stroke-width:0.8;"/>
    <path d="M 270.321077 137.814227 
L 119.896718 96.295347 
L 26.029774 170.962059 
" style="fill:none;stroke:#b0b0b0;stroke-width:0.8;"/>
    <path d="M 271.333604 115.703217 
L 119.650914 74.919637 
L 24.937859 148.287736 
" style="fill:none;stroke:#b0b0b0;stroke-width:0.8;"/>
    <path d="M 272.363385 93.215425 
L 119.401126 53.197431 
L 23.826612 125.211974 
" style="fill:none;stroke:#b0b0b0;stroke-width:0.8;"/>
    <path d="M 273.410865 70.341139 
L 119.147256 31.120235 
L 22.695516 101.724018 
" style="fill:none;stroke:#b0b0b0;stroke-width:0.8;"/>
   </g>
   <g id="xtick_5">
    <g id="line2d_8">
     <path d="M 267.104158 180.583068 
L 270.832874 181.664197 
" style="fill:none;stroke:#000000;stroke-linecap:square;stroke-width:0.8;"/>
    </g>
    <g id="text_5">
     <!-- 0.0 -->
     <g transform="translate(278.661013 185.940327)scale(0.1 -0.1)">
      <defs>
       <path d="M 10.6875 12.40625 
L 21 12.40625 
L 21 0 
L 10.6875 0 
z
" id="DejaVuSans-46"/>
      </defs>
      <use xlink:href="#DejaVuSans-48"/>
      <use x="63.623047" xlink:href="#DejaVuSans-46"/>
      <use x="95.410156" xlink:href="#DejaVuSans-48"/>
     </g>
    </g>
   </g>
   <g id="xtick_6">
    <g id="line2d_9">
     <path d="M 268.072748 159.203311 
L 271.83363 160.267772 
" style="fill:none;stroke:#000000;stroke-linecap:square;stroke-width:0.8;"/>
    </g>
    <g id="text_6">
     <!-- 0.1 -->
     <g transform="translate(279.788799 164.595191)scale(0.1 -0.1)">
      <use xlink:href="#DejaVuSans-48"/>
      <use x="63.623047" xlink:href="#DejaVuSans-46"/>
      <use x="95.410156" xlink:href="#DejaVuSans-49"/>
     </g>
    </g>
   </g>
   <g id="xtick_7">
    <g id="line2d_10">
     <path d="M 269.057561 137.465482 
L 272.851166 138.512561 
" style="fill:none;stroke:#000000;stroke-linecap:square;stroke-width:0.8;"/>
    </g>
    <g id="text_7">
     <!-- 0.2 -->
     <g transform="translate(280.935427 142.89346)scale(0.1 -0.1)">
      <defs>
       <path d="M 19.1875 8.296875 
L 53.609375 8.296875 
L 53.609375 0 
L 7.328125 0 
L 7.328125 8.296875 
Q 12.9375 14.109375 22.625 23.890625 
Q 32.328125 33.6875 34.8125 36.53125 
Q 39.546875 41.84375 41.421875 45.53125 
Q 43.3125 49.21875 43.3125 52.78125 
Q 43.3125 58.59375 39.234375 62.25 
Q 35.15625 65.921875 28.609375 65.921875 
Q 23.96875 65.921875 18.8125 64.3125 
Q 13.671875 62.703125 7.8125 59.421875 
L 7.8125 69.390625 
Q 13.765625 71.78125 18.9375 73 
Q 24.125 74.21875 28.421875 74.21875 
Q 39.75 74.21875 46.484375 68.546875 
Q 53.21875 62.890625 53.21875 53.421875 
Q 53.21875 48.921875 51.53125 44.890625 
Q 49.859375 40.875 45.40625 35.40625 
Q 44.1875 33.984375 37.640625 27.21875 
Q 31.109375 20.453125 19.1875 8.296875 
z
" id="DejaVuSans-50"/>
      </defs>
      <use xlink:href="#DejaVuSans-48"/>
      <use x="63.623047" xlink:href="#DejaVuSans-46"/>
      <use x="95.410156" xlink:href="#DejaVuSans-50"/>
     </g>
    </g>
   </g>
   <g id="xtick_8">
    <g id="line2d_11">
     <path d="M 270.059007 115.36051 
L 273.88591 116.389466 
" style="fill:none;stroke:#000000;stroke-linecap:square;stroke-width:0.8;"/>
    </g>
    <g id="text_8">
     <!-- 0.3 -->
     <g transform="translate(282.101371 120.826123)scale(0.1 -0.1)">
      <defs>
       <path d="M 40.578125 39.3125 
Q 47.65625 37.796875 51.625 33 
Q 55.609375 28.21875 55.609375 21.1875 
Q 55.609375 10.40625 48.1875 4.484375 
Q 40.765625 -1.421875 27.09375 -1.421875 
Q 22.515625 -1.421875 17.65625 -0.515625 
Q 12.796875 0.390625 7.625 2.203125 
L 7.625 11.71875 
Q 11.71875 9.328125 16.59375 8.109375 
Q 21.484375 6.890625 26.8125 6.890625 
Q 36.078125 6.890625 40.9375 10.546875 
Q 45.796875 14.203125 45.796875 21.1875 
Q 45.796875 27.640625 41.28125 31.265625 
Q 36.765625 34.90625 28.71875 34.90625 
L 20.21875 34.90625 
L 20.21875 43.015625 
L 29.109375 43.015625 
Q 36.375 43.015625 40.234375 45.921875 
Q 44.09375 48.828125 44.09375 54.296875 
Q 44.09375 59.90625 40.109375 62.90625 
Q 36.140625 65.921875 28.71875 65.921875 
Q 24.65625 65.921875 20.015625 65.03125 
Q 15.375 64.15625 9.8125 62.3125 
L 9.8125 71.09375 
Q 15.4375 72.65625 20.34375 73.4375 
Q 25.25 74.21875 29.59375 74.21875 
Q 40.828125 74.21875 47.359375 69.109375 
Q 53.90625 64.015625 53.90625 55.328125 
Q 53.90625 49.265625 50.4375 45.09375 
Q 46.96875 40.921875 40.578125 39.3125 
z
" id="DejaVuSans-51"/>
      </defs>
      <use xlink:href="#DejaVuSans-48"/>
      <use x="63.623047" xlink:href="#DejaVuSans-46"/>
      <use x="95.410156" xlink:href="#DejaVuSans-51"/>
     </g>
    </g>
   </g>
   <g id="xtick_9">
    <g id="line2d_12">
     <path d="M 271.077511 92.879014 
L 274.9383 93.889074 
" style="fill:none;stroke:#000000;stroke-linecap:square;stroke-width:0.8;"/>
    </g>
    <g id="text_9">
     <!-- 0.4 -->
     <g transform="translate(283.287125 98.383862)scale(0.1 -0.1)">
      <defs>
       <path d="M 37.796875 64.3125 
L 12.890625 25.390625 
L 37.796875 25.390625 
z
M 35.203125 72.90625 
L 47.609375 72.90625 
L 47.609375 25.390625 
L 58.015625 25.390625 
L 58.015625 17.1875 
L 47.609375 17.1875 
L 47.609375 0 
L 37.796875 0 
L 37.796875 17.1875 
L 4.890625 17.1875 
L 4.890625 26.703125 
z
" id="DejaVuSans-52"/>
      </defs>
      <use xlink:href="#DejaVuSans-48"/>
      <use x="63.623047" xlink:href="#DejaVuSans-46"/>
      <use x="95.410156" xlink:href="#DejaVuSans-52"/>
     </g>
    </g>
   </g>
   <g id="xtick_10">
    <g id="line2d_13">
     <path d="M 272.113512 70.011292 
L 276.008793 71.001651 
" style="fill:none;stroke:#000000;stroke-linecap:square;stroke-width:0.8;"/>
    </g>
    <g id="text_10">
     <!-- 0.5 -->
     <g transform="translate(284.493197 75.55704)scale(0.1 -0.1)">
      <defs>
       <path d="M 10.796875 72.90625 
L 49.515625 72.90625 
L 49.515625 64.59375 
L 19.828125 64.59375 
L 19.828125 46.734375 
Q 21.96875 47.46875 24.109375 47.828125 
Q 26.265625 48.1875 28.421875 48.1875 
Q 40.625 48.1875 47.75 41.5 
Q 54.890625 34.8125 54.890625 23.390625 
Q 54.890625 11.625 47.5625 5.09375 
Q 40.234375 -1.421875 26.90625 -1.421875 
Q 22.3125 -1.421875 17.546875 -0.640625 
Q 12.796875 0.140625 7.71875 1.703125 
L 7.71875 11.625 
Q 12.109375 9.234375 16.796875 8.0625 
Q 21.484375 6.890625 26.703125 6.890625 
Q 35.15625 6.890625 40.078125 11.328125 
Q 45.015625 15.765625 45.015625 23.390625 
Q 45.015625 31 40.078125 35.4375 
Q 35.15625 39.890625 26.703125 39.890625 
Q 22.75 39.890625 18.8125 39.015625 
Q 14.890625 38.140625 10.796875 36.28125 
z
" id="DejaVuSans-53"/>
      </defs>
      <use xlink:href="#DejaVuSans-48"/>
      <use x="63.623047" xlink:href="#DejaVuSans-46"/>
      <use x="95.410156" xlink:href="#DejaVuSans-53"/>
     </g>
    </g>
   </g>
  </g>
  <g id="axes_1">
   <g id="Poly3DCollection_1">
    <path clip-path="url(#p6923bf3af3)" d="M 111.228125 148.904419 
L 121.505767 140.279294 
L 138.570864 145.238187 
L 128.404463 153.962634 
z
" style="fill:#113f60;"/>
    <path clip-path="url(#p6923bf3af3)" d="M 138.570864 145.238187 
L 138.542985 139.123699 
L 155.844689 144.116181 
L 155.832054 150.254063 
z
" style="fill:#0d324b;"/>
    <path clip-path="url(#p6923bf3af3)" d="M 128.404463 153.962634 
L 128.352247 147.807541 
L 138.542985 139.123699 
L 138.570864 145.238187 
z
" style="fill:#1b699f;"/>
    <path clip-path="url(#p6923bf3af3)" d="M 128.404463 153.962634 
L 138.570864 145.238187 
L 155.832054 150.254063 
L 145.780156 159.079556 
z
" style="fill:#113f60;"/>
    <path clip-path="url(#p6923bf3af3)" d="M 111.228125 148.904419 
L 111.08752 139.566538 
L 128.324942 144.58891 
L 128.404463 153.962634 
z
" style="fill:#0d324b;"/>
    <path clip-path="url(#p6923bf3af3)" d="M 155.832054 150.254063 
L 155.846002 143.478055 
L 173.352452 148.525917 
L 173.292738 155.327909 
z
" style="fill:#0d324b;"/>
    <path clip-path="url(#p6923bf3af3)" d="M 128.352247 147.807541 
L 145.768993 152.900838 
L 155.844689 144.116181 
L 138.542985 139.123699 
z
" style="fill:#185b8a;"/>
    <path clip-path="url(#p6923bf3af3)" d="M 100.744194 157.702665 
L 100.56423 148.302573 
L 111.08752 139.566538 
L 111.228125 148.904419 
z
" style="fill:#1b699f;"/>
    <path clip-path="url(#p6923bf3af3)" d="M 145.780156 159.079556 
L 155.832054 150.254063 
L 155.844689 144.116181 
L 145.768993 152.900838 
z
" style="fill:#0d324b;"/>
    <path clip-path="url(#p6923bf3af3)" d="M 145.780156 159.079556 
L 145.767832 152.25845 
L 155.846002 143.478055 
L 155.832054 150.254063 
z
" style="fill:#1b699f;"/>
    <path clip-path="url(#p6923bf3af3)" d="M 100.744194 157.702665 
L 111.228125 148.904419 
L 128.404463 153.962634 
L 118.032815 162.863215 
z
" style="fill:#113f60;"/>
    <path clip-path="url(#p6923bf3af3)" d="M 128.404463 153.962634 
L 128.384864 151.652422 
L 145.775966 156.760497 
L 145.780156 159.079556 
z
" style="fill:#0d324b;"/>
    <path clip-path="url(#p6923bf3af3)" d="M 145.780156 159.079556 
L 155.832054 150.254063 
L 173.292738 155.327909 
L 163.358696 164.256214 
z
" style="fill:#113f60;"/>
    <path clip-path="url(#p6923bf3af3)" d="M 128.404463 153.962634 
L 145.780156 159.079556 
L 145.768993 152.900838 
L 128.352247 147.807541 
z
" style="fill:#1b699f;"/>
    <path clip-path="url(#p6923bf3af3)" d="M 121.505767 140.279294 
L 120.474276 47.161469 
L 138.144591 51.747 
L 138.570864 145.238187 
z
" style="fill:#0d324b;"/>
    <path clip-path="url(#p6923bf3af3)" d="M 118.032815 162.863215 
L 118.003714 160.537648 
L 128.384864 151.652422 
L 128.404463 153.962634 
z
" style="fill:#1b699f;"/>
    <path clip-path="url(#p6923bf3af3)" d="M 100.56423 148.302573 
L 117.914734 153.426926 
L 128.324942 144.58891 
L 111.08752 139.566538 
z
" style="fill:#185b8a;"/>
    <path clip-path="url(#p6923bf3af3)" d="M 173.292738 155.327909 
L 173.365682 147.018887 
L 191.086547 152.119765 
L 190.956394 160.460736 
z
" style="fill:#0d324b;"/>
    <path clip-path="url(#p6923bf3af3)" d="M 145.767832 152.25845 
L 163.392759 157.408869 
L 173.352452 148.525917 
L 155.846002 143.478055 
z
" style="fill:#185b8a;"/>
    <path clip-path="url(#p6923bf3af3)" d="M 118.032815 162.863215 
L 128.404463 153.962634 
L 128.324942 144.58891 
L 117.914734 153.426926 
z
" style="fill:#0d324b;"/>
    <path clip-path="url(#p6923bf3af3)" d="M 111.228125 148.904419 
L 109.816239 55.138396 
L 120.474276 47.161469 
L 121.505767 140.279294 
z
" style="fill:#1b699f;"/>
    <path clip-path="url(#p6923bf3af3)" d="M 100.744194 157.702665 
L 100.669368 153.794272 
L 117.98372 158.93982 
L 118.032815 162.863215 
z
" style="fill:#0d324b;"/>
    <path clip-path="url(#p6923bf3af3)" d="M 163.358696 164.256214 
L 173.292738 155.327909 
L 173.352452 148.525917 
L 163.392759 157.408869 
z
" style="fill:#0d324b;"/>
    <path clip-path="url(#p6923bf3af3)" d="M 118.032815 162.863215 
L 128.404463 153.962634 
L 145.780156 159.079556 
L 135.524133 168.084269 
z
" style="fill:#113f60;"/>
    <path clip-path="url(#p6923bf3af3)" d="M 163.358696 164.256214 
L 163.400307 155.891741 
L 173.365682 147.018887 
L 173.292738 155.327909 
z
" style="fill:#1b699f;"/>
    <path clip-path="url(#p6923bf3af3)" d="M 118.003714 160.537648 
L 135.510645 165.749768 
L 145.775966 156.760497 
L 128.384864 151.652422 
z
" style="fill:#185b8a;"/>
    <path clip-path="url(#p6923bf3af3)" d="M 100.744194 157.702665 
L 118.032815 162.863215 
L 117.914734 153.426926 
L 100.56423 148.302573 
z
" style="fill:#1b699f;"/>
    <path clip-path="url(#p6923bf3af3)" d="M 145.780156 159.079556 
L 145.777217 157.453126 
L 163.366818 162.623547 
L 163.358696 164.256214 
z
" style="fill:#0d324b;"/>
    <path clip-path="url(#p6923bf3af3)" d="M 163.358696 164.256214 
L 173.292738 155.327909 
L 190.956394 160.460736 
L 181.143656 169.493661 
z
" style="fill:#113f60;"/>
    <path clip-path="url(#p6923bf3af3)" d="M 145.780156 159.079556 
L 163.358696 164.256214 
L 163.392759 157.408869 
L 145.767832 152.25845 
z
" style="fill:#1b699f;"/>
    <path clip-path="url(#p6923bf3af3)" d="M 90.0477 166.679297 
L 89.955855 162.744867 
L 100.669368 153.794272 
L 100.744194 157.702665 
z
" style="fill:#1b699f;"/>
    <path clip-path="url(#p6923bf3af3)" d="M 135.524133 168.084269 
L 135.514674 166.447013 
L 145.777217 157.453126 
L 145.780156 159.079556 
z
" style="fill:#1b699f;"/>
    <path clip-path="url(#p6923bf3af3)" d="M 190.956394 160.460736 
L 191.038275 155.21332 
L 208.945295 160.385986 
L 208.826581 165.653578 
z
" style="fill:#0d324b;"/>
    <path clip-path="url(#p6923bf3af3)" d="M 135.524133 168.084269 
L 145.780156 159.079556 
L 145.775966 156.760497 
L 135.510645 165.749768 
z
" style="fill:#0d324b;"/>
    <path clip-path="url(#p6923bf3af3)" d="M 90.0477 166.679297 
L 100.744194 157.702665 
L 118.032815 162.863215 
L 107.449643 171.94532 
z
" style="fill:#113f60;"/>
    <path clip-path="url(#p6923bf3af3)" d="M 163.400307 155.891741 
L 181.243269 161.096926 
L 191.086547 152.119765 
L 173.365682 147.018887 
z
" style="fill:#185b8a;"/>
    <path clip-path="url(#p6923bf3af3)" d="M 128.404463 153.962634 
L 138.570864 145.238187 
L 138.144591 51.747 
L 127.605815 59.819102 
z
" style="fill:#0d324b;"/>
    <path clip-path="url(#p6923bf3af3)" d="M 118.032815 162.863215 
L 118.028251 162.498472 
L 135.522018 167.718126 
L 135.524133 168.084269 
z
" style="fill:#0d324b;"/>
    <path clip-path="url(#p6923bf3af3)" d="M 118.032815 162.863215 
L 135.524133 168.084269 
L 135.510645 165.749768 
L 118.003714 160.537648 
z
" style="fill:#1b699f;"/>
    <path clip-path="url(#p6923bf3af3)" d="M 181.143656 169.493661 
L 181.206323 164.211228 
L 191.038275 155.21332 
L 190.956394 160.460736 
z
" style="fill:#1b699f;"/>
    <path clip-path="url(#p6923bf3af3)" d="M 89.955855 162.744867 
L 107.383864 167.995743 
L 117.98372 158.93982 
L 100.669368 153.794272 
z
" style="fill:#185b8a;"/>
    <path clip-path="url(#p6923bf3af3)" d="M 135.524133 168.084269 
L 145.780156 159.079556 
L 163.358696 164.256214 
L 153.221733 173.366896 
z
" style="fill:#113f60;"/>
    <path clip-path="url(#p6923bf3af3)" d="M 181.143656 169.493661 
L 190.956394 160.460736 
L 191.086547 152.119765 
L 181.243269 161.096926 
z
" style="fill:#0d324b;"/>
    <path clip-path="url(#p6923bf3af3)" d="M 135.514674 166.447013 
L 153.223484 171.723343 
L 163.366818 162.623547 
L 145.777217 157.453126 
z
" style="fill:#185b8a;"/>
    <path clip-path="url(#p6923bf3af3)" d="M 163.358696 164.256214 
L 163.363354 163.319898 
L 181.154806 168.553748 
L 181.143656 169.493661 
z
" style="fill:#0d324b;"/>
    <path clip-path="url(#p6923bf3af3)" d="M 111.228125 148.904419 
L 128.404463 153.962634 
L 127.605815 59.819102 
L 109.816239 55.138396 
z
" style="fill:#1b699f;"/>
    <path clip-path="url(#p6923bf3af3)" d="M 107.449643 171.94532 
L 107.443528 171.578148 
L 118.028251 162.498472 
L 118.032815 162.863215 
z
" style="fill:#1b699f;"/>
    <path clip-path="url(#p6923bf3af3)" d="M 181.143656 169.493661 
L 190.956394 160.460736 
L 208.826581 165.653578 
L 199.138693 174.792972 
z
" style="fill:#113f60;"/>
    <path clip-path="url(#p6923bf3af3)" d="M 107.449643 171.94532 
L 118.032815 162.863215 
L 117.98372 158.93982 
L 107.383864 167.995743 
z
" style="fill:#0d324b;"/>
    <path clip-path="url(#p6923bf3af3)" d="M 163.358696 164.256214 
L 181.143656 169.493661 
L 181.243269 161.096926 
L 163.400307 155.891741 
z
" style="fill:#1b699f;"/>
    <path clip-path="url(#p6923bf3af3)" d="M 208.826581 165.653578 
L 208.892906 162.710608 
L 226.994329 167.953205 
L 226.906944 170.907494 
z
" style="fill:#0d324b;"/>
    <path clip-path="url(#p6923bf3af3)" d="M 153.221733 173.366896 
L 153.222737 172.424339 
L 163.363354 163.319898 
L 163.358696 164.256214 
z
" style="fill:#1b699f;"/>
    <path clip-path="url(#p6923bf3af3)" d="M 153.221733 173.366896 
L 163.358696 164.256214 
L 163.366818 162.623547 
L 153.223484 171.723343 
z
" style="fill:#0d324b;"/>
    <path clip-path="url(#p6923bf3af3)" d="M 181.206323 164.211228 
L 199.238713 169.490167 
L 208.945295 160.385986 
L 191.038275 155.21332 
z
" style="fill:#185b8a;"/>
    <path clip-path="url(#p6923bf3af3)" d="M 90.0477 166.679297 
L 107.449643 171.94532 
L 107.383864 167.995743 
L 89.955855 162.744867 
z
" style="fill:#1b699f;"/>
    <path clip-path="url(#p6923bf3af3)" d="M 90.0477 166.679297 
L 89.949886 162.489177 
L 107.379589 167.739066 
L 107.449643 171.94532 
z
" style="fill:#0d324b;"/>
    <path clip-path="url(#p6923bf3af3)" d="M 107.449643 171.94532 
L 118.032815 162.863215 
L 135.524133 168.084269 
L 125.057704 177.273716 
z
" style="fill:#113f60;"/>
    <path clip-path="url(#p6923bf3af3)" d="M 107.443528 171.578148 
L 125.054071 176.905131 
L 135.522018 167.718126 
L 118.028251 162.498472 
z
" style="fill:#185b8a;"/>
    <path clip-path="url(#p6923bf3af3)" d="M 199.138693 174.792972 
L 199.194573 171.830356 
L 208.892906 162.710608 
L 208.826581 165.653578 
z
" style="fill:#1b699f;"/>
    <path clip-path="url(#p6923bf3af3)" d="M 135.524133 168.084269 
L 135.515421 166.576308 
L 153.223346 171.853136 
L 153.221733 173.366896 
z
" style="fill:#0d324b;"/>
    <path clip-path="url(#p6923bf3af3)" d="M 135.524133 168.084269 
L 153.221733 173.366896 
L 153.223484 171.723343 
L 135.514674 166.447013 
z
" style="fill:#1b699f;"/>
    <path clip-path="url(#p6923bf3af3)" d="M 199.138693 174.792972 
L 208.826581 165.653578 
L 208.945295 160.385986 
L 199.238713 169.490167 
z
" style="fill:#0d324b;"/>
    <path clip-path="url(#p6923bf3af3)" d="M 153.221733 173.366896 
L 163.358696 164.256214 
L 181.143656 169.493661 
L 171.129285 178.712194 
z
" style="fill:#113f60;"/>
    <path clip-path="url(#p6923bf3af3)" d="M 153.222737 172.424339 
L 171.136873 177.766007 
L 181.154806 168.553748 
L 163.363354 163.319898 
z
" style="fill:#185b8a;"/>
    <path clip-path="url(#p6923bf3af3)" d="M 79.13211 175.839797 
L 79.015442 171.621675 
L 89.949886 162.489177 
L 90.0477 166.679297 
z
" style="fill:#1b699f;"/>
    <path clip-path="url(#p6923bf3af3)" d="M 181.143656 169.493661 
L 181.170877 167.199096 
L 199.182139 172.489574 
L 199.138693 174.792972 
z
" style="fill:#0d324b;"/>
    <path clip-path="url(#p6923bf3af3)" d="M 125.057704 177.273716 
L 135.524133 168.084269 
L 135.522018 167.718126 
L 125.054071 176.905131 
z
" style="fill:#0d324b;"/>
    <path clip-path="url(#p6923bf3af3)" d="M 199.138693 174.792972 
L 208.826581 165.653578 
L 226.906944 170.907494 
L 217.347551 180.155251 
z
" style="fill:#113f60;"/>
    <path clip-path="url(#p6923bf3af3)" d="M 125.057704 177.273716 
L 125.042739 175.75569 
L 135.515421 166.576308 
L 135.524133 168.084269 
z
" style="fill:#1b699f;"/>
    <path clip-path="url(#p6923bf3af3)" d="M 181.143656 169.493661 
L 199.138693 174.792972 
L 199.238713 169.490167 
L 181.206323 164.211228 
z
" style="fill:#1b699f;"/>
    <path clip-path="url(#p6923bf3af3)" d="M 199.194573 171.830356 
L 217.424795 177.181207 
L 226.994329 167.953205 
L 208.892906 162.710608 
z
" style="fill:#185b8a;"/>
    <path clip-path="url(#p6923bf3af3)" d="M 79.13211 175.839797 
L 90.0477 166.679297 
L 107.449643 171.94532 
L 96.648408 181.214559 
z
" style="fill:#113f60;"/>
    <path clip-path="url(#p6923bf3af3)" d="M 171.129285 178.712194 
L 181.143656 169.493661 
L 181.154806 168.553748 
L 171.136873 177.766007 
z
" style="fill:#0d324b;"/>
    <path clip-path="url(#p6923bf3af3)" d="M 171.129285 178.712194 
L 171.147808 176.402299 
L 181.170877 167.199096 
L 181.143656 169.493661 
z
" style="fill:#1b699f;"/>
    <path clip-path="url(#p6923bf3af3)" d="M 226.906944 170.907494 
L 227.078561 165.10553 
L 245.415164 170.399213 
L 245.201212 176.223568 
z
" style="fill:#0d324b;"/>
    <path clip-path="url(#p6923bf3af3)" d="M 107.449643 171.94532 
L 125.057704 177.273716 
L 125.054071 176.905131 
L 107.443528 171.578148 
z
" style="fill:#1b699f;"/>
    <path clip-path="url(#p6923bf3af3)" d="M 107.449643 171.94532 
L 107.418005 170.04565 
L 125.038905 175.366729 
L 125.057704 177.273716 
z
" style="fill:#0d324b;"/>
    <path clip-path="url(#p6923bf3af3)" d="M 125.057704 177.273716 
L 135.524133 168.084269 
L 153.221733 173.366896 
L 142.875567 182.665601 
z
" style="fill:#113f60;"/>
    <path clip-path="url(#p6923bf3af3)" d="M 79.015442 171.621675 
L 96.559862 176.980148 
L 107.379589 167.739066 
L 89.949886 162.489177 
z
" style="fill:#185b8a;"/>
    <path clip-path="url(#p6923bf3af3)" d="M 125.042739 175.75569 
L 142.871068 181.14172 
L 153.223346 171.853136 
L 135.515421 166.576308 
z
" style="fill:#185b8a;"/>
    <path clip-path="url(#p6923bf3af3)" d="M 217.347551 180.155251 
L 226.906944 170.907494 
L 226.994329 167.953205 
L 217.424795 177.181207 
z
" style="fill:#0d324b;"/>
    <path clip-path="url(#p6923bf3af3)" d="M 153.221733 173.366896 
L 153.222077 173.044289 
L 171.131882 178.388344 
L 171.129285 178.712194 
z
" style="fill:#0d324b;"/>
    <path clip-path="url(#p6923bf3af3)" d="M 153.221733 173.366896 
L 171.129285 178.712194 
L 171.136873 177.766007 
L 153.222737 172.424339 
z
" style="fill:#1b699f;"/>
    <path clip-path="url(#p6923bf3af3)" d="M 217.347551 180.155251 
L 217.499254 174.314425 
L 227.078561 165.10553 
L 226.906944 170.907494 
z
" style="fill:#1b699f;"/>
    <path clip-path="url(#p6923bf3af3)" d="M 171.129285 178.712194 
L 181.143656 169.493661 
L 199.138693 174.792972 
L 189.25055 184.121283 
z
" style="fill:#113f60;"/>
    <path clip-path="url(#p6923bf3af3)" d="M 96.648408 181.214559 
L 96.608418 179.30219 
L 107.418005 170.04565 
L 107.449643 171.94532 
z
" style="fill:#1b699f;"/>
    <path clip-path="url(#p6923bf3af3)" d="M 96.648408 181.214559 
L 107.449643 171.94532 
L 107.379589 167.739066 
L 96.559862 176.980148 
z
" style="fill:#0d324b;"/>
    <path clip-path="url(#p6923bf3af3)" d="M 199.138693 174.792972 
L 199.150361 174.174345 
L 217.363681 179.534241 
L 217.347551 180.155251 
z
" style="fill:#0d324b;"/>
    <path clip-path="url(#p6923bf3af3)" d="M 171.147808 176.402299 
L 189.285527 181.80247 
L 199.182139 172.489574 
L 181.170877 167.199096 
z
" style="fill:#185b8a;"/>
    <path clip-path="url(#p6923bf3af3)" d="M 199.138693 174.792972 
L 217.347551 180.155251 
L 217.424795 177.181207 
L 199.194573 171.830356 
z
" style="fill:#1b699f;"/>
    <path clip-path="url(#p6923bf3af3)" d="M 142.875567 182.665601 
L 142.874609 182.340838 
L 153.222077 173.044289 
L 153.221733 173.366896 
z
" style="fill:#1b699f;"/>
    <path clip-path="url(#p6923bf3af3)" d="M 217.347551 180.155251 
L 226.906944 170.907494 
L 245.201212 176.223568 
L 235.774065 185.581627 
z
" style="fill:#113f60;"/>
    <path clip-path="url(#p6923bf3af3)" d="M 142.875567 182.665601 
L 153.221733 173.366896 
L 153.223346 171.853136 
L 142.871068 181.14172 
z
" style="fill:#0d324b;"/>
    <path clip-path="url(#p6923bf3af3)" d="M 109.816239 55.138396 
L 127.605815 59.819102 
L 138.144591 51.747 
L 120.474276 47.161469 
z
" style="fill:#185b8a;"/>
    <path clip-path="url(#p6923bf3af3)" d="M 79.13211 175.839797 
L 96.648408 181.214559 
L 96.559862 176.980148 
L 79.015442 171.621675 
z
" style="fill:#1b699f;"/>
    <path clip-path="url(#p6923bf3af3)" d="M 96.648408 181.214559 
L 107.449643 171.94532 
L 125.057704 177.273716 
L 114.374328 186.653642 
z
" style="fill:#113f60;"/>
    <path clip-path="url(#p6923bf3af3)" d="M 189.25055 184.121283 
L 189.259944 183.49852 
L 199.150361 174.174345 
L 199.138693 174.792972 
z
" style="fill:#1b699f;"/>
    <path clip-path="url(#p6923bf3af3)" d="M 189.25055 184.121283 
L 199.138693 174.792972 
L 199.182139 172.489574 
L 189.285527 181.80247 
z
" style="fill:#0d324b;"/>
    <path clip-path="url(#p6923bf3af3)" d="M 79.13211 175.839797 
L 78.917618 168.084873 
L 96.485616 173.429626 
L 96.648408 181.214559 
z
" style="fill:#0d324b;"/>
    <path clip-path="url(#p6923bf3af3)" d="M 96.608418 179.30219 
L 114.347348 184.733888 
L 125.038905 175.366729 
L 107.418005 170.04565 
z
" style="fill:#185b8a;"/>
    <path clip-path="url(#p6923bf3af3)" d="M 125.057704 177.273716 
L 142.875567 182.665601 
L 142.871068 181.14172 
L 125.042739 175.75569 
z
" style="fill:#1b699f;"/>
    <path clip-path="url(#p6923bf3af3)" d="M 217.499254 174.314425 
L 235.968725 179.718196 
L 245.415164 170.399213 
L 227.078561 165.10553 
z
" style="fill:#185b8a;"/>
    <path clip-path="url(#p6923bf3af3)" d="M 125.057704 177.273716 
L 125.018642 173.31134 
L 142.863824 178.687919 
L 142.875567 182.665601 
z
" style="fill:#0d324b;"/>
    <path clip-path="url(#p6923bf3af3)" d="M 142.875567 182.665601 
L 153.221733 173.366896 
L 171.129285 178.712194 
L 160.907005 188.122115 
z
" style="fill:#113f60;"/>
    <path clip-path="url(#p6923bf3af3)" d="M 142.874609 182.340838 
L 160.90833 187.796098 
L 171.131882 178.388344 
L 153.222077 173.044289 
z
" style="fill:#185b8a;"/>
    <path clip-path="url(#p6923bf3af3)" d="M 171.129285 178.712194 
L 171.141158 177.231624 
L 189.272969 182.635001 
L 189.25055 184.121283 
z
" style="fill:#0d324b;"/>
    <path clip-path="url(#p6923bf3af3)" d="M 171.129285 178.712194 
L 189.25055 184.121283 
L 189.285527 181.80247 
L 171.147808 176.402299 
z
" style="fill:#1b699f;"/>
    <path clip-path="url(#p6923bf3af3)" d="M 67.990626 185.18987 
L 67.74006 177.382865 
L 78.917618 168.084873 
L 79.13211 175.839797 
z
" style="fill:#1b699f;"/>
    <path clip-path="url(#p6923bf3af3)" d="M 235.774065 185.581627 
L 245.201212 176.223568 
L 245.415164 170.399213 
L 235.968725 179.718196 
z
" style="fill:#0d324b;"/>
    <path clip-path="url(#p6923bf3af3)" d="M 189.25055 184.121283 
L 199.138693 174.792972 
L 217.347551 180.155251 
L 207.589374 189.595312 
z
" style="fill:#113f60;"/>
    <path clip-path="url(#p6923bf3af3)" d="M 114.374328 186.653642 
L 125.057704 177.273716 
L 125.038905 175.366729 
L 114.347348 184.733888 
z
" style="fill:#0d324b;"/>
    <path clip-path="url(#p6923bf3af3)" d="M 189.259944 183.49852 
L 207.603293 188.970144 
L 217.363681 179.534241 
L 199.150361 174.174345 
z
" style="fill:#185b8a;"/>
    <path clip-path="url(#p6923bf3af3)" d="M 114.374328 186.653642 
L 114.318268 182.664704 
L 125.018642 173.31134 
L 125.057704 177.273716 
z
" style="fill:#1b699f;"/>
    <path clip-path="url(#p6923bf3af3)" d="M 67.990626 185.18987 
L 79.13211 175.839797 
L 96.648408 181.214559 
L 85.6223 190.676775 
z
" style="fill:#113f60;"/>
    <path clip-path="url(#p6923bf3af3)" d="M 160.907005 188.122115 
L 171.129285 178.712194 
L 171.131882 178.388344 
L 160.90833 187.796098 
z
" style="fill:#0d324b;"/>
    <path clip-path="url(#p6923bf3af3)" d="M 217.347551 180.155251 
L 217.448349 176.274362 
L 235.903405 181.685736 
L 235.774065 185.581627 
z
" style="fill:#0d324b;"/>
    <path clip-path="url(#p6923bf3af3)" d="M 235.774065 185.581627 
L 245.201212 176.223568 
L 263.713203 181.60291 
L 254.42216 191.073256 
z
" style="fill:#113f60;"/>
    <path clip-path="url(#p6923bf3af3)" d="M 160.907005 188.122115 
L 160.913065 186.631631 
L 171.141158 177.231624 
L 171.129285 178.712194 
z
" style="fill:#1b699f;"/>
    <path clip-path="url(#p6923bf3af3)" d="M 217.347551 180.155251 
L 235.774065 185.581627 
L 235.968725 179.718196 
L 217.499254 174.314425 
z
" style="fill:#1b699f;"/>
    <path clip-path="url(#p6923bf3af3)" d="M 96.648408 181.214559 
L 96.639249 180.776572 
L 114.368149 186.213965 
L 114.374328 186.653642 
z
" style="fill:#0d324b;"/>
    <path clip-path="url(#p6923bf3af3)" d="M 96.648408 181.214559 
L 114.374328 186.653642 
L 114.347348 184.733888 
L 96.608418 179.30219 
z
" style="fill:#1b699f;"/>
    <path clip-path="url(#p6923bf3af3)" d="M 114.374328 186.653642 
L 125.057704 177.273716 
L 142.875567 182.665601 
L 132.313656 192.158208 
z
" style="fill:#113f60;"/>
    <path clip-path="url(#p6923bf3af3)" d="M 207.589374 189.595312 
L 217.347551 180.155251 
L 217.363681 179.534241 
L 207.603293 188.970144 
z
" style="fill:#0d324b;"/>
    <path clip-path="url(#p6923bf3af3)" d="M 142.875567 182.665601 
L 160.907005 188.122115 
L 160.90833 187.796098 
L 142.874609 182.340838 
z
" style="fill:#1b699f;"/>
    <path clip-path="url(#p6923bf3af3)" d="M 207.589374 189.595312 
L 207.676361 185.688387 
L 217.448349 176.274362 
L 217.347551 180.155251 
z
" style="fill:#1b699f;"/>
    <path clip-path="url(#p6923bf3af3)" d="M 142.875567 182.665601 
L 142.87123 181.196403 
L 160.913001 186.647242 
L 160.907005 188.122115 
z
" style="fill:#0d324b;"/>
    <path clip-path="url(#p6923bf3af3)" d="M 67.74006 177.382865 
L 85.42411 182.839475 
L 96.485616 173.429626 
L 78.917618 168.084873 
z
" style="fill:#185b8a;"/>
    <path clip-path="url(#p6923bf3af3)" d="M 85.6223 190.676775 
L 85.61115 190.235855 
L 96.639249 180.776572 
L 96.648408 181.214559 
z
" style="fill:#1b699f;"/>
    <path clip-path="url(#p6923bf3af3)" d="M 114.318268 182.664704 
L 132.285288 188.153821 
L 142.863824 178.687919 
L 125.018642 173.31134 
z
" style="fill:#185b8a;"/>
    <path clip-path="url(#p6923bf3af3)" d="M 160.907005 188.122115 
L 171.129285 178.712194 
L 189.25055 184.121283 
L 179.155879 193.644428 
z
" style="fill:#113f60;"/>
    <path clip-path="url(#p6923bf3af3)" d="M 160.913065 186.631631 
L 179.172636 192.148179 
L 189.272969 182.635001 
L 171.141158 177.231624 
z
" style="fill:#185b8a;"/>
    <path clip-path="url(#p6923bf3af3)" d="M 189.25055 184.121283 
L 207.589374 189.595312 
L 207.603293 188.970144 
L 189.259944 183.49852 
z
" style="fill:#1b699f;"/>
    <path clip-path="url(#p6923bf3af3)" d="M 189.25055 184.121283 
L 189.272328 182.677527 
L 207.621643 188.145977 
L 207.589374 189.595312 
z
" style="fill:#0d324b;"/>
    <path clip-path="url(#p6923bf3af3)" d="M 85.6223 190.676775 
L 96.648408 181.214559 
L 96.485616 173.429626 
L 85.42411 182.839475 
z
" style="fill:#0d324b;"/>
    <path clip-path="url(#p6923bf3af3)" d="M 207.589374 189.595312 
L 217.347551 180.155251 
L 235.774065 185.581627 
L 226.1497 195.135458 
z
" style="fill:#113f60;"/>
    <path clip-path="url(#p6923bf3af3)" d="M 132.313656 192.158208 
L 132.303178 190.679161 
L 142.87123 181.196403 
L 142.875567 182.665601 
z
" style="fill:#1b699f;"/>
    <path clip-path="url(#p6923bf3af3)" d="M 132.313656 192.158208 
L 142.875567 182.665601 
L 142.863824 178.687919 
L 132.285288 188.153821 
z
" style="fill:#0d324b;"/>
    <path clip-path="url(#p6923bf3af3)" d="M 67.990626 185.18987 
L 67.905676 182.543041 
L 85.555108 188.019707 
L 85.6223 190.676775 
z
" style="fill:#0d324b;"/>
    <path clip-path="url(#p6923bf3af3)" d="M 85.6223 190.676775 
L 96.648408 181.214559 
L 114.374328 186.653642 
L 103.467188 196.230031 
z
" style="fill:#113f60;"/>
    <path clip-path="url(#p6923bf3af3)" d="M 85.61115 190.235855 
L 103.459057 195.787405 
L 114.368149 186.213965 
L 96.639249 180.776572 
z
" style="fill:#185b8a;"/>
    <path clip-path="url(#p6923bf3af3)" d="M 207.676361 185.688387 
L 226.265649 191.213391 
L 235.903405 181.685736 
L 217.448349 176.274362 
z
" style="fill:#185b8a;"/>
    <path clip-path="url(#p6923bf3af3)" d="M 179.155879 193.644428 
L 179.172156 192.19099 
L 189.272328 182.677527 
L 189.25055 184.121283 
z
" style="fill:#1b699f;"/>
    <path clip-path="url(#p6923bf3af3)" d="M 179.155879 193.644428 
L 189.25055 184.121283 
L 189.272969 182.635001 
L 179.172636 192.148179 
z
" style="fill:#0d324b;"/>
    <path clip-path="url(#p6923bf3af3)" d="M 67.990626 185.18987 
L 85.6223 190.676775 
L 85.42411 182.839475 
L 67.74006 177.382865 
z
" style="fill:#1b699f;"/>
    <path clip-path="url(#p6923bf3af3)" d="M 235.774065 185.581627 
L 235.968725 179.718196 
L 254.660804 185.187097 
L 254.42216 191.073256 
z
" style="fill:#0d324b;"/>
    <path clip-path="url(#p6923bf3af3)" d="M 114.374328 186.653642 
L 114.354238 185.224157 
L 132.30349 190.723196 
L 132.313656 192.158208 
z
" style="fill:#0d324b;"/>
    <path clip-path="url(#p6923bf3af3)" d="M 114.374328 186.653642 
L 132.313656 192.158208 
L 132.285288 188.153821 
L 114.318268 182.664704 
z
" style="fill:#1b699f;"/>
    <path clip-path="url(#p6923bf3af3)" d="M 132.313656 192.158208 
L 142.875567 182.665601 
L 160.907005 188.122115 
L 150.47027 197.729447 
z
" style="fill:#113f60;"/>
    <path clip-path="url(#p6923bf3af3)" d="M 56.616159 194.735465 
L 56.518482 192.070867 
L 67.905676 182.543041 
L 67.990626 185.18987 
z
" style="fill:#1b699f;"/>
    <path clip-path="url(#p6923bf3af3)" d="M 132.303178 190.679161 
L 150.47027 196.244673 
L 160.913001 186.647242 
L 142.87123 181.196403 
z
" style="fill:#185b8a;"/>
    <path clip-path="url(#p6923bf3af3)" d="M 226.1497 195.135458 
L 235.774065 185.581627 
L 235.903405 181.685736 
L 226.265649 191.213391 
z
" style="fill:#0d324b;"/>
    <path clip-path="url(#p6923bf3af3)" d="M 160.907005 188.122115 
L 179.155879 193.644428 
L 179.172636 192.148179 
L 160.913065 186.631631 
z
" style="fill:#1b699f;"/>
    <path clip-path="url(#p6923bf3af3)" d="M 226.1497 195.135458 
L 226.324208 189.232584 
L 235.968725 179.718196 
L 235.774065 185.581627 
z
" style="fill:#1b699f;"/>
    <path clip-path="url(#p6923bf3af3)" d="M 103.467188 196.230031 
L 114.374328 186.653642 
L 114.368149 186.213965 
L 103.459057 195.787405 
z
" style="fill:#0d324b;"/>
    <path clip-path="url(#p6923bf3af3)" d="M 179.155879 193.644428 
L 189.25055 184.121283 
L 207.589374 189.595312 
L 197.626147 199.233738 
z
" style="fill:#113f60;"/>
    <path clip-path="url(#p6923bf3af3)" d="M 103.467188 196.230031 
L 103.440754 194.790953 
L 114.354238 185.224157 
L 114.374328 186.653642 
z
" style="fill:#1b699f;"/>
    <path clip-path="url(#p6923bf3af3)" d="M 160.907005 188.122115 
L 160.925781 183.503948 
L 179.207799 189.008362 
L 179.155879 193.644428 
z
" style="fill:#0d324b;"/>
    <path clip-path="url(#p6923bf3af3)" d="M 179.172156 192.19099 
L 197.653068 197.774669 
L 207.621643 188.145977 
L 189.272328 182.677527 
z
" style="fill:#185b8a;"/>
    <path clip-path="url(#p6923bf3af3)" d="M 207.589374 189.595312 
L 207.603293 188.970144 
L 226.168254 194.507872 
L 226.1497 195.135458 
z
" style="fill:#0d324b;"/>
    <path clip-path="url(#p6923bf3af3)" d="M 56.616159 194.735465 
L 67.990626 185.18987 
L 85.6223 190.676775 
L 74.364224 200.338059 
z
" style="fill:#113f60;"/>
    <path clip-path="url(#p6923bf3af3)" d="M 207.589374 189.595312 
L 226.1497 195.135458 
L 226.265649 191.213391 
L 207.676361 185.688387 
z
" style="fill:#1b699f;"/>
    <path clip-path="url(#p6923bf3af3)" d="M 226.1497 195.135458 
L 235.774065 185.581627 
L 254.42216 191.073256 
L 244.935565 200.742927 
z
" style="fill:#113f60;"/>
    <path clip-path="url(#p6923bf3af3)" d="M 150.47027 197.729447 
L 160.907005 188.122115 
L 160.913001 186.647242 
L 150.47027 196.244673 
z
" style="fill:#0d324b;"/>
    <path clip-path="url(#p6923bf3af3)" d="M 85.6223 190.676775 
L 103.467188 196.230031 
L 103.459057 195.787405 
L 85.61115 190.235855 
z
" style="fill:#1b699f;"/>
    <path clip-path="url(#p6923bf3af3)" d="M 85.6223 190.676775 
L 85.593294 189.529752 
L 103.446037 195.078568 
L 103.467188 196.230031 
z
" style="fill:#0d324b;"/>
    <path clip-path="url(#p6923bf3af3)" d="M 56.518482 192.070867 
L 74.284536 197.663128 
L 85.555108 188.019707 
L 67.905676 182.543041 
z
" style="fill:#185b8a;"/>
    <path clip-path="url(#p6923bf3af3)" d="M 150.47027 197.729447 
L 150.47027 193.080216 
L 160.925781 183.503948 
L 160.907005 188.122115 
z
" style="fill:#1b699f;"/>
    <path clip-path="url(#p6923bf3af3)" d="M 103.467188 196.230031 
L 114.374328 186.653642 
L 132.313656 192.158208 
L 121.52918 201.850849 
z
" style="fill:#113f60;"/>
    <path clip-path="url(#p6923bf3af3)" d="M 197.626147 199.233738 
L 197.637759 198.604373 
L 207.603293 188.970144 
L 207.589374 189.595312 
z
" style="fill:#1b699f;"/>
    <path clip-path="url(#p6923bf3af3)" d="M 197.626147 199.233738 
L 207.589374 189.595312 
L 207.621643 188.145977 
L 197.653068 197.774669 
z
" style="fill:#0d324b;"/>
    <path clip-path="url(#p6923bf3af3)" d="M 103.440754 194.790953 
L 121.512805 200.406192 
L 132.30349 190.723196 
L 114.354238 185.224157 
z
" style="fill:#185b8a;"/>
    <path clip-path="url(#p6923bf3af3)" d="M 132.313656 192.158208 
L 132.303284 190.694045 
L 150.47027 196.259614 
L 150.47027 197.729447 
z
" style="fill:#0d324b;"/>
    <path clip-path="url(#p6923bf3af3)" d="M 132.313656 192.158208 
L 150.47027 197.729447 
L 150.47027 196.244673 
L 132.303178 190.679161 
z
" style="fill:#1b699f;"/>
    <path clip-path="url(#p6923bf3af3)" d="M 226.324208 189.232584 
L 245.154718 194.817113 
L 254.660804 185.187097 
L 235.968725 179.718196 
z
" style="fill:#185b8a;"/>
    <path clip-path="url(#p6923bf3af3)" d="M 74.364224 200.338059 
L 74.329824 199.183332 
L 85.593294 189.529752 
L 85.6223 190.676775 
z
" style="fill:#1b699f;"/>
    <path clip-path="url(#p6923bf3af3)" d="M 150.47027 197.729447 
L 160.907005 188.122115 
L 179.155879 193.644428 
L 168.848141 203.368578 
z
" style="fill:#113f60;"/>
    <path clip-path="url(#p6923bf3af3)" d="M 245.201212 176.223568 
L 248.742479 79.820926 
L 267.972631 84.807372 
L 263.713203 181.60291 
z
" style="fill:#0d324b;"/>
    <path clip-path="url(#p6923bf3af3)" d="M 74.364224 200.338059 
L 85.6223 190.676775 
L 85.555108 188.019707 
L 74.284536 197.663128 
z
" style="fill:#0d324b;"/>
    <path clip-path="url(#p6923bf3af3)" d="M 179.155879 193.644428 
L 197.626147 199.233738 
L 197.653068 197.774669 
L 179.172156 192.19099 
z
" style="fill:#1b699f;"/>
    <path clip-path="url(#p6923bf3af3)" d="M 179.155879 193.644428 
L 179.172636 192.148179 
L 197.653861 197.731692 
L 197.626147 199.233738 
z
" style="fill:#0d324b;"/>
    <path clip-path="url(#p6923bf3af3)" d="M 244.935565 200.742927 
L 254.42216 191.073256 
L 254.660804 185.187097 
L 245.154718 194.817113 
z
" style="fill:#0d324b;"/>
    <path clip-path="url(#p6923bf3af3)" d="M 197.626147 199.233738 
L 207.589374 189.595312 
L 226.1497 195.135458 
L 216.321863 204.891271 
z
" style="fill:#113f60;"/>
    <path clip-path="url(#p6923bf3af3)" d="M 121.52918 201.850849 
L 132.313656 192.158208 
L 132.30349 190.723196 
L 121.512805 200.406192 
z
" style="fill:#0d324b;"/>
    <path clip-path="url(#p6923bf3af3)" d="M 121.52918 201.850849 
L 121.512472 200.376845 
L 132.303284 190.694045 
L 132.313656 192.158208 
z
" style="fill:#1b699f;"/>
    <path clip-path="url(#p6923bf3af3)" d="M 150.47027 193.080216 
L 168.881757 198.701282 
L 179.207799 189.008362 
L 160.925781 183.503948 
z
" style="fill:#185b8a;"/>
    <path clip-path="url(#p6923bf3af3)" d="M 197.637759 198.604373 
L 216.338178 204.259466 
L 226.168254 194.507872 
L 207.603293 188.970144 
z
" style="fill:#185b8a;"/>
    <path clip-path="url(#p6923bf3af3)" d="M 235.774065 185.581627 
L 238.997181 88.496919 
L 248.742479 79.820926 
L 245.201212 176.223568 
z
" style="fill:#1b699f;"/>
    <path clip-path="url(#p6923bf3af3)" d="M 56.616159 194.735465 
L 74.364224 200.338059 
L 74.284536 197.663128 
L 56.518482 192.070867 
z
" style="fill:#1b699f;"/>
    <path clip-path="url(#p6923bf3af3)" d="M 74.364224 200.338059 
L 85.6223 190.676775 
L 103.467188 196.230031 
L 92.32918 206.00912 
z
" style="fill:#113f60;"/>
    <path clip-path="url(#p6923bf3af3)" d="M 226.1497 195.135458 
L 226.238555 192.129876 
L 245.047151 197.725685 
L 244.935565 200.742927 
z
" style="fill:#0d324b;"/>
    <path clip-path="url(#p6923bf3af3)" d="M 74.329824 199.183332 
L 92.30274 204.849913 
L 103.446037 195.078568 
L 85.593294 189.529752 
z
" style="fill:#185b8a;"/>
    <path clip-path="url(#p6923bf3af3)" d="M 168.848141 203.368578 
L 168.85899 201.862268 
L 179.172636 192.148179 
L 179.155879 193.644428 
z
" style="fill:#1b699f;"/>
    <path clip-path="url(#p6923bf3af3)" d="M 56.616159 194.735465 
L 56.323343 186.747526 
L 74.125333 192.319041 
L 74.364224 200.338059 
z
" style="fill:#0d324b;"/>
    <path clip-path="url(#p6923bf3af3)" d="M 226.1497 195.135458 
L 244.935565 200.742927 
L 245.154718 194.817113 
L 226.324208 189.232584 
z
" style="fill:#1b699f;"/>
    <path clip-path="url(#p6923bf3af3)" d="M 103.467188 196.230031 
L 121.52918 201.850849 
L 121.512805 200.406192 
L 103.440754 194.790953 
z
" style="fill:#1b699f;"/>
    <path clip-path="url(#p6923bf3af3)" d="M 168.848141 203.368578 
L 179.155879 193.644428 
L 179.207799 189.008362 
L 168.881757 198.701282 
z
" style="fill:#0d324b;"/>
    <path clip-path="url(#p6923bf3af3)" d="M 103.467188 196.230031 
L 103.398373 192.483778 
L 121.486551 198.090052 
L 121.52918 201.850849 
z
" style="fill:#0d324b;"/>
    <path clip-path="url(#p6923bf3af3)" d="M 121.52918 201.850849 
L 132.313656 192.158208 
L 150.47027 197.729447 
L 139.812262 207.540469 
z
" style="fill:#113f60;"/>
    <path clip-path="url(#p6923bf3af3)" d="M 216.321863 204.891271 
L 226.1497 195.135458 
L 226.168254 194.507872 
L 216.338178 204.259466 
z
" style="fill:#0d324b;"/>
    <path clip-path="url(#p6923bf3af3)" d="M 121.512472 200.376845 
L 139.806072 206.060744 
L 150.47027 196.259614 
L 132.303284 190.694045 
z
" style="fill:#185b8a;"/>
    <path clip-path="url(#p6923bf3af3)" d="M 216.321863 204.891271 
L 216.399998 201.865455 
L 226.238555 192.129876 
L 226.1497 195.135458 
z
" style="fill:#1b699f;"/>
    <path clip-path="url(#p6923bf3af3)" d="M 150.47027 197.729447 
L 150.47027 196.244673 
L 168.858877 201.878045 
L 168.848141 203.368578 
z
" style="fill:#0d324b;"/>
    <path clip-path="url(#p6923bf3af3)" d="M 45.001327 204.482778 
L 44.668786 196.440905 
L 56.323343 186.747526 
L 56.616159 194.735465 
z
" style="fill:#1b699f;"/>
    <path clip-path="url(#p6923bf3af3)" d="M 92.32918 206.00912 
L 103.467188 196.230031 
L 103.446037 195.078568 
L 92.30274 204.849913 
z
" style="fill:#0d324b;"/>
    <path clip-path="url(#p6923bf3af3)" d="M 168.848141 203.368578 
L 179.155879 193.644428 
L 197.626147 199.233738 
L 187.451339 209.076848 
z
" style="fill:#113f60;"/>
    <path clip-path="url(#p6923bf3af3)" d="M 150.47027 197.729447 
L 168.848141 203.368578 
L 168.881757 198.701282 
L 150.47027 193.080216 
z
" style="fill:#1b699f;"/>
    <path clip-path="url(#p6923bf3af3)" d="M 92.32918 206.00912 
L 92.243156 202.237629 
L 103.398373 192.483778 
L 103.467188 196.230031 
z
" style="fill:#1b699f;"/>
    <path clip-path="url(#p6923bf3af3)" d="M 168.85899 201.862268 
L 187.473304 207.564689 
L 197.653861 197.731692 
L 179.172636 192.148179 
z
" style="fill:#185b8a;"/>
    <path clip-path="url(#p6923bf3af3)" d="M 197.626147 199.233738 
L 216.321863 204.891271 
L 216.338178 204.259466 
L 197.637759 198.604373 
z
" style="fill:#1b699f;"/>
    <path clip-path="url(#p6923bf3af3)" d="M 45.001327 204.482778 
L 56.616159 194.735465 
L 74.364224 200.338059 
L 62.86678 210.204759 
z
" style="fill:#113f60;"/>
    <path clip-path="url(#p6923bf3af3)" d="M 197.626147 199.233738 
L 197.669384 196.890318 
L 216.382611 202.538755 
L 216.321863 204.891271 
z
" style="fill:#0d324b;"/>
    <path clip-path="url(#p6923bf3af3)" d="M 216.321863 204.891271 
L 226.1497 195.135458 
L 244.935565 200.742927 
L 235.24718 210.618283 
z
" style="fill:#113f60;"/>
    <path clip-path="url(#p6923bf3af3)" d="M 139.812262 207.540469 
L 150.47027 197.729447 
L 150.47027 196.259614 
L 139.806072 206.060744 
z
" style="fill:#0d324b;"/>
    <path clip-path="url(#p6923bf3af3)" d="M 139.812262 207.540469 
L 139.806009 206.045702 
L 150.47027 196.244673 
L 150.47027 197.729447 
z
" style="fill:#1b699f;"/>
    <path clip-path="url(#p6923bf3af3)" d="M 74.364224 200.338059 
L 92.32918 206.00912 
L 92.30274 204.849913 
L 74.329824 199.183332 
z
" style="fill:#1b699f;"/>
    <path clip-path="url(#p6923bf3af3)" d="M 74.364224 200.338059 
L 74.306319 198.394314 
L 92.284673 204.057831 
L 92.32918 206.00912 
z
" style="fill:#0d324b;"/>
    <path clip-path="url(#p6923bf3af3)" d="M 254.42216 191.073256 
L 263.713203 181.60291 
L 267.972631 84.807372 
L 258.374389 93.591417 
z
" style="fill:#0d324b;"/>
    <path clip-path="url(#p6923bf3af3)" d="M 216.399998 201.865455 
L 235.348388 207.580702 
L 245.047151 197.725685 
L 226.238555 192.129876 
z
" style="fill:#185b8a;"/>
    <path clip-path="url(#p6923bf3af3)" d="M 92.32918 206.00912 
L 103.467188 196.230031 
L 121.52918 201.850849 
L 110.515029 211.749911 
z
" style="fill:#113f60;"/>
    <path clip-path="url(#p6923bf3af3)" d="M 187.451339 209.076848 
L 197.626147 199.233738 
L 197.653861 197.731692 
L 187.473304 207.564689 
z
" style="fill:#0d324b;"/>
    <path clip-path="url(#p6923bf3af3)" d="M 187.451339 209.076848 
L 187.485607 206.717644 
L 197.669384 196.890318 
L 197.626147 199.233738 
z
" style="fill:#1b699f;"/>
    <path clip-path="url(#p6923bf3af3)" d="M 121.52918 201.850849 
L 121.512805 200.406192 
L 139.806195 206.090205 
L 139.812262 207.540469 
z
" style="fill:#0d324b;"/>
    <path clip-path="url(#p6923bf3af3)" d="M 121.52918 201.850849 
L 139.812262 207.540469 
L 139.806072 206.060744 
L 121.512472 200.376845 
z
" style="fill:#1b699f;"/>
    <path clip-path="url(#p6923bf3af3)" d="M 92.243156 202.237629 
L 110.455548 207.963745 
L 121.486551 198.090052 
L 103.398373 192.483778 
z
" style="fill:#185b8a;"/>
    <path clip-path="url(#p6923bf3af3)" d="M 44.668786 196.440905 
L 62.588868 202.131523 
L 74.125333 192.319041 
L 56.323343 186.747526 
z
" style="fill:#185b8a;"/>
    <path clip-path="url(#p6923bf3af3)" d="M 139.812262 207.540469 
L 150.47027 197.729447 
L 168.848141 203.368578 
L 158.32052 213.300162 
z
" style="fill:#113f60;"/>
    <path clip-path="url(#p6923bf3af3)" d="M 62.86678 210.204759 
L 62.799418 208.247922 
L 74.306319 198.394314 
L 74.364224 200.338059 
z
" style="fill:#1b699f;"/>
    <path clip-path="url(#p6923bf3af3)" d="M 235.774065 185.581627 
L 254.42216 191.073256 
L 258.374389 93.591417 
L 238.997181 88.496919 
z
" style="fill:#1b699f;"/>
    <path clip-path="url(#p6923bf3af3)" d="M 139.806009 206.045702 
L 158.325154 211.799585 
L 168.858877 201.878045 
L 150.47027 196.244673 
z
" style="fill:#185b8a;"/>
    <path clip-path="url(#p6923bf3af3)" d="M 235.24718 210.618283 
L 244.935565 200.742927 
L 245.047151 197.725685 
L 235.348388 207.580702 
z
" style="fill:#0d324b;"/>
    <path clip-path="url(#p6923bf3af3)" d="M 168.848141 203.368578 
L 168.850514 203.039102 
L 187.456143 208.746094 
L 187.451339 209.076848 
z
" style="fill:#0d324b;"/>
    <path clip-path="url(#p6923bf3af3)" d="M 168.848141 203.368578 
L 187.451339 209.076848 
L 187.473304 207.564689 
L 168.85899 201.862268 
z
" style="fill:#1b699f;"/>
    <path clip-path="url(#p6923bf3af3)" d="M 62.86678 210.204759 
L 74.364224 200.338059 
L 74.125333 192.319041 
L 62.588868 202.131523 
z
" style="fill:#0d324b;"/>
    <path clip-path="url(#p6923bf3af3)" d="M 187.451339 209.076848 
L 197.626147 199.233738 
L 216.321863 204.891271 
L 206.284033 214.855538 
z
" style="fill:#113f60;"/>
    <path clip-path="url(#p6923bf3af3)" d="M 110.515029 211.749911 
L 110.49218 210.295524 
L 121.512805 200.406192 
L 121.52918 201.850849 
z
" style="fill:#1b699f;"/>
    <path clip-path="url(#p6923bf3af3)" d="M 110.515029 211.749911 
L 121.52918 201.850849 
L 121.486551 198.090052 
L 110.455548 207.963745 
z
" style="fill:#0d324b;"/>
    <path clip-path="url(#p6923bf3af3)" d="M 187.485607 206.717644 
L 206.336071 212.487156 
L 216.382611 202.538755 
L 197.669384 196.890318 
z
" style="fill:#185b8a;"/>
    <path clip-path="url(#p6923bf3af3)" d="M 62.86678 210.204759 
L 74.364224 200.338059 
L 92.32918 206.00912 
L 80.952895 215.997415 
z
" style="fill:#113f60;"/>
    <path clip-path="url(#p6923bf3af3)" d="M 216.321863 204.891271 
L 235.24718 210.618283 
L 235.348388 207.580702 
L 216.399998 201.865455 
z
" style="fill:#1b699f;"/>
    <path clip-path="url(#p6923bf3af3)" d="M 158.32052 213.300162 
L 158.321544 212.968468 
L 168.850514 203.039102 
L 168.848141 203.368578 
z
" style="fill:#1b699f;"/>
    <path clip-path="url(#p6923bf3af3)" d="M 158.32052 213.300162 
L 168.848141 203.368578 
L 168.858877 201.878045 
L 158.325154 211.799585 
z
" style="fill:#0d324b;"/>
    <path clip-path="url(#p6923bf3af3)" d="M 216.321863 204.891271 
L 216.461721 199.47518 
L 235.428339 205.181102 
L 235.24718 210.618283 
z
" style="fill:#0d324b;"/>
    <path clip-path="url(#p6923bf3af3)" d="M 45.001327 204.482778 
L 62.86678 210.204759 
L 62.588868 202.131523 
L 44.668786 196.440905 
z
" style="fill:#1b699f;"/>
    <path clip-path="url(#p6923bf3af3)" d="M 62.799418 208.247922 
L 80.89911 214.032965 
L 92.284673 204.057831 
L 74.306319 198.394314 
z
" style="fill:#185b8a;"/>
    <path clip-path="url(#p6923bf3af3)" d="M 92.32918 206.00912 
L 92.30274 204.849913 
L 110.496747 210.586201 
L 110.515029 211.749911 
z
" style="fill:#0d324b;"/>
    <path clip-path="url(#p6923bf3af3)" d="M 92.32918 206.00912 
L 110.515029 211.749911 
L 110.455548 207.963745 
L 92.243156 202.237629 
z
" style="fill:#1b699f;"/>
    <path clip-path="url(#p6923bf3af3)" d="M 110.515029 211.749911 
L 121.52918 201.850849 
L 139.812262 207.540469 
L 128.925869 217.561726 
z
" style="fill:#113f60;"/>
    <path clip-path="url(#p6923bf3af3)" d="M 110.49218 210.295524 
L 128.913472 216.101681 
L 139.806195 206.090205 
L 121.512805 200.406192 
z
" style="fill:#185b8a;"/>
    <path clip-path="url(#p6923bf3af3)" d="M 206.284033 214.855538 
L 216.321863 204.891271 
L 216.382611 202.538755 
L 206.336071 212.487156 
z
" style="fill:#0d324b;"/>
    <path clip-path="url(#p6923bf3af3)" d="M 139.812262 207.540469 
L 158.32052 213.300162 
L 158.325154 211.799585 
L 139.806009 206.045702 
z
" style="fill:#1b699f;"/>
    <path clip-path="url(#p6923bf3af3)" d="M 206.284033 214.855538 
L 206.403841 209.402848 
L 216.461721 199.47518 
L 216.321863 204.891271 
z
" style="fill:#1b699f;"/>
    <path clip-path="url(#p6923bf3af3)" d="M 139.812262 207.540469 
L 139.795331 203.493454 
L 158.333068 209.237393 
L 158.32052 213.300162 
z
" style="fill:#0d324b;"/>
    <path clip-path="url(#p6923bf3af3)" d="M 80.952895 215.997415 
L 80.920943 214.830393 
L 92.30274 204.849913 
L 92.32918 206.00912 
z
" style="fill:#1b699f;"/>
    <path clip-path="url(#p6923bf3af3)" d="M 158.32052 213.300162 
L 168.848141 203.368578 
L 187.451339 209.076848 
L 177.058137 219.131232 
z
" style="fill:#113f60;"/>
    <path clip-path="url(#p6923bf3af3)" d="M 158.321544 212.968468 
L 177.061628 218.798248 
L 187.456143 208.746094 
L 168.850514 203.039102 
z
" style="fill:#185b8a;"/>
    <path clip-path="url(#p6923bf3af3)" d="M 80.952895 215.997415 
L 92.32918 206.00912 
L 92.284673 204.057831 
L 80.89911 214.032965 
z
" style="fill:#0d324b;"/>
    <path clip-path="url(#p6923bf3af3)" d="M 187.451339 209.076848 
L 187.465376 208.11048 
L 206.305348 213.885414 
L 206.284033 214.855538 
z
" style="fill:#0d324b;"/>
    <path clip-path="url(#p6923bf3af3)" d="M 33.138427 214.438272 
L 45.001327 204.482778 
L 62.86678 210.204759 
L 51.122253 220.283498 
z
" style="fill:#113f60;"/>
    <path clip-path="url(#p6923bf3af3)" d="M 187.451339 209.076848 
L 206.284033 214.855538 
L 206.336071 212.487156 
L 187.485607 206.717644 
z
" style="fill:#1b699f;"/>
    <path clip-path="url(#p6923bf3af3)" d="M 206.284033 214.855538 
L 216.321863 204.891271 
L 235.24718 210.618283 
L 225.350495 220.705958 
z
" style="fill:#113f60;"/>
    <path clip-path="url(#p6923bf3af3)" d="M 128.925869 217.561726 
L 139.812262 207.540469 
L 139.806195 206.090205 
L 128.913472 216.101681 
z
" style="fill:#0d324b;"/>
    <path clip-path="url(#p6923bf3af3)" d="M 128.925869 217.561726 
L 128.891276 213.487372 
L 139.795331 203.493454 
L 139.812262 207.540469 
z
" style="fill:#1b699f;"/>
    <path clip-path="url(#p6923bf3af3)" d="M 62.86678 210.204759 
L 80.952895 215.997415 
L 80.89911 214.032965 
L 62.799418 208.247922 
z
" style="fill:#1b699f;"/>
    <path clip-path="url(#p6923bf3af3)" d="M 80.952895 215.997415 
L 92.32918 206.00912 
L 110.515029 211.749911 
L 99.263786 221.862062 
z
" style="fill:#113f60;"/>
    <path clip-path="url(#p6923bf3af3)" d="M 177.058137 219.131232 
L 187.451339 209.076848 
L 187.456143 208.746094 
L 177.061628 218.798248 
z
" style="fill:#0d324b;"/>
    <path clip-path="url(#p6923bf3af3)" d="M 177.058137 219.131232 
L 177.068337 218.158346 
L 187.465376 208.11048 
L 187.451339 209.076848 
z
" style="fill:#1b699f;"/>
    <path clip-path="url(#p6923bf3af3)" d="M 80.920943 214.830393 
L 99.240104 220.690497 
L 110.496747 210.586201 
L 92.30274 204.849913 
z
" style="fill:#185b8a;"/>
    <path clip-path="url(#p6923bf3af3)" d="M 62.86678 210.204759 
L 62.588868 202.131523 
L 80.730993 207.892652 
L 80.952895 215.997415 
z
" style="fill:#0d324b;"/>
    <path clip-path="url(#p6923bf3af3)" d="M 110.515029 211.749911 
L 110.508001 211.302579 
L 128.922056 217.112655 
L 128.925869 217.561726 
z
" style="fill:#0d324b;"/>
    <path clip-path="url(#p6923bf3af3)" d="M 206.403841 209.402848 
L 225.51223 215.231989 
L 235.428339 205.181102 
L 216.461721 199.47518 
z
" style="fill:#185b8a;"/>
    <path clip-path="url(#p6923bf3af3)" d="M 110.515029 211.749911 
L 128.925869 217.561726 
L 128.913472 216.101681 
L 110.49218 210.295524 
z
" style="fill:#1b699f;"/>
    <path clip-path="url(#p6923bf3af3)" d="M 128.925869 217.561726 
L 139.812262 207.540469 
L 158.32052 213.300162 
L 147.565902 223.445891 
z
" style="fill:#113f60;"/>
    <path clip-path="url(#p6923bf3af3)" d="M 158.32052 213.300162 
L 177.058137 219.131232 
L 177.061628 218.798248 
L 158.321544 212.968468 
z
" style="fill:#1b699f;"/>
    <path clip-path="url(#p6923bf3af3)" d="M 158.32052 213.300162 
L 158.325327 211.743733 
L 177.074519 217.568746 
L 177.058137 219.131232 
z
" style="fill:#0d324b;"/>
    <path clip-path="url(#p6923bf3af3)" d="M 225.350495 220.705958 
L 235.24718 210.618283 
L 235.428339 205.181102 
L 225.51223 215.231989 
z
" style="fill:#0d324b;"/>
    <path clip-path="url(#p6923bf3af3)" d="M 51.122253 220.283498 
L 50.803685 212.155553 
L 62.588868 202.131523 
L 62.86678 210.204759 
z
" style="fill:#1b699f;"/>
    <path clip-path="url(#p6923bf3af3)" d="M 99.263786 221.862062 
L 99.254682 221.411712 
L 110.508001 211.302579 
L 110.515029 211.749911 
z
" style="fill:#1b699f;"/>
    <path clip-path="url(#p6923bf3af3)" d="M 128.891276 213.487372 
L 147.561209 219.355642 
L 158.333068 209.237393 
L 139.795331 203.493454 
z
" style="fill:#185b8a;"/>
    <path clip-path="url(#p6923bf3af3)" d="M 99.263786 221.862062 
L 110.515029 211.749911 
L 110.496747 210.586201 
L 99.240104 220.690497 
z
" style="fill:#0d324b;"/>
    <path clip-path="url(#p6923bf3af3)" d="M 177.058137 219.131232 
L 187.451339 209.076848 
L 206.284033 214.855538 
L 196.029405 225.035012 
z
" style="fill:#113f60;"/>
    <path clip-path="url(#p6923bf3af3)" d="M 177.068337 218.158346 
L 196.046993 224.058338 
L 206.305348 213.885414 
L 187.465376 208.11048 
z
" style="fill:#185b8a;"/>
    <path clip-path="url(#p6923bf3af3)" d="M 238.997181 88.496919 
L 258.374389 93.591417 
L 267.972631 84.807372 
L 248.742479 79.820926 
z
" style="fill:#185b8a;"/>
    <path clip-path="url(#p6923bf3af3)" d="M 51.122253 220.283498 
L 62.86678 210.204759 
L 80.952895 215.997415 
L 69.330605 226.2017 
z
" style="fill:#113f60;"/>
    <path clip-path="url(#p6923bf3af3)" d="M 147.565902 223.445891 
L 147.564104 221.878952 
L 158.325327 211.743733 
L 158.32052 213.300162 
z
" style="fill:#1b699f;"/>
    <path clip-path="url(#p6923bf3af3)" d="M 206.284033 214.855538 
L 225.350495 220.705958 
L 225.51223 215.231989 
L 206.403841 209.402848 
z
" style="fill:#1b699f;"/>
    <path clip-path="url(#p6923bf3af3)" d="M 147.565902 223.445891 
L 158.32052 213.300162 
L 158.333068 209.237393 
L 147.561209 219.355642 
z
" style="fill:#0d324b;"/>
    <path clip-path="url(#p6923bf3af3)" d="M 80.952895 215.997415 
L 99.263786 221.862062 
L 99.240104 220.690497 
L 80.920943 214.830393 
z
" style="fill:#1b699f;"/>
    <path clip-path="url(#p6923bf3af3)" d="M 206.284033 214.855538 
L 206.474486 206.187642 
L 225.6076 212.004168 
L 225.350495 220.705958 
z
" style="fill:#0d324b;"/>
    <path clip-path="url(#p6923bf3af3)" d="M 80.952895 215.997415 
L 80.878877 213.293976 
L 99.208925 219.148089 
L 99.263786 221.862062 
z
" style="fill:#0d324b;"/>
    <path clip-path="url(#p6923bf3af3)" d="M 99.263786 221.862062 
L 110.515029 211.749911 
L 128.925869 217.561726 
L 117.803669 227.800051 
z
" style="fill:#113f60;"/>
    <path clip-path="url(#p6923bf3af3)" d="M 99.254682 221.411712 
L 117.797825 227.347946 
L 128.922056 217.112655 
L 110.508001 211.302579 
z
" style="fill:#185b8a;"/>
    <path clip-path="url(#p6923bf3af3)" d="M 196.029405 225.035012 
L 206.284033 214.855538 
L 206.305348 213.885414 
L 196.046993 224.058338 
z
" style="fill:#0d324b;"/>
    <path clip-path="url(#p6923bf3af3)" d="M 128.925869 217.561726 
L 128.909221 215.600917 
L 147.563643 221.477443 
L 147.565902 223.445891 
z
" style="fill:#0d324b;"/>
    <path clip-path="url(#p6923bf3af3)" d="M 50.803685 212.155553 
L 69.068794 218.04195 
L 80.730993 207.892652 
L 62.588868 202.131523 
z
" style="fill:#185b8a;"/>
    <path clip-path="url(#p6923bf3af3)" d="M 128.925869 217.561726 
L 147.565902 223.445891 
L 147.561209 219.355642 
L 128.891276 213.487372 
z
" style="fill:#1b699f;"/>
    <path clip-path="url(#p6923bf3af3)" d="M 147.565902 223.445891 
L 158.32052 213.300162 
L 177.058137 219.131232 
L 166.439434 229.403766 
z
" style="fill:#113f60;"/>
    <path clip-path="url(#p6923bf3af3)" d="M 196.029405 225.035012 
L 196.186551 216.308302 
L 206.474486 206.187642 
L 206.284033 214.855538 
z
" style="fill:#1b699f;"/>
    <path clip-path="url(#p6923bf3af3)" d="M 69.330605 226.2017 
L 69.243277 223.479983 
L 80.878877 213.293976 
L 80.952895 215.997415 
z
" style="fill:#1b699f;"/>
    <path clip-path="url(#p6923bf3af3)" d="M 147.564104 221.878952 
L 166.44938 227.830716 
L 177.074519 217.568746 
L 158.325327 211.743733 
z
" style="fill:#185b8a;"/>
    <path clip-path="url(#p6923bf3af3)" d="M 177.058137 219.131232 
L 196.029405 225.035012 
L 196.046993 224.058338 
L 177.068337 218.158346 
z
" style="fill:#1b699f;"/>
    <path clip-path="url(#p6923bf3af3)" d="M 177.058137 219.131232 
L 177.075924 217.434771 
L 196.060073 223.331941 
L 196.029405 225.035012 
z
" style="fill:#0d324b;"/>
    <path clip-path="url(#p6923bf3af3)" d="M 69.330605 226.2017 
L 80.952895 215.997415 
L 80.730993 207.892652 
L 69.068794 218.04195 
z
" style="fill:#0d324b;"/>
    <path clip-path="url(#p6923bf3af3)" d="M 117.803669 227.800051 
L 128.925869 217.561726 
L 128.922056 217.112655 
L 117.797825 227.347946 
z
" style="fill:#0d324b;"/>
    <path clip-path="url(#p6923bf3af3)" d="M 196.029405 225.035012 
L 206.284033 214.855538 
L 225.350495 220.705958 
L 215.238722 231.012873 
z
" style="fill:#113f60;"/>
    <path clip-path="url(#p6923bf3af3)" d="M 117.803669 227.800051 
L 117.778152 225.825986 
L 128.909221 215.600917 
L 128.925869 217.561726 
z
" style="fill:#1b699f;"/>
    <path clip-path="url(#p6923bf3af3)" d="M 69.330605 226.2017 
L 80.952895 215.997415 
L 99.263786 221.862062 
L 87.767713 232.194255 
z
" style="fill:#113f60;"/>
    <path clip-path="url(#p6923bf3af3)" d="M 166.439434 229.403766 
L 177.058137 219.131232 
L 177.074519 217.568746 
L 166.44938 227.830716 
z
" style="fill:#0d324b;"/>
    <path clip-path="url(#p6923bf3af3)" d="M 166.439434 229.403766 
L 166.450233 227.695835 
L 177.075924 217.434771 
L 177.058137 219.131232 
z
" style="fill:#1b699f;"/>
    <path clip-path="url(#p6923bf3af3)" d="M 51.122253 220.283498 
L 69.330605 226.2017 
L 69.068794 218.04195 
L 50.803685 212.155553 
z
" style="fill:#1b699f;"/>
    <path clip-path="url(#p6923bf3af3)" d="M 99.263786 221.862062 
L 117.803669 227.800051 
L 117.797825 227.347946 
L 99.254682 221.411712 
z
" style="fill:#1b699f;"/>
    <path clip-path="url(#p6923bf3af3)" d="M 69.243277 223.479983 
L 87.699804 229.461912 
L 99.208925 219.148089 
L 80.878877 213.293976 
z
" style="fill:#185b8a;"/>
    <path clip-path="url(#p6923bf3af3)" d="M 117.803669 227.800051 
L 128.925869 217.561726 
L 147.565902 223.445891 
L 136.576866 233.812766 
z
" style="fill:#113f60;"/>
    <path clip-path="url(#p6923bf3af3)" d="M 196.186551 216.308302 
L 215.463532 222.25197 
L 225.6076 212.004168 
L 206.474486 206.187642 
z
" style="fill:#185b8a;"/>
    <path clip-path="url(#p6923bf3af3)" d="M 99.263786 221.862062 
L 99.101957 213.856368 
L 117.699784 219.763023 
L 117.803669 227.800051 
z
" style="fill:#0d324b;"/>
    <path clip-path="url(#p6923bf3af3)" d="M 117.778152 225.825986 
L 136.565945 231.830996 
L 147.563643 221.477443 
L 128.909221 215.600917 
z
" style="fill:#185b8a;"/>
    <path clip-path="url(#p6923bf3af3)" d="M 147.565902 223.445891 
L 147.565465 223.065439 
L 166.441849 229.021831 
L 166.439434 229.403766 
z
" style="fill:#0d324b;"/>
    <path clip-path="url(#p6923bf3af3)" d="M 147.565902 223.445891 
L 166.439434 229.403766 
L 166.44938 227.830716 
L 147.564104 221.878952 
z
" style="fill:#1b699f;"/>
    <path clip-path="url(#p6923bf3af3)" d="M 45.001327 204.482778 
L 40.537804 96.540941 
L 59.135612 101.815892 
L 62.86678 210.204759 
z
" style="fill:#0d324b;"/>
    <path clip-path="url(#p6923bf3af3)" d="M 166.439434 229.403766 
L 177.058137 219.131232 
L 196.029405 225.035012 
L 185.550881 235.436744 
z
" style="fill:#113f60;"/>
    <path clip-path="url(#p6923bf3af3)" d="M 215.238722 231.012873 
L 225.350495 220.705958 
L 225.6076 212.004168 
L 215.463532 222.25197 
z
" style="fill:#0d324b;"/>
    <path clip-path="url(#p6923bf3af3)" d="M 87.767713 232.194255 
L 99.263786 221.862062 
L 99.208925 219.148089 
L 87.699804 229.461912 
z
" style="fill:#0d324b;"/>
    <path clip-path="url(#p6923bf3af3)" d="M 166.450233 227.695835 
L 185.574753 233.722146 
L 196.060073 223.331941 
L 177.075924 217.434771 
z
" style="fill:#185b8a;"/>
    <path clip-path="url(#p6923bf3af3)" d="M 87.767713 232.194255 
L 87.56739 224.13419 
L 99.101957 213.856368 
L 99.263786 221.862062 
z
" style="fill:#1b699f;"/>
    <path clip-path="url(#p6923bf3af3)" d="M 136.576866 233.812766 
L 136.574755 233.429741 
L 147.565465 223.065439 
L 147.565902 223.445891 
z
" style="fill:#1b699f;"/>
    <path clip-path="url(#p6923bf3af3)" d="M 136.576866 233.812766 
L 147.565902 223.445891 
L 147.563643 221.477443 
L 136.565945 231.830996 
z
" style="fill:#0d324b;"/>
    <path clip-path="url(#p6923bf3af3)" d="M 196.029405 225.035012 
L 196.158043 217.891416 
L 215.422749 223.841316 
L 215.238722 231.012873 
z
" style="fill:#0d324b;"/>
    <path clip-path="url(#p6923bf3af3)" d="M 33.138427 214.438272 
L 28.117563 105.720425 
L 40.537804 96.540941 
L 45.001327 204.482778 
z
" style="fill:#1b699f;"/>
    <path clip-path="url(#p6923bf3af3)" d="M 196.029405 225.035012 
L 215.238722 231.012873 
L 215.463532 222.25197 
L 196.186551 216.308302 
z
" style="fill:#1b699f;"/>
    <path clip-path="url(#p6923bf3af3)" d="M 69.330605 226.2017 
L 87.767713 232.194255 
L 87.699804 229.461912 
L 69.243277 223.479983 
z
" style="fill:#1b699f;"/>
    <path clip-path="url(#p6923bf3af3)" d="M 87.767713 232.194255 
L 99.263786 221.862062 
L 117.803669 227.800051 
L 106.437917 238.262572 
z
" style="fill:#113f60;"/>
    <path clip-path="url(#p6923bf3af3)" d="M 185.550881 235.436744 
L 196.029405 225.035012 
L 196.060073 223.331941 
L 185.574753 233.722146 
z
" style="fill:#0d324b;"/>
    <path clip-path="url(#p6923bf3af3)" d="M 117.803669 227.800051 
L 136.576866 233.812766 
L 136.565945 231.830996 
L 117.778152 225.825986 
z
" style="fill:#1b699f;"/>
    <path clip-path="url(#p6923bf3af3)" d="M 185.550881 235.436744 
L 185.651017 228.24463 
L 196.158043 217.891416 
L 196.029405 225.035012 
z
" style="fill:#1b699f;"/>
    <path clip-path="url(#p6923bf3af3)" d="M 117.803669 227.800051 
L 117.747167 223.428829 
L 136.552684 229.424457 
L 136.576866 233.812766 
z
" style="fill:#0d324b;"/>
    <path clip-path="url(#p6923bf3af3)" d="M 136.576866 233.812766 
L 147.565902 223.445891 
L 166.439434 229.403766 
L 155.58781 239.901627 
z
" style="fill:#113f60;"/>
    <path clip-path="url(#p6923bf3af3)" d="M 136.574755 233.429741 
L 155.588592 239.517108 
L 166.441849 229.021831 
L 147.565465 223.065439 
z
" style="fill:#185b8a;"/>
    <path clip-path="url(#p6923bf3af3)" d="M 166.439434 229.403766 
L 185.550881 235.436744 
L 185.574753 233.722146 
L 166.450233 227.695835 
z
" style="fill:#1b699f;"/>
    <path clip-path="url(#p6923bf3af3)" d="M 166.439434 229.403766 
L 166.454832 226.968446 
L 185.58492 232.991914 
L 185.550881 235.436744 
z
" style="fill:#0d324b;"/>
    <path clip-path="url(#p6923bf3af3)" d="M 87.56739 224.13419 
L 106.296349 230.170902 
L 117.699784 219.763023 
L 99.101957 213.856368 
z
" style="fill:#185b8a;"/>
    <path clip-path="url(#p6923bf3af3)" d="M 185.550881 235.436744 
L 196.029405 225.035012 
L 215.238722 231.012873 
L 204.90477 241.546254 
z
" style="fill:#113f60;"/>
    <path clip-path="url(#p6923bf3af3)" d="M 106.437917 238.262572 
L 106.360921 233.861701 
L 117.747167 223.428829 
L 117.803669 227.800051 
z
" style="fill:#1b699f;"/>
    <path clip-path="url(#p6923bf3af3)" d="M 106.437917 238.262572 
L 117.803669 227.800051 
L 117.699784 219.763023 
L 106.296349 230.170902 
z
" style="fill:#0d324b;"/>
    <path clip-path="url(#p6923bf3af3)" d="M 155.58781 239.901627 
L 166.439434 229.403766 
L 166.441849 229.021831 
L 155.588592 239.517108 
z
" style="fill:#0d324b;"/>
    <path clip-path="url(#p6923bf3af3)" d="M 155.58781 239.901627 
L 155.592799 237.449806 
L 166.454832 226.968446 
L 166.439434 229.403766 
z
" style="fill:#1b699f;"/>
    <path clip-path="url(#p6923bf3af3)" d="M 51.122253 220.283498 
L 62.86678 210.204759 
L 59.135612 101.815892 
L 46.843443 111.113897 
z
" style="fill:#0d324b;"/>
    <path clip-path="url(#p6923bf3af3)" d="M 185.651017 228.24463 
L 205.061139 234.325941 
L 215.422749 223.841316 
L 196.158043 217.891416 
z
" style="fill:#185b8a;"/>
    <path clip-path="url(#p6923bf3af3)" d="M 106.437917 238.262572 
L 117.803669 227.800051 
L 136.576866 233.812766 
L 125.345664 244.408097 
z
" style="fill:#113f60;"/>
    <path clip-path="url(#p6923bf3af3)" d="M 87.767713 232.194255 
L 106.437917 238.262572 
L 106.296349 230.170902 
L 87.56739 224.13419 
z
" style="fill:#1b699f;"/>
    <path clip-path="url(#p6923bf3af3)" d="M 136.576866 233.812766 
L 155.58781 239.901627 
L 155.588592 239.517108 
L 136.574755 233.429741 
z
" style="fill:#1b699f;"/>
    <path clip-path="url(#p6923bf3af3)" d="M 136.576866 233.812766 
L 136.55416 229.692271 
L 155.596227 235.765013 
L 155.58781 239.901627 
z
" style="fill:#0d324b;"/>
    <path clip-path="url(#p6923bf3af3)" d="M 33.138427 214.438272 
L 51.122253 220.283498 
L 46.843443 111.113897 
L 28.117563 105.720425 
z
" style="fill:#1b699f;"/>
    <path clip-path="url(#p6923bf3af3)" d="M 204.90477 241.546254 
L 215.238722 231.012873 
L 215.422749 223.841316 
L 205.061139 234.325941 
z
" style="fill:#0d324b;"/>
    <path clip-path="url(#p6923bf3af3)" d="M 155.58781 239.901627 
L 166.439434 229.403766 
L 185.550881 235.436744 
L 174.841046 246.06809 
z
" style="fill:#113f60;"/>
    <path clip-path="url(#p6923bf3af3)" d="M 106.360921 233.861701 
L 125.301451 239.989995 
L 136.552684 229.424457 
L 117.747167 223.428829 
z
" style="fill:#185b8a;"/>
    <path clip-path="url(#p6923bf3af3)" d="M 155.592799 237.449806 
L 174.864955 243.606679 
L 185.58492 232.991914 
L 166.454832 226.968446 
z
" style="fill:#185b8a;"/>
    <path clip-path="url(#p6923bf3af3)" d="M 185.550881 235.436744 
L 185.641584 228.922098 
L 205.046409 235.006076 
L 204.90477 241.546254 
z
" style="fill:#0d324b;"/>
    <path clip-path="url(#p6923bf3af3)" d="M 185.550881 235.436744 
L 204.90477 241.546254 
L 205.061139 234.325941 
L 185.651017 228.24463 
z
" style="fill:#1b699f;"/>
    <path clip-path="url(#p6923bf3af3)" d="M 125.345664 244.408097 
L 125.304149 240.259633 
L 136.55416 229.692271 
L 136.576866 233.812766 
z
" style="fill:#1b699f;"/>
    <path clip-path="url(#p6923bf3af3)" d="M 125.345664 244.408097 
L 136.576866 233.812766 
L 136.552684 229.424457 
L 125.301451 239.989995 
z
" style="fill:#0d324b;"/>
    <path clip-path="url(#p6923bf3af3)" d="M 174.841046 246.06809 
L 185.550881 235.436744 
L 185.58492 232.991914 
L 174.864955 243.606679 
z
" style="fill:#0d324b;"/>
    <path clip-path="url(#p6923bf3af3)" d="M 174.841046 246.06809 
L 174.904756 239.509144 
L 185.641584 228.922098 
L 185.550881 235.436744 
z
" style="fill:#1b699f;"/>
    <path clip-path="url(#p6923bf3af3)" d="M 106.437917 238.262572 
L 125.345664 244.408097 
L 125.301451 239.989995 
L 106.360921 233.861701 
z
" style="fill:#1b699f;"/>
    <path clip-path="url(#p6923bf3af3)" d="M 125.345664 244.408097 
L 136.576866 233.812766 
L 155.58781 239.901627 
L 144.495516 250.632312 
z
" style="fill:#113f60;"/>
    <path clip-path="url(#p6923bf3af3)" d="M 155.58781 239.901627 
L 174.841046 246.06809 
L 174.864955 243.606679 
L 155.592799 237.449806 
z
" style="fill:#1b699f;"/>
    <path clip-path="url(#p6923bf3af3)" d="M 125.304149 240.259633 
L 144.485581 246.467595 
L 155.596227 235.765013 
L 136.55416 229.692271 
z
" style="fill:#185b8a;"/>
    <path clip-path="url(#p6923bf3af3)" d="M 174.841046 246.06809 
L 185.550881 235.436744 
L 204.90477 241.546254 
L 194.341235 252.313648 
z
" style="fill:#113f60;"/>
    <path clip-path="url(#p6923bf3af3)" d="M 155.58781 239.901627 
L 155.608057 229.950686 
L 174.938083 236.078038 
L 174.841046 246.06809 
z
" style="fill:#0d324b;"/>
    <path clip-path="url(#p6923bf3af3)" d="M 144.495516 250.632312 
L 155.58781 239.901627 
L 155.596227 235.765013 
L 144.485581 246.467595 
z
" style="fill:#0d324b;"/>
    <path clip-path="url(#p6923bf3af3)" d="M 174.904756 239.509144 
L 194.45666 245.728959 
L 205.046409 235.006076 
L 185.641584 228.922098 
z
" style="fill:#185b8a;"/>
    <path clip-path="url(#p6923bf3af3)" d="M 144.495516 250.632312 
L 144.471615 240.61351 
L 155.608057 229.950686 
L 155.58781 239.901627 
z
" style="fill:#1b699f;"/>
    <path clip-path="url(#p6923bf3af3)" d="M 194.341235 252.313648 
L 204.90477 241.546254 
L 205.046409 235.006076 
L 194.45666 245.728959 
z
" style="fill:#0d324b;"/>
    <path clip-path="url(#p6923bf3af3)" d="M 125.345664 244.408097 
L 144.495516 250.632312 
L 144.485581 246.467595 
L 125.304149 240.259633 
z
" style="fill:#1b699f;"/>
    <path clip-path="url(#p6923bf3af3)" d="M 144.495516 250.632312 
L 155.58781 239.901627 
L 174.841046 246.06809 
L 163.892155 256.93674 
z
" style="fill:#113f60;"/>
    <path clip-path="url(#p6923bf3af3)" d="M 174.841046 246.06809 
L 194.341235 252.313648 
L 194.45666 245.728959 
L 174.904756 239.509144 
z
" style="fill:#1b699f;"/>
    <path clip-path="url(#p6923bf3af3)" d="M 144.471615 240.61351 
L 163.946196 246.878505 
L 174.938083 236.078038 
L 155.608057 229.950686 
z
" style="fill:#185b8a;"/>
    <path clip-path="url(#p6923bf3af3)" d="M 28.117563 105.720425 
L 46.843443 111.113897 
L 59.135612 101.815892 
L 40.537804 96.540941 
z
" style="fill:#185b8a;"/>
    <path clip-path="url(#p6923bf3af3)" d="M 163.892155 256.93674 
L 174.841046 246.06809 
L 174.938083 236.078038 
L 163.946196 246.878505 
z
" style="fill:#0d324b;"/>
    <path clip-path="url(#p6923bf3af3)" d="M 163.892155 256.93674 
L 174.841046 246.06809 
L 194.341235 252.313648 
L 183.540382 263.322941 
z
" style="fill:#113f60;"/>
    <path clip-path="url(#p6923bf3af3)" d="M 144.495516 250.632312 
L 163.892155 256.93674 
L 163.946196 246.878505 
L 144.471615 240.61351 
z
" style="fill:#1b699f;"/>
    <path clip-path="url(#p6923bf3af3)" d="M 174.841046 246.06809 
L 175.818957 145.39169 
L 196.113365 151.217783 
L 194.341235 252.313648 
z
" style="fill:#0d324b;"/>
    <path clip-path="url(#p6923bf3af3)" d="M 163.892155 256.93674 
L 164.436982 155.532311 
L 175.818957 145.39169 
L 174.841046 246.06809 
z
" style="fill:#1b699f;"/>
    <path clip-path="url(#p6923bf3af3)" d="M 183.540382 263.322941 
L 194.341235 252.313648 
L 196.113365 151.217783 
L 184.891839 161.494975 
z
" style="fill:#0d324b;"/>
    <path clip-path="url(#p6923bf3af3)" d="M 163.892155 256.93674 
L 183.540382 263.322941 
L 184.891839 161.494975 
L 164.436982 155.532311 
z
" style="fill:#1b699f;"/>
    <path clip-path="url(#p6923bf3af3)" d="M 164.436982 155.532311 
L 184.891839 161.494975 
L 196.113365 151.217783 
L 175.818957 145.39169 
z
" style="fill:#185b8a;"/>
   </g>
  </g>
 </g>
 <defs>
  <clipPath id="p6923bf3af3">
   <rect height="279" width="279" x="7.2" y="7.2"/>
  </clipPath>
 </defs>
</svg>
